<svg xmlns="http://www.w3.org/2000/svg" width="531" height="433.915" viewBox="0 0 531 433.915"><defs><style>.a,.b{fill:#333;}.a{fill-rule:evenodd;}.c{fill:#231815;}.d{fill:#4ee5f4;}</style></defs><g transform="translate(-2175.913 -1358.001)"><g transform="translate(2218.025 1358.001)"><path class="a" d="M2286.647,1429.232l-26.93-61.965-10.78,1.355Z" transform="translate(-2227.384 -1359.188)"/><path class="a" d="M2280.988,1436.137l-48.5-78.136-6.737,9.433Z" transform="translate(-2224.412 -1358.001)"/><path class="a" d="M2270,1440.1l-41.752-51.185-4.036,9.418Z" transform="translate(-2224.215 -1361.963)"/></g><g transform="translate(2572.042 1697.256)"><path class="a" d="M2640.541,1747.126l54.628,8.523-2.555,8.24Z" transform="translate(-2631.588 -1747.126)"/><path class="a" d="M2630.272,1748.5l63.375,28.622-5.488,13.49Z" transform="translate(-2630.272 -1747.302)"/><path class="a" d="M2635.532,1761.732l57.563,48.857-7.81,5.291Z" transform="translate(-2630.947 -1748.998)"/></g><g transform="translate(2207.668 1703.048)"><path class="a" d="M2294.684,1764.095l-20.608,51.3-7.457-4.346Z" transform="translate(-2219.293 -1755.093)"/><path class="a" d="M2291.847,1753.769l-42.168,55.3-11.916-8.4Z" transform="translate(-2215.595 -1753.769)"/><path class="a" d="M2276.312,1755.906l-60.575,45.075-3.4-8.8Z" transform="translate(-2212.336 -1754.043)"/></g><g transform="translate(2518.684 1359.606)"><path class="a" d="M2569.071,1415.244l6.787-54.867,8.311,2.286Z" transform="translate(-2569.071 -1359.911)"/><path class="a" d="M2570.762,1424.093l26.6-64.251,13.666,5.058Z" transform="translate(-2569.287 -1359.842)"/><path class="a" d="M2583.83,1419.174l47-59.073,5.538,7.627Z" transform="translate(-2570.962 -1359.875)"/></g><g transform="translate(2175.913 1367.852)"><path class="b" d="M2427.126,1369.3l22.2,86.152,50.323-73.365-8.608,88.548,72.38-51.729-38.374,80.263,85.708-23.854-63.512,62.3,88.7,6.9-80.989,36.819,80.989,36.819-88.7,6.9,63.512,62.3-85.708-23.854,38.374,80.263-72.38-51.729,8.608,88.548-50.323-73.365-22.2,86.152-22.2-86.152-50.323,73.365,8.608-88.548-72.38,51.729,38.374-80.263-85.708,23.854,63.511-62.3-88.7-6.9,80.989-36.819-80.989-36.819,88.7-6.9-63.511-62.3,85.708,23.854-38.374-80.263,72.38,51.729-8.608-88.548,50.323,73.365Z" transform="translate(-2181.348 -1369.3)"/><g transform="translate(0 121.276)"><g transform="translate(0 36.242)"><path class="b" d="M2231.677,1562.624c17-6.526,32.122-3.987,44.087,6.878q-10.138,14.975-18.943,30.3a19.43,19.43,0,0,0-13.609.4c-8,3.119-14.152,11.761-17.637,25.589-2.871,11.408-3.21,21.145-1.545,29.2a38.892,38.892,0,0,0,3.2,9.905c3.69,7.359,9.355,10.816,16.889,10.7a18.46,18.46,0,0,0,7.126-1.6c6.638-2.942,11.725-10.166,15.958-21.885q7.174,8.974,14.04,18.125c-8.036,17.3-17.229,28.46-29.293,34.217-12.247,5.877-24.079,4.749-36.665-3.626a59.121,59.121,0,0,1-18.746-19.542,79.168,79.168,0,0,1-8.678-21.145c-4.324-16.347-3.9-33.85,2.4-52.257C2197.784,1585.694,2212.247,1570.074,2231.677,1562.624Z" transform="translate(-2177.079 -1551.137)"/><path class="b" d="M2235.611,1714.892c-8.7,0-17.158-2.829-25.877-8.636a67.3,67.3,0,0,1-21.145-22.061,87.433,87.433,0,0,1-9.56-23.246c-4.882-18.436-4.028-37.568,2.562-56.808,8.255-24.361,24.192-41.682,46.069-50.084a57.9,57.9,0,0,1,20.672-4.085c11.832,0,22.463,4.212,31.592,12.494l5.094,4.622-3.858,5.694c-6.59,9.722-12.863,19.746-18.64,29.806l-3.224,5.623-6.167-2.06a11.446,11.446,0,0,0-8.191.268c-5.552,2.159-10.11,9.313-12.833,20.142-2.469,9.821-2.97,18.456-1.482,25.645a31.123,31.123,0,0,0,2.541,7.965c2.25,4.494,4.988,6.329,9.432,6.329h.232a10.5,10.5,0,0,0,4.043-.931c4.3-1.912,8.24-7.747,11.7-17.335l4.8-13.313,8.861,11.048c4.812,6.025,9.588,12.192,14.194,18.35l2.85,3.789-2.01,4.3c-9.065,19.514-19.563,31.585-33.066,38.026A42.931,42.931,0,0,1,2235.611,1714.892Zm12.721-149.061a41.946,41.946,0,0,0-14.985,3.034c-17.335,6.639-30.034,20.615-36.743,40.384-5.56,16.262-6.314,32.284-2.243,47.685a71.377,71.377,0,0,0,7.817,19.091,51.5,51.5,0,0,0,16.254,16.968c6.125,4.071,11.711,6.032,17.179,6.032a26.841,26.841,0,0,0,11.762-2.893c9.058-4.331,16.593-12.7,23.45-26.175-.988-1.291-1.989-2.6-2.983-3.908-4.058,6.928-8.812,11.479-14.541,14.018a26.6,26.6,0,0,1-10.167,2.285l-.535.015c-10.491,0-18.661-5.228-23.613-15.077a46.574,46.574,0,0,1-3.908-11.951c-1.956-9.468-1.413-20.488,1.644-32.651,5.143-20.425,15.048-28.165,22.449-31.043a27.729,27.729,0,0,1,12.48-1.891c3.9-6.589,7.972-13.144,12.205-19.606A29.511,29.511,0,0,0,2248.333,1565.832Z" transform="translate(-2175.913 -1549.972)"/></g><g transform="translate(87.425 4.851)"><path class="b" d="M2352.668,1523.784c18.323-2.921,32.4,3.019,41.145,16.777a52.045,52.045,0,0,1,7.916,24.086c.734,8.579-.161,17.983-2.378,28.262-3.964,17.589-11.513,34.182-21.588,50.282-12.311,19.677-24.833,31.184-40.151,35.212-13.179,3.486-24.48-.374-35.036-12.078a63.929,63.929,0,0,1-12.324-21.031,88.287,88.287,0,0,1-4.939-28.3c-.459-18.125,3.972-36.426,14.4-54.374C2312.553,1540.576,2331.094,1527.227,2352.668,1523.784Zm-.769,46.416c-8.678,1.544-16.446,8.769-22.471,21.5-4.9,10.082-7.337,19.55-7.711,28.263a41.228,41.228,0,0,0,1.263,12.051,18.5,18.5,0,0,0,7.3,10.829c4.015,2.639,8.713,3.3,14.2,2.046,7.514-1.686,13.525-6.554,18.484-14.78a59.86,59.86,0,0,0,5.221-49.131C2364.979,1572.528,2359.49,1568.859,2351.9,1570.2Z" transform="translate(-2277.355 -1515.132)"/><path class="b" d="M2327.438,1686.4c-11.642,0-22.386-5.362-31.91-15.923a71.905,71.905,0,0,1-13.9-23.656,96.057,96.057,0,0,1-5.4-30.817c-.515-20.3,4.706-39.981,15.451-58.522,14.011-24.051,34.274-38.8,58.564-42.7,21.3-3.4,38.6,3.831,49.089,20.347a60.035,60.035,0,0,1,9.13,27.684c.79,9.087-.043,19.105-2.526,30.612-3.951,17.54-11.352,34.8-22.625,52.807-13.723,21.957-27.981,34.245-44.843,38.655A42.493,42.493,0,0,1,2327.438,1686.4Zm32.863-156.595a47.635,47.635,0,0,0-7.556.642c-19.444,3.1-35.826,15.211-47.354,35.008-9.256,15.952-13.743,32.841-13.319,50.182a80.856,80.856,0,0,0,4.472,25.787,56.06,56.06,0,0,0,10.787,18.456c6.54,7.266,12.946,10.653,20.107,10.653a27.274,27.274,0,0,0,6.984-.967c12.9-3.393,23.839-13.179,35.459-31.741,10.294-16.473,17.023-32.122,20.58-47.833,2.123-9.848,2.843-18.315,2.208-25.828a43.839,43.839,0,0,0-6.7-20.48C2380.04,1534.338,2371.659,1529.808,2360.3,1529.808Zm-22.082,122.448h0a24.053,24.053,0,0,1-13.455-3.958,26.319,26.319,0,0,1-10.6-15.337,49.831,49.831,0,0,1-1.552-14.365c.444-10.237,3.3-20.806,8.515-31.522,8.875-18.794,20.255-24.439,28.227-25.842a24.669,24.669,0,0,1,4.3-.4c5.481,0,15.451,2.11,20.77,16.171a67.663,67.663,0,0,1-5.848,56.052c-6.046,10.061-13.969,16.255-23.514,18.413A31.225,31.225,0,0,1,2338.219,1652.257Zm15.443-75.56a9.173,9.173,0,0,0-1.56.147c-7.753,1.37-13.341,10.033-16.671,17.081-4.289,8.833-6.618,17.3-6.964,25.215a33.7,33.7,0,0,0,.995,9.616,10.736,10.736,0,0,0,4.114,6.371c2.039,1.341,4.628,1.637,7.993.867,5.319-1.192,9.581-4.74,13.44-11.133a49.254,49.254,0,0,0,6.6-18.936,48.458,48.458,0,0,0-2.046-23.436C2357.372,1576.7,2354.862,1576.7,2353.662,1576.7Z" transform="translate(-2276.19 -1513.967)"/></g><g transform="translate(194.737)"><path class="b" d="M2497.649,1517.687c18.541,1.433,30.916,10.506,36.25,25.915a51.744,51.744,0,0,1,2.116,25.285c-1.277,8.5-4.345,17.447-8.917,26.922-7.994,16.171-19.261,30.548-32.848,43.862-16.608,16.262-31.487,24.538-47.283,24.883-13.6.3-23.635-6.08-31.114-19.944a64.276,64.276,0,0,1-7.026-23.338,89.42,89.42,0,0,1,1.792-28.665c3.781-17.723,12.289-34.472,26.555-49.478C2454.726,1524.686,2475.835,1516.03,2497.649,1517.687Zm-11.571,44.963c-8.811-.522-18.053,4.692-26.859,15.67-7.111,8.67-11.676,17.313-14.06,25.695a40.686,40.686,0,0,0-1.581,12.015,18.327,18.327,0,0,0,4.558,12.226c3.274,3.506,7.669,5.234,13.306,5.313,7.689.1,14.689-3.232,21.426-10.068a56.783,56.783,0,0,0,12.6-19.556,56.14,56.14,0,0,0,3.958-27.014C2498.277,1567.969,2493.769,1563.13,2486.078,1562.649Z" transform="translate(-2400.441 -1509.567)"/><path class="b" d="M2444.855,1671.312c-16.015,0-28.509-8.105-37.145-24.1a72.271,72.271,0,0,1-7.915-26.231,96.957,96.957,0,0,1,1.911-31.211c4.233-19.847,13.835-37.773,28.545-53.273,17.518-18.379,38.6-28.093,60.956-28.093,1.947,0,3.93.078,5.884.226,21.419,1.651,36.729,12.734,43.127,31.225a59.864,59.864,0,0,1,2.47,29.053c-1.355,9.031-4.508,18.6-9.616,29.188-7.965,16.113-19.218,31.176-34.443,46.077-18.527,18.146-35.261,26.767-52.659,27.133C2445.61,1671.312,2445.236,1671.312,2444.855,1671.312Zm46.352-147.056c-17.927,0-35.029,8.008-49.47,23.176-12.657,13.327-20.912,28.686-24.531,45.66a82.367,82.367,0,0,0-1.666,26.133,56.564,56.564,0,0,0,6.146,20.487c6.025,11.147,13.383,15.966,23.937,15.74,13.3-.282,26.224-7.26,41.908-22.612,13.927-13.63,24.17-27.282,31.29-41.7,4.374-9.08,7.062-17.144,8.184-24.587a43.456,43.456,0,0,0-1.75-21.476c-4.346-12.544-14.216-19.472-29.371-20.643C2494.34,1524.318,2492.752,1524.256,2491.207,1524.256Zm-30.591,116.071h-.445c-7.838-.106-14.222-2.731-18.992-7.818a26.259,26.259,0,0,1-6.7-17.376,50.177,50.177,0,0,1,1.841-14.33c2.807-9.856,8.05-19.458,15.606-28.664,12.325-15.373,24.079-18.619,31.762-18.619.571,0,1.135.022,1.693.057,11.549.7,19.1,8.424,20.742,21.18a64.4,64.4,0,0,1-4.43,30.922,65.128,65.128,0,0,1-14.337,22.223C2479.22,1636.149,2470.232,1640.327,2460.616,1640.327Zm23.071-70.946c-6.033,0-12.77,4.409-19.437,12.741-6.244,7.584-10.456,15.267-12.636,22.908a33.577,33.577,0,0,0-1.283,9.581,10.607,10.607,0,0,0,2.512,7.14c1.114,1.2,3.054,2.666,7.542,2.723h.233c5.362,0,10.265-2.447,15.437-7.7a49.073,49.073,0,0,0,10.865-16.868,48.038,48.038,0,0,0,3.471-23.254c-.888-6.935-3.824-7.118-5.961-7.238C2484.187,1569.394,2483.933,1569.38,2483.687,1569.38Z" transform="translate(-2399.276 -1508.403)"/></g><g transform="translate(290.189 21.306)"><path class="c" d="M2568.207,1542.244c14.808.755,29.723,2.117,44.658,4.141a474.838,474.838,0,0,0-47.1,85.282q19.028,1.588,38.21,4.868-6.487,15.917-12.8,31.889c-17.991-3.86-41.709-5.3-69.472-1.785A1289.26,1289.26,0,0,1,2568.207,1542.244Z" transform="translate(-2510.418 -1534.046)"/><path class="b" d="M2594.422,1676.4l-6.562-1.418a177.573,177.573,0,0,0-36.982-3.619,238.915,238.915,0,0,0-29.836,1.933l-12.282,1.56,3.731-11.8a1300.259,1300.259,0,0,1,46.783-125.157l2.18-5.052,5.488.275c15.091.763,30.337,2.174,45.322,4.212l12.841,1.729-7.38,10.639a470.272,470.272,0,0,0-41.963,73.923c9.328,1.016,18.675,2.315,27.9,3.908l9.73,1.658-3.739,9.151c-4.29,10.547-8.593,21.249-12.763,31.8Zm-43.544-20.9a201.334,201.334,0,0,1,33.7,2.7c2.194-5.517,4.409-11.07,6.653-16.6-9.242-1.376-18.542-2.462-27.783-3.231l-10.908-.917,4.276-10.082a483.29,483.29,0,0,1,40.595-75.885c-8.572-.952-17.187-1.686-25.779-2.214-14.992,35.021-28.531,70.946-40.313,107.026C2537.932,1655.769,2544.479,1655.494,2550.878,1655.494Z" transform="translate(-2508.759 -1532.841)"/></g><g transform="translate(359.618 40.418)"><path class="c" d="M2630.535,1662.937a22.072,22.072,0,0,1,11.655,6.427c3.479,3.5,4.367,7.225,2.773,11.07-2.166,5.228-7.253,8.636-15.013,10.61a37.916,37.916,0,0,1-17.694.543,22.811,22.811,0,0,1-11.1-5.2c-3.287-3.077-4.388-6.582-3.217-10.6,1.573-5.4,6.068-9.553,13.716-12.142A34.019,34.019,0,0,1,2630.535,1662.937Zm66.3-96.845a554.62,554.62,0,0,1,47.812,30.513c-21.659,8.924-36.968,17.383-47.113,23.937a209.872,209.872,0,0,0-38.563,32.841q-14.043-6.54-28.439-12.156A796.072,796.072,0,0,1,2696.839,1566.092Z" transform="translate(-2589.56 -1556.214)"/><path class="b" d="M2618.689,1698.869a44.959,44.959,0,0,1-9.236-.98,30.562,30.562,0,0,1-14.808-7.1c-5.56-5.2-7.479-11.81-5.482-18.661,1.637-5.623,6.229-13.2,18.8-17.432a41.923,41.923,0,0,1,23.281-.918,29.948,29.948,0,0,1,15.515,8.664c5.566,5.687,7.168,12.827,4.352,19.593-3.076,7.478-9.941,12.615-20.389,15.238A47.467,47.467,0,0,1,2618.689,1698.869Zm2.462-30.456a26.306,26.306,0,0,0-8.191,1.326c-4.826,1.622-7.726,3.929-8.565,6.822-.219.741-.381,1.277,1.03,2.6a15.151,15.151,0,0,0,7.267,3.21,29.813,29.813,0,0,0,14.082-.452c5.383-1.348,8.614-3.35,9.693-5.962.212-.493.4-.966-1.093-2.469l-.2-.226a14.564,14.564,0,0,0-7.584-4.064A27.362,27.362,0,0,0,2621.151,1668.413Zm38.521-6.85-5.221-2.435c-9.158-4.289-18.576-8.3-27.952-11.951l-9.927-3.845,6.526-8.4a802.662,802.662,0,0,1,66.973-75.905l4.275-4.269,5.25,2.992a565.958,565.958,0,0,1,48.482,30.943l11.7,8.318-13.263,5.46c-22.478,9.277-37.322,17.78-45.837,23.275a202.042,202.042,0,0,0-37.06,31.593Zm-17.532-25.194q6.964,2.889,13.835,6a216.661,216.661,0,0,1,36.052-29.921,278.585,278.585,0,0,1,35.234-18.9c-9.877-6.645-19.995-13-30.26-18.992A790.878,790.878,0,0,0,2642.14,1636.369Z" transform="translate(-2588.395 -1554.762)"/></g><path class="d" d="M2231.677,1562.624c17-6.526,32.122-3.987,44.087,6.878q-10.138,14.975-18.943,30.3a19.43,19.43,0,0,0-13.609.4c-8,3.119-14.152,11.761-17.637,25.589-2.871,11.408-3.21,21.145-1.545,29.2a38.892,38.892,0,0,0,3.2,9.905c3.69,7.359,9.355,10.816,16.889,10.7a18.46,18.46,0,0,0,7.126-1.6c6.638-2.942,11.725-10.166,15.958-21.885q7.174,8.974,14.04,18.125c-8.036,17.3-17.229,28.46-29.293,34.217-12.247,5.877-24.079,4.749-36.665-3.626a59.121,59.121,0,0,1-18.746-19.542,79.168,79.168,0,0,1-8.678-21.145c-4.324-16.347-3.9-33.85,2.4-52.257C2197.784,1585.694,2212.247,1570.074,2231.677,1562.624Z" transform="translate(-2177.079 -1514.896)"/><path class="d" d="M2352.668,1523.784c18.323-2.921,32.4,3.019,41.145,16.777a52.045,52.045,0,0,1,7.916,24.086c.734,8.579-.161,17.983-2.378,28.262-3.964,17.589-11.513,34.182-21.588,50.282-12.311,19.677-24.833,31.184-40.151,35.212-13.179,3.486-24.48-.374-35.036-12.078a63.929,63.929,0,0,1-12.324-21.031,88.287,88.287,0,0,1-4.939-28.3c-.459-18.125,3.972-36.426,14.4-54.374C2312.553,1540.576,2331.094,1527.227,2352.668,1523.784Zm-.769,46.416c-8.678,1.544-16.446,8.769-22.471,21.5-4.9,10.082-7.337,19.55-7.711,28.263a41.228,41.228,0,0,0,1.263,12.051,18.5,18.5,0,0,0,7.3,10.829c4.015,2.639,8.713,3.3,14.2,2.046,7.514-1.686,13.525-6.554,18.484-14.78a59.86,59.86,0,0,0,5.221-49.131C2364.979,1572.528,2359.49,1568.859,2351.9,1570.2Z" transform="translate(-2189.93 -1510.281)"/><path class="d" d="M2497.649,1517.687c18.541,1.433,30.916,10.506,36.25,25.915a51.744,51.744,0,0,1,2.116,25.285c-1.277,8.5-4.345,17.447-8.917,26.922-7.994,16.171-19.261,30.548-32.848,43.862-16.608,16.262-31.487,24.538-47.283,24.883-13.6.3-23.635-6.08-31.114-19.944a64.276,64.276,0,0,1-7.026-23.338,89.42,89.42,0,0,1,1.792-28.665c3.781-17.723,12.289-34.472,26.555-49.478C2454.726,1524.686,2475.835,1516.03,2497.649,1517.687Zm-11.571,44.963c-8.811-.522-18.053,4.692-26.859,15.67-7.111,8.67-11.676,17.313-14.06,25.695a40.686,40.686,0,0,0-1.581,12.015,18.327,18.327,0,0,0,4.558,12.226c3.274,3.506,7.669,5.234,13.306,5.313,7.689.1,14.689-3.232,21.426-10.068a56.783,56.783,0,0,0,12.6-19.556,56.14,56.14,0,0,0,3.958-27.014C2498.277,1567.969,2493.769,1563.13,2486.078,1562.649Z" transform="translate(-2205.704 -1509.567)"/><path class="d" d="M2568.207,1542.244c14.808.755,29.723,2.117,44.658,4.141a474.838,474.838,0,0,0-47.1,85.282q19.028,1.588,38.21,4.868-6.487,15.917-12.8,31.889c-17.991-3.86-41.709-5.3-69.472-1.785A1289.26,1289.26,0,0,1,2568.207,1542.244Z" transform="translate(-2220.23 -1512.74)"/><path class="d" d="M2630.535,1662.937a22.072,22.072,0,0,1,11.655,6.427c3.479,3.5,4.367,7.225,2.773,11.07-2.166,5.228-7.253,8.636-15.013,10.61a37.916,37.916,0,0,1-17.694.543,22.811,22.811,0,0,1-11.1-5.2c-3.287-3.077-4.388-6.582-3.217-10.6,1.573-5.4,6.068-9.553,13.716-12.142A34.019,34.019,0,0,1,2630.535,1662.937Zm66.3-96.845a554.62,554.62,0,0,1,47.812,30.513c-21.659,8.924-36.968,17.383-47.113,23.937a209.872,209.872,0,0,0-38.563,32.841q-14.043-6.54-28.439-12.156A796.072,796.072,0,0,1,2696.839,1566.092Z" transform="translate(-2229.942 -1515.796)"/></g></g></g></svg>