<svg xmlns="http://www.w3.org/2000/svg" width="163.478" height="155.59" viewBox="0 0 163.478 155.59"><defs><style>.a{fill:#fff000;}.b{fill:#333;}</style></defs><g transform="translate(-1586.522 -4907.863)"><g transform="translate(-3968.181 438)"><path class="a" d="M2601.147,4329.692l-28.693-6.229,29-16.221.7-37,13.626,27.428,23.6-7.976-14.384,25.293,20.369,26.376-26.4-7.834-17.636,29.682-.172-33.521" transform="translate(2986.622 248.183)"/><path class="b" d="M2616.568,4295.75l-15.865-31.933-.8,42.5-31.824,17.8,28.929,8.626,2.772,36.122,20.694-30.994,29.083,6.375-20.059-29.389,13.265-27.96-26.2,8.854m24.586,42.735-22.92-6.8-15.378,25.878-.149-29.133-25.878-5.617L2603,4308.17l.591-31.5,11.388,22.921,21-7.1-12.866,22.625Z" transform="translate(2986.622 248.183)"/></g><g transform="translate(-3783.532 377)"><path class="a" d="M2511.816,4336.954l-17.307,13.975,7.188-23.729-18.07-14.8,21.562-.035,7.062-23.356,7.257,22.68,22.63,4.174-18.452,12.825,9.891,23.584-21.761-15.313" transform="translate(2986.622 248.183)"/><path class="b" d="M2522.346,4308.722,2512.2,4282.68l-8.4,27.8-25.417.04,21.156,17.333-8.593,28.366,20.771-14.714,26.121,16.052-9.874-28.164,18.951-14.567-24.564-6.108m6.973,38.253-17.58-12.374-13.663,11.032,5.782-19.09-14.983-12.277,17.711-.028,5.715-18.908,5.76,18,19.3,3.561-16,11.118Z" transform="translate(2986.622 248.183)"/></g><g transform="translate(-3970.566 472)"><path class="a" d="M2671.5,4321.342l-15.1-3.09,14.092-10.614-1.926-17.258,12.742,10.922,14.542-7.548-4.789,15.675,10.486,13.013-16.041-1.653-7.675,17.487-6.332-16.934" transform="translate(2986.622 248.183)"/><path class="b" d="M2651.944,4319.258l18.161,3.718,7.59,20.294,10.09-18.144,18.057-.353-12.691-15.748,5.805-19-17.384,9.027-15.4-13.2,2.334,20.93-16.564,12.476m20.536-10.762-.977-13.129,9.548,8.187,11.7-6.073-3.773,12.351,8.283,10.279-12.919-1.334-6.368,14.508-5.076-13.574-12.036-2.465Z" transform="translate(2986.622 248.183)"/></g></g></svg>