<svg xmlns="http://www.w3.org/2000/svg" xmlns:xlink="http://www.w3.org/1999/xlink" width="275.24" height="126.352" viewBox="0 0 275.24 126.352"><defs><style>.a{fill:none;}.b{clip-path:url(#a);}.c{fill:#720000;}.d{fill:#7a3600;}.e{fill:#8a7800;}.f{fill:#004c1a;}.g{fill:#00507a;}.h{fill:#dc001d;}.i{fill:#ffad00;}.j{fill:#ffee0d;}.k{fill:#80b639;}.l{fill:#1a1311;}.m{fill:#27b5ee;}.n{fill:#c4ad0e;}.o{fill:#1d86af;}.p{fill:#b87e00;}.q{fill:#a00013;}.r{fill:#5e862a;}.s{fill:#b2b2b3;}</style><clipPath id="a"><rect class="a" width="275.24" height="126.352"/></clipPath></defs><g transform="translate(137.62 63.176)"><g class="b" transform="translate(-137.62 -63.176)"><path class="c" d="M122.46,63.775H103.5V35.2h18.062c6.11,0,9.435,1.528,9.435,7.818v.988a6.56,6.56,0,0,1-2.426,4.852,6.739,6.739,0,0,1,3.055,5.751v.9c0,4.583-2.067,8.267-9.256,8.267m-2.336-19.05c0-.449-.359-.9-1.168-.9h-5.032v2.336h4.852c.719,0,1.348-.539,1.348-.988Zm.539,8.357c0-.539-.359-.9-1.078-.9h-5.661v2.7h5.392c.988,0,1.438-.359,1.438-.988Z" transform="translate(-10.495 -3.569)"/><path class="d" d="M159.418,64.617h-13.03c-4.583,0-7.189-2.516-7.189-5.931V57.249c0-3.325,2.516-5.481,6.739-5.481h10.334c0-.719-.359-1.078-1.258-1.078H140.368V43.5H158.43c6.021,0,7.818,2.965,7.818,8.357v7.279c0,3.325-2.336,5.571-6.829,5.571m-3.325-7.1c0-.27-.18-.539-.809-.539h-5.3c-.629,0-.809.18-.809.539v.27c0,.359.18.629.809.629h5.3c.629,0,.809-.18.809-.629Z" transform="translate(-14.115 -4.411)"/><rect class="e" width="9.885" height="28.557" transform="translate(155.907 31.72)"/><rect class="f" width="9.885" height="28.557" transform="translate(170.284 31.72)"/><path class="d" d="M284.554,64.617V54.643c0-1.348-.629-1.8-1.887-1.8h-2.246c-1.258,0-2.067.629-2.067,1.8v9.974H268.2V51.138c0-4.673,2.606-7.638,7.368-7.638h11.412c4.763,0,7.818,2.965,7.818,7.638V64.617Z" transform="translate(-27.196 -4.411)"/><path class="g" d="M236.633,27.394c0,9.345-14.917,16.894-14.917,16.894S206.8,36.739,206.8,27.394,213.45,10.5,221.717,10.5s14.917,7.548,14.917,16.894" transform="translate(-20.97 -1.065)"/><path class="c" d="M261.133,52.994c0,9.345-14.917,16.894-14.917,16.894S231.3,62.339,231.3,52.994,237.95,36.1,246.217,36.1s14.917,7.548,14.917,16.894" transform="translate(-23.455 -3.661)"/><path class="h" d="M120.06,61.775H101.1V33.2h18.062c6.11,0,9.435,1.528,9.435,7.818v.988a6.56,6.56,0,0,1-2.426,4.852,6.739,6.739,0,0,1,3.055,5.751v.9c0,4.583-2.067,8.267-9.256,8.267m-2.336-19.05c0-.449-.359-.9-1.168-.9h-5.032v2.336h4.852c.719,0,1.348-.539,1.348-.988Zm.539,8.357c0-.539-.359-.9-1.078-.9h-5.661v2.7h5.392c.988,0,1.438-.359,1.438-.988Z" transform="translate(-10.252 -3.367)"/><path class="i" d="M157.029,62.617h-12.94c-4.583,0-7.189-2.516-7.189-5.931V55.249c0-3.325,2.516-5.481,6.739-5.481h10.334c0-.719-.359-1.078-1.258-1.078H137.978V41.5H156.04c6.021,0,7.818,2.965,7.818,8.357v7.279c0,3.325-2.336,5.571-6.829,5.571m-3.235-7.1c0-.27-.18-.539-.809-.539h-5.212c-.629,0-.809.18-.809.539v.27c0,.359.18.629.809.629h5.3c.629,0,.809-.18.809-.629Z" transform="translate(-13.882 -4.208)"/><rect class="j" width="9.885" height="28.557" transform="translate(153.75 29.923)"/><rect class="k" width="9.885" height="28.557" transform="translate(168.217 29.923)"/><path class="i" d="M282.254,62.617V52.643c0-1.348-.629-1.8-1.887-1.8h-2.246c-1.258,0-2.067.629-2.067,1.8v9.974H265.9V49.138c0-4.673,2.606-7.638,7.368-7.638h11.412c4.763,0,7.818,2.965,7.818,7.638V62.617Z" transform="translate(-26.963 -4.208)"/><path class="l" d="M117.1,95.33l-16.8-.18.359-25.251,16,.18c5.392.09,8.357,1.438,8.267,7.009V77.9a5.841,5.841,0,0,1-2.157,4.223,5.931,5.931,0,0,1,2.7,5.122v.809c-.09,4.044-1.977,7.279-8.267,7.189m-1.887-16.894c0-.449-.359-.809-1.078-.809h-4.493V79.6h4.313a1.294,1.294,0,0,0,1.258-.9Zm.359,7.458c0-.539-.27-.809-.988-.809h-5.032v2.336h4.763c.9,0,1.258-.27,1.258-.809Z" transform="translate(-10.171 -7.088)"/><path class="l" d="M148.254,96.581H138.19c-4.044-.09-6.38-1.8-6.29-6.65l.18-12.131h8.9v9.166c0,.719.359,1.258.988,1.258h3.055c.629,0,.988-.27,1.078-1.258V77.8h8.9l-.18,12.131c-.09,4.223-2.426,6.56-6.56,6.47" transform="translate(-13.375 -7.889)"/><path class="l" d="M175.365,96.87l-15.905-.18V90.22l12.58.18c.719,0,.809-.18.809-.449h0c0-.359-.18-.539-.809-.539h-6.47c-4.493-.09-6.47-1.8-6.47-5.481v-.539c.09-4.223,2.7-5.481,6.56-5.392l16.085.18v5.571l-12.311-.18c-.629,0-.9.18-.9.539h0c0,.27.27.539.9.539h5.931c4.583.09,7.009,1.438,6.919,5.392v.539c-.09,3.774-1.707,6.29-7.1,6.29" transform="translate(-16.133 -7.909)"/><path class="l" d="M199.28,86.172V87.7c0,.809.09.988,1.078.988H208.9v8.087l-11.412-.18c-5.122-.09-6.919-2.516-6.919-6.2V85.9H186.7v-8h3.864V74.4h8.716v3.5h10.064v8.177Z" transform="translate(-18.932 -7.544)"/><path class="l" d="M231.732,90.192h-9.525c.09.629.359,1.078,1.348,1.078l13.389.18v6.29l-16-.18c-4.763-.09-6.739-2.246-6.65-7.279V84.261c0-2.876,1.887-5.751,6.29-5.661l10.963.18c4.044.09,6.021,2.246,6.021,5.661v.988c0,3.055-1.348,4.942-5.751,4.852m-2.516-5.392a.735.735,0,0,0-.809-.719h-4.763a1.168,1.168,0,0,0-1.348,1.168v.27h6.11c.449,0,.809-.18.809-.629Z" transform="translate(-21.73 -7.97)"/><path class="l" d="M254.472,87.377a2.516,2.516,0,0,0-2.875,2.516v8h-8.9V89.624c.09-7.458,4.583-10.514,9.885-10.424h9.795v8.267Z" transform="translate(-24.611 -8.031)"/><path class="l" d="M282.665,98.2l-15.905-.18v-6.38l12.58.18c.719,0,.809-.18.809-.449h0c0-.359-.18-.539-.809-.539h-6.47c-4.493-.09-6.47-1.8-6.47-5.481v-.359c.09-4.223,2.7-5.481,6.56-5.392l16.085.18v5.571l-12.221-.359c-.629,0-.9.18-.9.539h0c0,.27.27.539.9.539h5.931c4.583.09,7.009,1.438,6.919,5.392v.449c-.09,3.774-1.707,6.29-7.1,6.29" transform="translate(-27.014 -8.071)"/><path class="l" d="M107.177,109.057v.27a2.7,2.7,0,0,0-.09.539v.809c-.809,5.841-2.246,9.885-4.763,12.94A13.479,13.479,0,0,0,99,121.367c2.606-2.606,4.4-7.908,4.493-13.03Zm5.571-.629h0a25.161,25.161,0,0,0,.719,4.134,20.668,20.668,0,0,0,4.223,8.627,13.3,13.3,0,0,0-3.055,2.426,27.875,27.875,0,0,1-4.942-13.12v-1.528Zm1.707-.988a15.456,15.456,0,0,1,1.258,3.055l-1.528.449a16.445,16.445,0,0,0-1.168-3.145Zm1.977,2.876a16.175,16.175,0,0,0-1.168-2.965l1.438-.449a11.861,11.861,0,0,1,1.168,2.876Z" transform="translate(-10.039 -10.84)"/><path class="l" d="M127.5,107.859a36.072,36.072,0,0,0-.18,4.4,20.844,20.844,0,0,1-1.438,8.177,12.76,12.76,0,0,1-2.7,3.864,10.424,10.424,0,0,0-2.786-2.7,8.537,8.537,0,0,0,2.246-3.055c.9-1.887,1.168-4.223,1.168-9.256a14.018,14.018,0,0,0-.09-1.8Zm5.392-.27a13.657,13.657,0,0,0-.18,2.246V119.9a7.368,7.368,0,0,0,2.336-2.067,9.705,9.705,0,0,0,1.528-3.235,12.76,12.76,0,0,0,2.516,2.516,11.772,11.772,0,0,1-3.325,4.852,11.5,11.5,0,0,1-4.044,2.157l-.9.359-1.617-1.707a4.223,4.223,0,0,0,.18-1.617V109.117a11.409,11.409,0,0,0-.09-1.528Z" transform="translate(-12.209 -10.901)"/><path class="l" d="M142.6,114.6a27.227,27.227,0,0,0,3.954.18h9.166l3.954-.18v3.684H142.6Z" transform="translate(-14.46 -11.621)"/><path class="l" d="M166.857,108.3a27.946,27.946,0,0,1,5.3,3.774l-2.246,2.965A20.488,20.488,0,0,0,164.7,111Zm-1.977,11.861a19.23,19.23,0,0,0,5.751-1.348,11.5,11.5,0,0,0,5.571-4.763,17.612,17.612,0,0,0,1.887-3.774,12.4,12.4,0,0,0,2.786,2.606c-1.707,3.774-3.594,6.021-6.29,7.728a20.758,20.758,0,0,1-7.458,2.875l-1.348.359Z" transform="translate(-16.701 -10.982)"/><path class="l" d="M192.5,109.057v.27a2.7,2.7,0,0,0-.09.539v.809c-.809,5.841-2.246,9.885-4.763,12.94a13.48,13.48,0,0,0-3.145-2.246c2.606-2.606,4.4-7.908,4.493-13.03Zm5.571-.629h0a25.163,25.163,0,0,0,.719,4.134,20.668,20.668,0,0,0,4.223,8.627,13.3,13.3,0,0,0-3.055,2.426,27.876,27.876,0,0,1-4.942-13.12v-1.528Zm1.707-.988a15.455,15.455,0,0,1,1.258,3.055l-1.528.449a16.444,16.444,0,0,0-1.168-3.145Zm1.977,2.876a16.175,16.175,0,0,0-1.168-2.965l1.438-.449a11.861,11.861,0,0,1,1.168,2.876Z" transform="translate(-18.709 -10.84)"/><path class="l" d="M221.147,124.285a30.821,30.821,0,0,0-5.481-5.481,20.757,20.757,0,0,1-7.009,5.212,10.064,10.064,0,0,0-2.157-3.055,18.062,18.062,0,0,0,6.2-3.864,15.456,15.456,0,0,0,3.864-5.661h-4.942l-3.055.18V108.2l1.977.18h7.638a3.5,3.5,0,0,0,1.528-.18l1.707,1.707a3.055,3.055,0,0,0-.719,1.168,22.553,22.553,0,0,1-2.786,5.212,45.109,45.109,0,0,1,6.11,5.212Z" transform="translate(-20.94 -10.972)"/><path class="l" d="M236.915,107.329l-.809,1.707h5.122a2.157,2.157,0,0,0,1.168-.27l1.707,1.707a1.707,1.707,0,0,0-.449.809,24.621,24.621,0,0,1-3.594,7.368,18.332,18.332,0,0,1-4.673,4.313,22.107,22.107,0,0,1-3.325,1.8,10.693,10.693,0,0,0-2.246-2.875,15.726,15.726,0,0,0,6.47-3.954,20.668,20.668,0,0,0-3.594-2.336l1.977-2.426a24.8,24.8,0,0,1,3.5,2.157,13.57,13.57,0,0,0,1.617-3.5h-5.3a20.128,20.128,0,0,1-4.4,5.212,9.346,9.346,0,0,0-2.786-2.157,16.534,16.534,0,0,0,4.763-5.481,12.4,12.4,0,0,0,1.078-2.7Z" transform="translate(-23.049 -10.82)"/><path class="l" d="M249.2,114.6a27.138,27.138,0,0,0,3.954.18h9.166l3.954-.18v3.684H249.2Z" transform="translate(-25.27 -11.621)"/><path class="l" d="M282.67,108.426l-.809-1.168,1.887-.629a14.2,14.2,0,0,1,1.707,3.055l-1.258.449.18.359-.449.9a21.3,21.3,0,0,1-2.606,4.763,47.357,47.357,0,0,1,6.11,5.212l-2.7,2.876a31.54,31.54,0,0,0-5.481-5.481,21.3,21.3,0,0,1-7.1,5.3A10.154,10.154,0,0,0,270,121.007a17.343,17.343,0,0,0,10.064-9.525h-4.942l-3.055.18v-3.415H282.76ZM286.534,106a13.391,13.391,0,0,1,1.707,2.965l-1.8.629a13.747,13.747,0,0,0-1.707-2.965Z" transform="translate(-27.379 -10.749)"/><path class="m" d="M234.333,25.394c0,9.345-14.917,16.894-14.917,16.894S204.5,34.739,204.5,25.394,211.15,8.5,219.417,8.5s14.917,7.548,14.917,16.894" transform="translate(-20.737 -0.862)"/><path class="h" d="M258.833,50.994c0,9.345-14.917,16.894-14.917,16.894S229,60.339,229,50.994,235.65,34.1,243.917,34.1s14.917,7.548,14.917,16.894" transform="translate(-23.221 -3.458)"/><path class="n" d="M16.5,74.649a44.3,44.3,0,0,0,6.2,8c-.09-2.606,1.348-5.481,5.931-8.537,7.728-5.122,25.43-2.246,37.112.809l.629-1.258C30.878,60.9,19.2,69.887,16.5,74.649" transform="translate(-1.673 -6.805)"/><path class="o" d="M39.6,95.945a83.207,83.207,0,0,0,8.986,4.852A89.052,89.052,0,0,0,62.423,86.06c-20.308-2.067-23,5.481-22.824,9.974" transform="translate(-4.015 -8.691)"/><path class="p" d="M67.413,66.615C25.359,46.127,14.4,50.979,11.7,56.371a53.465,53.465,0,0,0,.449,5.931,6.067,6.067,0,0,1,.18,1.258,11.771,11.771,0,0,0,1.707-.809c11.232-8.177,41.156.9,53.377,3.954" transform="translate(-1.186 -5.24)"/><path class="q" d="M69.293,56.686a25.97,25.97,0,0,0-.09-5.571C66.327,29.638,51.321,13.913,35.6,15.979c-10.6,1.438-18.871,10.6-22.2,23.094h.18c19.23-7.638,42.773,3.5,55.8,17.612" transform="translate(-1.359 -1.602)"/><path class="r" d="M30.2,89.368l1.887,1.438c.18-2.246,2.336-4.583,6.919-6.919S55.815,81.37,63.453,82l1.887-3.145c-30.1-4.763-41.425,4.763-35.225,10.424" transform="translate(-2.888 -7.865)"/><path class="s" d="M32.331,121.764c-5.122,2.7-5.392,6.021-1.438,7.728s11.143,1.617,17.073-.359,9.885-6.47,5.122-8.9-14.737-1.707-20.758,1.438m4.313,2.246c4.134-1.887,10.334-2.246,13.479-.719s1.438,4.134-3.055,5.661-9.166,1.438-11.772.27-2.246-3.5,1.438-5.122" transform="translate(-2.857 -12.046)"/><path class="s" d="M48.554,125c-2.246-1.078-6.47-1.078-9.166.09l-.988-.449c3.5-1.617,8.806-1.887,11.5-.629s1.258,3.5-2.516,4.852h0c2.786-.988,3.415-2.786,1.168-3.864" transform="translate(-3.894 -12.495)"/><path class="s" d="M37.523,128.584c2.067.988,5.661.988,8.357.09l.9.449c-3.5,1.258-7.908,1.258-10.244.27s-1.887-3.055,1.348-4.493h0c-2.336,1.078-2.516,2.7-.359,3.684" transform="translate(-3.556 -12.665)"/><path class="s" d="M38,124.97l8.9,4.223.719-.27-8.9-4.223Z" transform="translate(-3.853 -12.645)"/><path class="s" d="M42.324,126.673c-.719.27-.9.719-.359.988a3.325,3.325,0,0,0,2.246-.09c.719-.27.9-.719.449-.988a3.325,3.325,0,0,0-2.246.09" transform="translate(-4.224 -12.82)"/><path class="s" d="M63.365,114.39c-4.763,2.606-5.032,5.931-1.258,7.728s10.424,1.707,15.905-.18,9.166-6.38,4.673-8.806-13.749-1.8-19.32,1.258m3.954,2.336c3.774-1.887,9.615-2.157,12.49-.629s1.348,4.134-2.876,5.571-8.537,1.348-11.053.18-2.067-3.5,1.348-5.122" transform="translate(-6.034 -11.321)"/><path class="s" d="M78.535,117.794c-2.157-1.168-6.021-1.078-8.537,0l-.9-.449c3.235-1.528,8.177-1.887,10.693-.539s1.168,3.5-2.336,4.852h0c2.606-.988,3.145-2.7,1.078-3.864" transform="translate(-7.007 -11.76)"/><path class="s" d="M68.253,121.284a11.143,11.143,0,0,0,7.818.18l.9.449c-3.235,1.168-7.368,1.258-9.525.18s-1.8-3.055,1.168-4.493h0c-2.246,1.078-2.336,2.7-.359,3.684" transform="translate(-6.699 -11.925)"/><path class="s" d="M68.6,117.659l8.357,4.223.719-.27L69.319,117.3Z" transform="translate(-6.956 -11.895)"/><path class="s" d="M72.631,119.371c-.629.27-.809.719-.359.988a2.876,2.876,0,0,0,2.067-.09c.719-.27.9-.719.359-.988a2.875,2.875,0,0,0-2.157.09" transform="translate(-7.303 -12.078)"/><path class="s" d="M20.385,104.343c-7.1,2.246-8.177,6.56-3.5,9.7s13.928,4.673,21.926,3.5c9.435-1.438,14.018-6.11,8.447-10.334s-18.511-5.571-26.868-2.876m4.942,3.864c5.661-1.528,13.749-.539,17.343,2.157s.9,5.661-5.122,6.56-12.041-.27-15.186-2.426-2.067-5.032,2.965-6.38" transform="translate(-1.425 -10.439)"/><path class="s" d="M40.75,112.019c-2.7-1.977-8-2.876-11.682-1.977l-1.168-.809c4.852-1.258,11.682-.449,14.827,1.887s.9,4.852-4.313,5.661h0c3.774-.629,5.032-2.786,2.336-4.673" transform="translate(-2.829 -11.017)"/><path class="s" d="M25.779,114.073c2.426,1.707,7.1,2.606,10.693,2.067l1.078.809c-4.673.809-10.424-.18-13.12-2.067s-1.707-4.313,2.7-5.481h0c-3.325.9-3.774,2.965-1.348,4.673" transform="translate(-2.326 -11.094)"/><path class="s" d="M27.2,109.47l10.424,7.458,1.078-.18L28.188,109.2Z" transform="translate(-2.758 -11.073)"/><path class="s" d="M32.288,112.7c-.988.18-1.258.719-.719,1.168a4.223,4.223,0,0,0,2.876.449c.988-.18,1.348-.719.719-1.168a4.223,4.223,0,0,0-2.876-.359" transform="translate(-3.174 -11.426)"/><path class="s" d="M55.919,102.027c-4.493,5.3.9,8.9,10.334,8.267,8.087-.539,16.894-4.044,20.758-8.087s1.977-8-5.392-8.716-21.027,2.965-25.7,8.537m25.88,1.887c-2.606,2.786-8.806,5.212-14.378,5.571s-9.345-1.977-6.38-5.3,10.693-6.021,16.534-5.751S84.4,101.218,81.8,104" transform="translate(-5.507 -9.471)"/><path class="s" d="M65.353,105.08c2.246-2.516,7.279-4.493,11.053-4.4l.988-1.078c-5.032-.18-11.5,2.067-14.108,4.942s.09,4.852,5.392,4.673h0c-3.864.18-5.481-1.617-3.235-4.134" transform="translate(-6.316 -10.099)"/><path class="s" d="M80.663,103.913c-2.067,2.157-6.38,4.044-10.064,4.223l-.9.988c4.763-.27,10.154-2.336,12.4-4.763s.809-4.583-3.684-4.763h0c3.415.18,4.313,2.067,2.246,4.313" transform="translate(-7.068 -10.1)"/><path class="s" d="M78.695,99.6l-8.716,9.525-1.078.09L77.706,99.6Z" transform="translate(-6.987 -10.1)"/><path class="s" d="M74.966,103.9c.988,0,1.348.449.9.988a4.223,4.223,0,0,1-2.7.988c-.988,0-1.438-.449-.988-.988a4.223,4.223,0,0,1,2.786-.988" transform="translate(-7.302 -10.536)"/><path class="j" d="M13.4,72.149a44.3,44.3,0,0,0,6.2,8c-.09-2.606,1.348-5.481,5.931-8.537,7.728-5.122,25.43-2.246,37.112.809l.629-1.258C27.778,58.4,16.1,67.387,13.4,72.149" transform="translate(-1.359 -6.552)"/><path class="m" d="M36.5,93.435a83.122,83.122,0,0,0,8.986,4.852A89.051,89.051,0,0,0,59.323,83.46c-20.308-2.067-23,5.481-22.824,9.974" transform="translate(-3.7 -8.428)"/><path class="i" d="M64.213,64.11C22.249,43.622,11.2,48.385,8.5,53.866a53.466,53.466,0,0,0,.449,5.841,6.068,6.068,0,0,1,.18,1.258,11.862,11.862,0,0,0,1.707-.809c11.232-8.177,41.156.9,53.377,3.954" transform="translate(-0.862 -4.983)"/><path class="h" d="M66.193,54.086a25.97,25.97,0,0,0-.09-5.571C63.227,27.038,48.221,11.313,32.5,13.379,21.8,14.817,13.625,23.983,10.3,36.473h.18c19.14-7.638,42.683,3.5,55.713,17.612" transform="translate(-1.044 -1.338)"/><path class="k" d="M27.111,86.869,29,88.307c.18-2.246,2.336-4.583,6.919-6.919s16.8-2.516,24.442-1.887l1.887-3.145c-30.013-4.763-41.425,4.852-35.135,10.514" transform="translate(-2.58 -7.613)"/><path class="l" d="M29.131,119.164c-5.122,2.7-5.392,6.021-1.438,7.728s11.143,1.617,17.073-.359,9.885-6.47,5.122-8.9-14.737-1.707-20.758,1.438m4.313,2.246c4.134-1.887,10.334-2.246,13.479-.719s1.438,4.134-3.055,5.661-9.166,1.438-11.772.27-2.246-3.5,1.438-5.122" transform="translate(-2.533 -11.782)"/><path class="l" d="M45.454,122.4c-2.246-1.078-6.47-1.078-9.166.09l-.988-.449c3.5-1.617,8.806-1.887,11.5-.629s1.258,3.5-2.516,4.852h0c2.786-.988,3.415-2.786,1.168-3.864" transform="translate(-3.58 -12.231)"/><path class="l" d="M34.423,126.084c2.067.988,5.661.988,8.357.09l.9.449c-3.5,1.258-7.908,1.258-10.244.27s-1.887-3.055,1.348-4.493h0c-2.426,1.078-2.516,2.7-.359,3.684" transform="translate(-3.241 -12.412)"/><path class="l" d="M34.9,122.459l8.806,4.134.809-.27-8.9-4.223Z" transform="translate(-3.539 -12.381)"/><path class="l" d="M39.224,124.173c-.719.27-.9.719-.359.988a3.325,3.325,0,0,0,2.246-.09c.719-.27.9-.719.449-.988a3.325,3.325,0,0,0-2.246.09" transform="translate(-3.909 -12.567)"/><path class="l" d="M60.165,111.89c-4.763,2.606-5.032,5.931-1.258,7.728s10.424,1.707,15.905-.18,9.166-6.38,4.673-8.806-13.749-1.8-19.32,1.258m3.954,2.336c3.774-1.887,9.615-2.157,12.49-.629s1.348,4.134-2.876,5.571-8.537,1.348-11.053.18-2.067-3.5,1.348-5.122" transform="translate(-5.71 -11.068)"/><path class="l" d="M75.435,115.194c-2.157-1.168-6.021-1.078-8.537,0l-.9-.449c3.235-1.528,8.177-1.887,10.693-.539s1.168,3.5-2.336,4.852h0c2.606-.988,3.145-2.7,1.078-3.864" transform="translate(-6.693 -11.496)"/><path class="l" d="M65.153,118.684a11.143,11.143,0,0,0,7.818.18l.9.449c-3.235,1.168-7.368,1.258-9.525.18s-1.8-3.055,1.168-4.493h0c-2.246,1.078-2.336,2.7-.359,3.684" transform="translate(-6.385 -11.661)"/><path class="l" d="M65.5,115.07l8.357,4.313.719-.27L66.219,114.8Z" transform="translate(-6.642 -11.641)"/><path class="l" d="M69.531,116.871c-.629.27-.809.719-.359.988a2.876,2.876,0,0,0,2.067-.09c.719-.27.9-.719.359-.988a2.875,2.875,0,0,0-2.157.09" transform="translate(-6.989 -11.825)"/><path class="l" d="M17.285,101.747c-7.1,2.246-8.177,6.56-3.5,9.7s13.928,4.673,21.926,3.5c9.435-1.438,14.018-6.11,8.447-10.334s-18.511-5.481-26.868-2.876m4.942,3.864c5.661-1.528,13.749-.539,17.343,2.157s.9,5.661-5.122,6.56-12.041-.27-15.186-2.426-2.067-5.032,2.965-6.38" transform="translate(-1.11 -10.18)"/><path class="l" d="M37.55,109.519c-2.7-1.977-8-2.876-11.682-1.977l-1.168-.809c4.852-1.258,11.682-.449,14.827,1.887s.9,4.852-4.313,5.661h0c3.774-.629,5.032-2.786,2.336-4.673" transform="translate(-2.505 -10.763)"/><path class="l" d="M22.679,111.573c2.426,1.707,7.1,2.606,10.693,2.067l1.078.809c-4.673.809-10.424-.18-13.12-2.067s-1.707-4.313,2.7-5.481h0c-3.325.9-3.774,2.965-1.348,4.673" transform="translate(-2.012 -10.84)"/><path class="l" d="M24,106.87l10.514,7.458,1.078-.18-10.6-7.548Z" transform="translate(-2.434 -10.81)"/><path class="l" d="M29.188,110.2c-.988.18-1.258.719-.719,1.168a4.223,4.223,0,0,0,2.876.449c.988-.18,1.348-.719.719-1.168a4.223,4.223,0,0,0-2.876-.359" transform="translate(-2.859 -11.173)"/><path class="l" d="M52.819,99.427c-4.493,5.3.9,8.9,10.334,8.267,8.087-.539,16.983-4.044,20.758-8.087s1.977-8-5.392-8.716-21.027,2.965-25.7,8.537m25.88,1.887c-2.606,2.786-8.806,5.212-14.378,5.571s-9.345-1.977-6.38-5.3,10.693-6.021,16.444-5.751,6.829,2.786,4.223,5.571" transform="translate(-5.193 -9.207)"/><path class="l" d="M62.243,102.48c2.246-2.516,7.279-4.493,11.053-4.4l.9-1.078c-5.032-.18-11.5,2.067-14.108,4.942s.09,4.852,5.392,4.673h0c-3.864.18-5.481-1.617-3.235-4.134" transform="translate(-5.991 -9.835)"/><path class="l" d="M77.563,101.413c-2.067,2.157-6.38,4.044-10.064,4.223l-.9.988c4.763-.27,10.154-2.336,12.4-4.763s.809-4.583-3.684-4.763h0c3.415.18,4.313,2.067,2.246,4.313" transform="translate(-6.753 -9.846)"/><path class="l" d="M75.595,97.09l-8.716,9.525H65.8L74.516,97Z" transform="translate(-6.672 -9.836)"/><path class="l" d="M71.866,101.4c.988,0,1.348.449.9.988a4.223,4.223,0,0,1-2.7.988c-.988,0-1.438-.449-.988-.988a4.223,4.223,0,0,1,2.786-.988" transform="translate(-6.987 -10.282)"/></g></g></svg>