<svg xmlns="http://www.w3.org/2000/svg" width="100" height="62.148" viewBox="0 0 100 62.148"><defs><style>.a{fill:#231815;}</style></defs><path class="a" d="M2104.273,5214.086c5.522,6.617,12.922,4.838,24.573-10.714-8.984,24-.192,28.394,30.1,10.619-25.166,26.752-21.338,31.853,1.375,34.176-16.419,5.987-22.131,9.551-17.977,17.354l-4.452-1.8c-1.495-4.823,1.6-10.207,16.746-14.4l-.243-.058.127-.061c-7.422-1.755-12.728-3.162-15.109-5.646-3.672-3.958-.068-10.613,13.969-25.533l-.2.117.155-.165q-1.285.754-2.5,1.45c-.335.19-.667.374-.991.56q-2.89,1.616-5.455,2.892c-.207.1-.417.206-.621.309-1.427.7-2.78,1.323-4.061,1.874-.237.1-.474.2-.712.3q-1.058.437-2.053.806-1.453.535-2.754.9c-.233.071-.46.135-.686.192l.01.031a20.184,20.184,0,0,1-3.854.659c-7.822.454-8.845-6.272-3.837-19.648-10.018,13.373-16.6,15.624-21.557,10.832m-43.939-.748" transform="translate(-2060.318 -5203.372)"/></svg>