<svg xmlns="http://www.w3.org/2000/svg" width="180" height="42" viewBox="0 0 180 42"><defs><style>.a{fill:#141c7b;stroke:#141c7b;stroke-width:3px;}.b,.c{fill:#fff;}.b{font-size:18px;font-family:SourceHanSansJP-Bold, Source Han Sans JP;font-weight:700;}.d{stroke:none;}.e{fill:none;}</style></defs><g transform="translate(-204 -4915)"><g class="a" transform="translate(204 4915)"><rect class="d" width="180" height="42" rx="21"/><rect class="e" x="1.5" y="1.5" width="177" height="39" rx="19.5"/></g><text class="b" transform="translate(300 4943)"><tspan x="-30.42" y="0">Check!</tspan></text><path class="c" d="M25.563,13.139A12.5,12.5,0,1,0,11.109,25.563V16.774H7.934V13.139h3.175V10.368c0-3.152,1.865-4.892,4.721-4.892a19.124,19.124,0,0,1,2.8.245V8.814H17.052a1.812,1.812,0,0,0-2.037,1.964v2.361h3.467l-.554,3.635H15.016v8.789A12.557,12.557,0,0,0,25.563,13.139Z" transform="translate(219.438 4922.438)"/><path class="c" d="M17.946,13.927,11.6,8.079a1.041,1.041,0,0,1,0-1.561,1.282,1.282,0,0,1,1.7,0l7.191,6.627a1.042,1.042,0,0,1,.035,1.524L13.3,21.342a1.279,1.279,0,0,1-1.7,0,1.041,1.041,0,0,1,0-1.561Z" transform="translate(342.345 4921.804)"/></g></svg>