<svg xmlns="http://www.w3.org/2000/svg" width="86" height="72.786" viewBox="0 0 86 72.786"><defs><style>.a{fill:#333;}</style></defs><path class="a" d="M71.454,287.459a8.384,8.384,0,0,0-6.741-6.376l-.034-.007a8.5,8.5,0,0,0-1.371-.116c-.02,0-.04-.005-.061-.005h-.078c-.147,0-.289-.022-.437-.013h-.062l-3.807.389-1.5.143a6.766,6.766,0,0,0,.231-3.094,6.95,6.95,0,0,0-2.217-4.078l-7.367-6.578a12.274,12.274,0,0,0-10.336-2.944l-14.129,2.464a7.368,7.368,0,0,0-2.254.763,3.9,3.9,0,0,0-2.064-1.125l-.022-.005a3.9,3.9,0,0,0-.781-.08l-.014,0c-.012,0-.024,0-.037,0a3.852,3.852,0,0,0-.556.014L10.34,267.97a5.552,5.552,0,0,0-2.4-.982l-.025,0a5.524,5.524,0,0,0-1.749-.023L0,267.909v23.91l0,3.707H0v.028l10.336-1.6a5.594,5.594,0,0,0,3.683-2.23l7.478-1.17a3.878,3.878,0,0,0,2.5-1.466,7.345,7.345,0,0,0,2.439.086l4.311-.591,7.737,8.155a9.327,9.327,0,0,0,7.539,2.858l.049-.012,17.912-1.824a8.474,8.474,0,0,0,5.889-3.178,8.57,8.57,0,0,0,1.7-6.5C71.54,287.866,71.5,287.656,71.454,287.459Zm-7.983,4.558-17.936,1.836a3.551,3.551,0,0,1-2.857-1.1l-8.39-8.821a3.922,3.922,0,0,0-3.375-1.2l-5.247.715a1.76,1.76,0,0,1-1.294-.345l-1.306-8.426a1.786,1.786,0,0,1,1.466-1.774l14.143-2.452a6.536,6.536,0,0,1,5.494,1.577l7.366,6.566a1.11,1.11,0,0,1,.357.665,1.071,1.071,0,0,1-.1.641,2.767,2.767,0,0,1-2.944,1.544c-.053-.008-.105-.014-.157-.026a2.734,2.734,0,0,1-.519-.165c-.026-.011-.049-.027-.074-.039a2.821,2.821,0,0,1-.495-.292L43.872,278.1a1.4,1.4,0,0,0-2.143.566l-.222.493a1.327,1.327,0,0,0-.1.789,1.426,1.426,0,0,0,.345.727l5.482,5.975a3.488,3.488,0,0,0,2.809,1.133l13.033-1.071a2.653,2.653,0,0,1,2.76,2.045c.012.074.024.135.037.2A2.667,2.667,0,0,1,63.471,292.017Zm-44.619-6.887-4.078.628-1.909-12.343,4.065-.629.382,2.439,1.528,9.831Z" transform="translate(0 -226.84)"/><path class="a" d="M276.528,111.868l-2.11-.292h-.006l-.027,0-3.017,21.408a1.083,1.083,0,0,1-1.213.9l-39.721-5.628-.092-.012h0l-.026,0-.351,2.479a1.062,1.062,0,0,0,.9,1.2l41.982,5.942a1.084,1.084,0,0,0,1.213-.9l3.368-23.873A1.059,1.059,0,0,0,276.528,111.868Z" transform="translate(-191.444 -99.455)"/><path class="a" d="M320.757,98.365l-.269.256-.135.135-.593.593-.17.158-.02.015-.538-.954-.094-.162-.176-.323-1.482-2.627-1.522-.216-.592-.087-.314-.061.009.016-.019,0h-.013l1.711,3.031.041.081h.013l1.078,1.913.027.067.005.011,0,.015-2.919-.412-.012,0h0l-.026,0-.171,1.209v0h0l0,.027,3.745.525-.2,1.374-3.682-.516-.038-.006h0l-.026,0-.17,1.2,0,.014h0l0,.026,3.745.525-.444,3.18,1.9.269v-.027l.176-1.239.269-1.913,1.173.161,2.452.35.121.014.175-1.213v-.014l-1.065-.148-2.452-.364-.189-.324.162-1.078,1.6.229,2.142.3.175-1.212v-.014l-1.859-.27-.244-.035-.795-.205,1.564-1.524.068-.068,1.536-1.509.747-.725.192-.178h-.008l.012-.012V96.6l-2.452-.35Z" transform="translate(-261.44 -85.704)"/><path class="a" d="M204.222,65.334l1.051.148,3.193.458,8.11,1.145,27.889,3.947,1.738.243a1.062,1.062,0,0,0,1.2-.9l.2-1.469,1.334-9.431,1.185-8.285.5-3.517.162-1.186a1.062,1.062,0,0,0-.9-1.2L207.9,39.345a1.062,1.062,0,0,0-1.2.9l-3.382,23.888A1.063,1.063,0,0,0,204.222,65.334ZM245.3,54.811l-1.051,7.478a4.907,4.907,0,0,0-2.493.593,4.734,4.734,0,0,0-.9.633,4.923,4.923,0,0,0-1.549,2.479L232.07,64.97l-1.9-.27-16.881-2.385-.984-.135a5.035,5.035,0,0,0-2.654-4.541c-.117-.063-.255-.093-.381-.146-.147-.063-.3-.124-.468-.18-.07-.021-.132-.059-.2-.078l1.254-8.906a4.488,4.488,0,0,0,1.131-.108,4.958,4.958,0,0,0,3.14-2.129,4.778,4.778,0,0,0,.673-1.482l27,3.826a4.881,4.881,0,0,0,.229,1.6,4.987,4.987,0,0,0,3.476,3.342Z" transform="translate(-169.284 -39.335)"/><path class="a" d="M253.634,119.2l-.132-.019h0l-.026,0-.094.741,5.106.727,3.611.512.108-.727v-.013l-2.829-.4Z" transform="translate(-210.833 -105.764)"/><path class="a" d="M382.854,138.207v0h0l0,.027,1.24.175,2.452.351,5.025.714.108-.727v-.014l-8.718-1.24Z" transform="translate(-318.594 -121.01)"/></svg>