<svg xmlns="http://www.w3.org/2000/svg" width="177.709" height="45.427" viewBox="0 0 177.709 45.427"><defs><style>.a{fill:#fff;}</style></defs><g transform="translate(-6280 156.072)"><g transform="translate(6280 -156.072)"><path class="a" d="M389.6,121.368a17.667,17.667,0,0,1,8.59-4.774c4.209-.345,5.028,2.359,4.338,5.649a16.489,16.489,0,0,0-.72,4.394c.586-.556,1.363-.962,1.539-1.872,2.139-3.1,4.528-5.938,8.168-7.383,1.979.082,4-.142,5.145,2.165.574,1.156.254,2.221.3,3.333a4.452,4.452,0,0,1-1.307,2.139,4.67,4.67,0,0,0-1.2.858c-2.083,1.609-2.053,1.587-4.062-.065-.888-.733-1.8-1.729-3.131-.742l.065.017c-3.972,4.14-8.8,15.218-10.656,20.415-1.031,3.6-6.037,2.527-6.391,2.536-3.148.078-3.157.078-2.238-2.937.371-1.22,5.274-17.776,5.917-20.6.125-.556.328-1.126-.242-1.561-.6-.453-1.065.06-1.57.242a21.428,21.428,0,0,0-2.005,1.2c-.487.241-1.009.733-1.5.091a1.165,1.165,0,0,1,0-1.716A3.376,3.376,0,0,0,389.6,121.368Z" transform="translate(-387.502 -112.237)"/><path class="a" d="M418.379,134.649l1.121-3.364a32.18,32.18,0,0,0,1.906-6.3c.159-.617.414-1.505-.28-1.979-.63-.427-1.169.285-1.759.453-1.173.341-1.85,1.889-3.368,1.4l.039-.013c-.561-1.169-.043-1.966.828-2.747,1.4-1.264,2.984-2.3,4.377-3.571a11.07,11.07,0,0,1,4.287-1.772c3.545.207,4.429.867,4.545,3.3a13.834,13.834,0,0,1-.724,5.02,3.172,3.172,0,0,0-.164,1.815c2.109-1.863,3.523-4.235,5.438-6.154a9.736,9.736,0,0,0,1.979-1.583c2.234-1.919,4.278-2.048,7.158-.509l-.06.125.047-.129c1.1,1.958.75,3.885-.116,5.8A3.068,3.068,0,0,1,442.39,126c-1.738,1.389-3.32,1.652-4.916-.323a2.053,2.053,0,0,0-2.85-.349l.069,0a17.98,17.98,0,0,0-7.137,9.888l-2.355,6.766a9.308,9.308,0,0,0-1.263,3.549c-.379,1.79-1.3,2.311-3.006,2.251a15.377,15.377,0,0,0-4.024.5c-2.053.474-2.419.172-1.777-1.919,1.026-3.346,2.087-6.68,3.088-10.035A3.31,3.31,0,0,0,418.379,134.649Z" transform="translate(-296.936 -111.598)"/><g transform="translate(63.996 0)"><path class="a" d="M412.635,122.554l.028.013h0Z" transform="translate(-368.25 -92.395)"/><path class="a" d="M443.532,145.318l.159-.034.035-.16c1.031-1,1.85-2.242,3.247-2.812l.168-.039.039-.173c.246-.63.85-.923,1.277-1.384,3.765-4.019,6.779-8.37,6.18-14.283a20.593,20.593,0,0,0-3.174-6.762l-.621-.63c-5.347-4.187-11.057-4.455-17.055-1.57-1.406.785-2.255,2.186-3.493,3.135-.781.6-.888,2.186-1.975,1.975-.88-.168-1.182-1.5-1.794-2.277l.013.009a13.44,13.44,0,0,0-5.317-3.739c-2.984-1.268-6.072-1-9.172-.729-.319.151-.634.3-.962.427a12.85,12.85,0,0,0-8.672,10.867c-.362,2.631.75,4.976,1.307,7.435a13.467,13.467,0,0,0,3.627,5.166,21.1,21.1,0,0,1,4.049,3.816l1.544,1.32c1.2.461,1.906,1.514,2.786,2.35l.694.681c1.664.875,2.743,2.411,4.058,3.674a6.7,6.7,0,0,0,1.915,1.919,39.49,39.49,0,0,1,4.511,4.748c1.6,1.828,1.772,1.816,3.234-.194A45.77,45.77,0,0,1,434.7,153.3c.246-.259.569-.457.85.009l.612.63c2.376,2.221,4.506,4.7,7.1,6.693a2.507,2.507,0,0,0,2.618-.017,28.838,28.838,0,0,0,1.746-3.234l-.017.026a28.967,28.967,0,0,0,.673-9.5,2.069,2.069,0,0,0-1.526-2.165c-1.052-.129-1.048.625-1.087,1.32a5.326,5.326,0,0,1-.25,2.238c-.194.543-.319,1.126-1.147.725a3.124,3.124,0,0,1-1.837-1.919l-.039-.16-.155-.039C440.919,146.159,442.7,145.978,443.532,145.318Zm-13.386,3.433c-.863.384-.5,2.631-2.333,1.535a2.9,2.9,0,0,0-1.117-1.535c-1.677-1.19-1.6-2.911-1.445-4.631.108-1.216.724-1.518,1.69-.69a7.057,7.057,0,0,1,1.695,1.915l-.009-.009a17.351,17.351,0,0,0,1.518,1.716C430.655,147.608,431.009,148.185,430.146,148.75Zm8.625-7.318c-1.182.875-2.109.677-3.075-.457a56.5,56.5,0,0,0-5.184-5.662c-.371-.332-.69-.725-1.078-1.039-3.1-2.51-5.537-1.772-6.723,2.035a14.33,14.33,0,0,0-.737,3.743,14.23,14.23,0,0,1-.168,3.579c-1.66-.121-2.32-1.729-3.678-2.165a4.061,4.061,0,0,0-1.936-1.522c-1.216-1.32-2.7-2.415-3.433-4.136l.013.022c-1.777-3.333-1.742-6.5.854-9.435l-.009.009.017-.017-.008.009c5.067-4.545,10.229-2.963,13.735,3.208.962,1.695,1.035,1.686,2.126.043l1-.953a11.536,11.536,0,0,1,4.946-4.688c4.407-.677,7.534.975,9.772,5.149.556,3,.246,5.761-2.152,7.961C442.01,138.94,439.966,139.763,438.771,141.432Z" transform="translate(-402.342 -115.561)"/></g><path class="a" d="M426.328,140.74a7.935,7.935,0,0,1-1.837,1.031l.039-.043a1.694,1.694,0,0,1-2.031.768c-.5-.164-.535-.664-.466-1.091a30.209,30.209,0,0,1,2.273-8.6l1.022-3.377a26.55,26.55,0,0,1,2.324-8.263l.216-.345c-.612-.724,1.147-2.053-.535-2.445-4.282-.992-8.525-2.273-13.045-1.41-1.147.216-2.3.806-3.536.457a15.4,15.4,0,0,0-5.861,2.833c-1.953.97-3.1,2.971-5.054,3.942l-.168.043-.043.168a9.653,9.653,0,0,1-2.294,3.152l-.017-.009c-1.427,3.3-3.092,6.516-3.489,10.164a19.69,19.69,0,0,0,.643,7.814,1.285,1.285,0,0,0,.63,1.074,6.889,6.889,0,0,0,6.753,1.169c3.135-1.126,5.636-3.187,8.125-5.287a10.722,10.722,0,0,1,3.872-3.264,20.323,20.323,0,0,1-.621,3.773c-.4,2.178-.427,4.278,1.044,6.132,4.144.427,7.534-1.281,10.643-3.778a18.927,18.927,0,0,1,2.76-2.906,1.221,1.221,0,0,0,.073-1.708C427.277,140.011,426.828,140.455,426.328,140.74Zm-7.81-17.9c-.638,1.617-.884,3.372-1.462,5.02a15.5,15.5,0,0,1-3.691,7.219c-2.126,2.35-4.067,4.895-6.852,6.555-1.919.763-2.333.6-2.928-1.121-.651-1.9-.185-3.76.138-5.636.414-2.359.681-4.757,1.984-6.852.711-1.3,1.38-2.618,2.148-3.881,2.126-3.5,5.179-4.838,9.2-3.8C418.842,120.407,419.144,121.257,418.518,122.835Z" transform="translate(-366.991 -111.863)"/><path class="a" d="M454.635,140.844c-.759-.552-1.358-.091-1.9.371a9.594,9.594,0,0,1-1.613,1.039c-1.518.819-2.277.388-1.949-1.307a56.683,56.683,0,0,1,2.708-10.289,43.791,43.791,0,0,1,2.531-8.448l-.052.043a5.322,5.322,0,0,0,.194-1.251c.513-2.372.5-2.329-1.91-3.014-2.307-.651-4.748-.569-7.025-1.35-2.229.742-4.662-.47-6.844.729-2.678,1.1-5.382,2.169-7.961,3.51a17.5,17.5,0,0,0-6.663,7.1,16.481,16.481,0,0,1-1.121,2.764c-1.66,3.916-2.816,7.939-2.083,12.256.405,2.376,1.458,4.312,3.946,5.11a9.11,9.11,0,0,0,6.52-1.432c2.363-1.367,4.368-3.2,6.624-4.7,1.134-.41,1.427-1.906,2.712-2.122-.052,1.57-.7,3.062-.725,4.61-.052,3.967.807,5.511,5.33,4.243a30.259,30.259,0,0,0,6.43-3.208h-.03c1.061-.8,1.587-2.225,3.019-2.592h-.017C455.165,142.194,455.5,141.478,454.635,140.844Zm-8.763-18.914a73.625,73.625,0,0,1-2.583,8.478c-.97,2.2-1.893,4.42-3.864,5.968l-3.144,3.4c-.66,1.427-2.1,1.846-3.338,2.428-1.194.556-2.359-.41-2.51-2.023a32.245,32.245,0,0,1-.013-3.6,55.706,55.706,0,0,1,1.833-7.784,16.021,16.021,0,0,1,2.346-4.373,8.008,8.008,0,0,1,5.442-4.614,12.511,12.511,0,0,1,4.726.707C445.523,120.753,446.083,121,445.872,121.93Z" transform="translate(-277.467 -111.988)"/></g></g></svg>