<svg xmlns="http://www.w3.org/2000/svg" width="728" height="537.666" viewBox="0 0 728 537.666"><defs><style>.a{fill:#fff;}.b{stroke:#231815;stroke-linecap:round;stroke-linejoin:round;stroke-width:14.173px;fill:none;}.b,.c{font-size:72px;font-family:Keifont;}.c{fill:#fff000;}</style></defs><g transform="translate(1216.941 -530.256)"><g transform="translate(-1216.941 530.256)"><path d="M-954.956,530.256c35.442,93.3,2.586,99.525-52.684,54.313,40.9,72.8-21.553,70.4-135.829,7.663,100.865,71.746,90.329,134.679-16.189,124.43,106.518,28.545,65.807,88.222-57.283,113.894,123.09,1.916,150.677,41.573,63.413,87.935,97.992-27.2,126.825,9.962,34.293,93.2,104.506-65.232,154.891-22.031,122.323,54.887,50-92.82,156.232-80.463,188.514-8.813-15.422-89.754,47.991-70.405,104.218,10.154-34.579-86.594-.958-135.829,83.72-85.156-80.655-63.8-10.345-66.286,84.007-24.235-100.292-67.244-64.371-152.4,47.511-170.888-109.488-3.161-131.04-53.546-33.527-103.069-114.276,36.3-157.478-.862-88.6-71.938-83.912,64.658-91.67,18.3-24.522-75.77-83.912,83.241-135.542,103.644-130.753,38.221-34.771,60.634-61.114,43.871-65.328-36.88C-845.565,624.9-907.924,614.168-954.956,530.256Z" transform="translate(1216.941 -530.256)"/><path class="a" d="M-732.053,1023.782c-19.074-17.818-37.389-27.631-51.573-27.631-8.165,0-14.826,3.009-19.8,8.944-3.356,3.969-5.75,9.052-7.338,15.573l-3.019,12.389-9.522-8.479a104.024,104.024,0,0,0-69.237-26.413c-26.1.088-50.87,9.368-71.6,26.837l-10.855,9.148-1.692-14.1a49.707,49.707,0,0,0-7.759-22.027c-8.708-13.145-24.095-20.363-43.351-20.363a108.555,108.555,0,0,0-28.434,4.229l-19.482,5.345,11.036-16.921c11.482-17.606,15.162-32.207,10.936-43.4-4.8-12.669-19.063-19.4-41.227-19.47l-16.09-.048,10.177-12.462c7.883-9.654,10.65-18.688,8.456-27.617-3.574-14.933-20.409-25.776-50.045-32.276l-23.193-5.087,21.791-9.431c35.805-15.5,55.835-34.816,56.4-54.4.293-10.453-4.758-20.021-15.016-28.433l-11.574-9.49,14.467-3.841c23.738-6.3,32.343-18.905,35.381-28.368,4.323-13.459.626-29.273-10.991-47l-12.778-19.5,21.854,8.118c21.562,8.008,39.034,12.069,51.933,12.069,13.05,0,22.109-4.05,26.927-12.039a25.222,25.222,0,0,0,3.157-14.084l-.527-12.795,11.525,5.584c8.132,3.94,15.388,5.938,21.564,5.938,7.429,0,13.439-2.977,17.382-8.609,3.206-4.623,4.841-11.114,4.841-19.265V577.362l12.75,11.317c14.815,13.149,30.047,20.1,44.052,20.1,7.41,0,21.617-2.269,33.53-17.467l8.946-11.414,4.389,13.821C-819.61,612.748-810.907,622-799.048,622c7.517,0,15.088-4.034,23.143-12.331l7.3-7.522,4.951,9.242a24.825,24.825,0,0,0,3.864,5.51l.083.087c4.484,4.846,10.721,7.408,18.035,7.408,12.968,0,30.692-8.111,52.676-24.109l20.455-14.883-8.756,23.732c-5.75,15.584-6.682,27.336-2.77,34.934,3.023,5.914,8.8,9.159,16.272,9.159a38.1,38.1,0,0,0,10.5-1.7l13.6-3.966-4.125,13.555c-2.92,9.6-2.824,18.143.287,25.4,6.275,14.833,23.643,22.655,50.238,22.655,3.982,0,8.215-.184,12.583-.548l18.463-1.539-11.982,14.13c-10.187,12.014-14.055,23.792-11.5,35.008,4.217,18.584,24.642,28.45,41.033,33.458l18.082,5.523-16.824,8.625c-28.747,14.738-46.744,35.433-52.043,59.848-4.181,19.281.441,39.815,13.368,59.383l11.1,16.806-19.466-5.177c-16.1-4.281-30.092-6.544-40.465-6.544-9.818,0-22.228,2.074-25.6,11.959a16.717,16.717,0,0,0,.067,10.866l3.56,11.474-11.906-1.609a69.684,69.684,0,0,0-9.319-.7c-15.732,0-28.18,6.092-36,17.616-6.778,10.042-9.82,23.527-9.031,40.067l.9,18.841Z" transform="translate(1212.38 -534.446)"/></g><g transform="translate(-1082.987 739.958)"><text class="b" transform="translate(248.555 66.555)"><tspan x="-243.668" y="0">協賛スポンサー</tspan><tspan x="-144" y="99">大募集！</tspan></text><text class="b" transform="translate(244 62)"><tspan x="-243.668" y="0">協賛スポンサー</tspan><tspan x="-144" y="99">大募集！</tspan></text><text class="c" transform="translate(244 62)"><tspan x="-243.668" y="0">協賛スポンサー</tspan><tspan x="-144" y="99">大募集！</tspan></text></g></g></svg>