<svg xmlns="http://www.w3.org/2000/svg" width="124.631" height="120.761" viewBox="0 0 124.631 120.761"><defs><style>.a{fill:#fff;}.b{fill:#f0f0f0;}</style></defs><g transform="translate(-549.063 -3215.094) rotate(-16)"><path d="M-293.146,3373.55l-70.126,36.407,67.431-38.932Z" transform="translate(-7.188 -49.864)"/><path d="M-377.649,3405.933l72.682-43.565-1.659-3.205Z" transform="translate(0 -43.933)"/><path d="M-377.185,3395.183l67.519-46.246-2.239-3.861Z" transform="translate(-0.232 -36.89)"/><path d="M-347.39,3377.728-298.9,3341.5l-.626-3.193Z" transform="translate(-15.129 -33.508)"/><g transform="translate(-325.203 3271.297)"><path class="a" d="M-239.8,3314.206a17.018,17.018,0,0,0,1.338,2.549q.544.953,1.246,1.953c9.024,12.791,19.3,4.435,19.3,4.435s1.026,7.564,12.663,6.194c11.607-1.367,12.933-11,12.939-11.05l-.01-.034a11.919,11.919,0,0,1-4.3,2.136,11.923,11.923,0,0,1-7.068-.287,12.447,12.447,0,0,0,5.792-.149,12.451,12.451,0,0,0,5.225-2.849,15.777,15.777,0,0,0-1.879-3.695,15.065,15.065,0,0,1,2.276,3.316,12.5,12.5,0,0,0,3.258-12.059,12.509,12.509,0,0,0-.921-2.423,12.491,12.491,0,0,1-3.951,6.317,14.917,14.917,0,0,0,.338-17.749,14.953,14.953,0,0,0-2.646-2.851,12.48,12.48,0,0,1,4.048,3.411,12.431,12.431,0,0,0-1.7-5.147,12.448,12.448,0,0,0-3.2-3.565,12.513,12.513,0,0,0-12.32-1.577,20.211,20.211,0,0,1,3.677,4.528,20.241,20.241,0,0,1,1.943,4.332,20.129,20.129,0,0,1,.88,7.273,20.977,20.977,0,0,0-2.164-7.916c-.483-.231-1.079-.5-1.764-.8s-1.459-.6-2.3-.91a23.126,23.126,0,0,0-6.036-2.161c-.7-.145-1.4-.258-2.1-.337-9.439-1.5-20.288,2.84-22.815,12.767a23.092,23.092,0,0,0-.762,2.644,23.73,23.73,0,0,0,.141,11.008A17.7,17.7,0,0,0-239.8,3314.206Z" transform="translate(257.078 -3275.714)"/><path class="b" d="M-219.457,3326.8c-11.637,1.37-12.663-6.195-12.663-6.195s-10.274,8.355-19.3-4.435a19.809,19.809,0,0,1-2.844-5.582,14.073,14.073,0,0,1-.406-1.673,30.97,30.97,0,0,1,.361-10.02,25.213,25.213,0,0,1,.638-2.449,15.1,15.1,0,0,1,.88-2.781,14.622,14.622,0,0,1,1.331-2.434c5.35-7.692,15.965-10.139,24.514-7.312.644.167,1.274.348,1.882.541a45.631,45.631,0,0,1,5.813,2.3c-.238-.477-.493-.95-.771-1.416a21.053,21.053,0,0,0-5.275-5.932,12.6,12.6,0,0,0-1.714,1.25,12.371,12.371,0,0,0-1.442,1.478,11.938,11.938,0,0,1,1.217-1.626,11.968,11.968,0,0,1,1.508-1.422,21.125,21.125,0,0,0-20.945-2.235,21.124,21.124,0,0,0-2.29,1.187,23.842,23.842,0,0,0-4.243,3.21,15.01,15.01,0,0,1,1.758.181,12.312,12.312,0,0,1,2.435.625,10.652,10.652,0,0,1,2.212,1.1c-.607-.175-1.235-.323-1.875-.461s-1.29-.278-1.944-.4a8.6,8.6,0,0,0-2.016-.079,5.588,5.588,0,0,0-1.9.493l.168-.289a14.775,14.775,0,0,0-7.853,3.572,15.374,15.374,0,0,0-1.318,1.293,15.021,15.021,0,0,0-1.666,2.238,15.116,15.116,0,0,1,1.59-1.036,17.965,17.965,0,0,1,5.086-1.9,19.934,19.934,0,0,0-4.763,2.492,15.775,15.775,0,0,0-1.461,1.195,15.712,15.712,0,0,0-.9,22.2,15.661,15.661,0,0,0,4.26,3.272,14.98,14.98,0,0,1-5.9-3.937,15.2,15.2,0,0,1-1.663-2.166,14.918,14.918,0,0,0,11.191,13.43c.116.03.23.056.347.083a14.3,14.3,0,0,1,1.143-5.252,14.942,14.942,0,0,0-.478,5.39,14.969,14.969,0,0,0,2.851.243,12.521,12.521,0,0,1-2.791.29c.044.341.1.682.167,1.025a15,15,0,0,0,17.652,11.77c.175-.034.348-.073.52-.114a12.634,12.634,0,0,1-1.686-1.221,14.789,14.789,0,0,0,2.36,1.045,14.984,14.984,0,0,0,3.591-1.557,14.278,14.278,0,0,1-2.876,1.782,14.9,14.9,0,0,0,14.522-3.623,14.971,14.971,0,0,0,2.416-3.047,12.49,12.49,0,0,1-3.114,4.878q-.4.392-.835.74a15.774,15.774,0,0,0,6.228-.379,15.817,15.817,0,0,0,11.236-19.342c0-.013-.007-.025-.009-.038C-206.525,3315.8-207.85,3325.436-219.457,3326.8Z" transform="translate(271.285 -3273.179)"/><path d="M-261.17,3321.521a12.679,12.679,0,0,0,2.271.363,14.578,14.578,0,0,0,.277,2.549,14.374,14.374,0,0,0,16.913,11.277,14.356,14.356,0,0,0,2.53-.751,12.554,12.554,0,0,0,13.585-1.257,15.076,15.076,0,0,0,7.984.06,15.154,15.154,0,0,0,10.765-18.531,15.064,15.064,0,0,0-.631-1.877,11.975,11.975,0,0,0,3.669-12.066,11.964,11.964,0,0,0-1.753-3.786,12.516,12.516,0,0,0-1.98-10.179c-.083-.117-.169-.233-.257-.346a11.908,11.908,0,0,0-1.685-6.555,11.976,11.976,0,0,0-16.154-4.3,20.231,20.231,0,0,0-23.48-1.965,20.174,20.174,0,0,0-5.792,5.2,12.516,12.516,0,0,0-9.535,4.141,12.545,12.545,0,0,0-2.561,4.353q-.463.364-.9.77a15.06,15.06,0,0,0-2.585,19.015A12.547,12.547,0,0,0-261.17,3321.521Zm-5.964-10.962a15.713,15.713,0,0,1,.9-22.2,15.658,15.658,0,0,1,6.352-3.564,14.975,14.975,0,0,0-6.8,2.817,14.864,14.864,0,0,1,1.667-2.237,14.848,14.848,0,0,1,9.273-4.815c-.059.092-.118.181-.174.272.077-.094.156-.187.236-.28a14.926,14.926,0,0,1,8.065,1.3,12.481,12.481,0,0,0-6.975-2.484,21.1,21.1,0,0,1,4.148-3.238,21.113,21.113,0,0,1,23.236,1.049,11.906,11.906,0,0,0-2.726,3.051,12.462,12.462,0,0,1,3.156-2.729,21.043,21.043,0,0,1,5.274,5.932c.286.479.549.966.794,1.458l-.012-.006a21.088,21.088,0,0,1,1.478,3.871l.038.145c.03.113.06.226.088.339a20.951,20.951,0,0,1,.55,3.523c0-.017,0-.034,0-.051,0,.03.006.06.008.089a20.137,20.137,0,0,0-.518-5.967,20.235,20.235,0,0,0-2.314-5.678,20.219,20.219,0,0,0-3.678-4.526,12.5,12.5,0,0,1,15.518,5.141,12.425,12.425,0,0,1,1.705,5.148,12.453,12.453,0,0,0-4.048-3.412,14.936,14.936,0,0,1,2.647,2.851,14.919,14.919,0,0,1-.339,17.75,12.492,12.492,0,0,0,3.951-6.318,12.563,12.563,0,0,1,.921,2.423,12.5,12.5,0,0,1-3.259,12.059,15.115,15.115,0,0,0-2.275-3.316,15.783,15.783,0,0,1,1.878,3.7,12.448,12.448,0,0,1-5.225,2.849,12.447,12.447,0,0,1-5.792.148,11.925,11.925,0,0,0,7.069.287,11.948,11.948,0,0,0,4.3-2.136c.007.024.014.047.02.07a15.817,15.817,0,0,1-11.236,19.343,15.742,15.742,0,0,1-6.227.38q.427-.349.833-.739a12.5,12.5,0,0,0,3.114-4.88,14.948,14.948,0,0,1-2.417,3.049,14.9,14.9,0,0,1-14.52,3.621,14.266,14.266,0,0,0,2.875-1.783,14.916,14.916,0,0,1-3.591,1.558,14.8,14.8,0,0,1-2.359-1.044,12.459,12.459,0,0,0,1.686,1.219c-.173.041-.345.079-.52.115a15,15,0,0,1-17.653-11.77c-.068-.343-.123-.685-.167-1.025a12.575,12.575,0,0,0,2.79-.29,14.948,14.948,0,0,1-2.85-.244,14.9,14.9,0,0,1,.478-5.39,14.325,14.325,0,0,0-1.143,5.251c-.116-.027-.232-.053-.346-.082a14.918,14.918,0,0,1-11.192-13.43,15.215,15.215,0,0,0,1.663,2.167,15,15,0,0,0,5.9,3.938A15.7,15.7,0,0,1-267.134,3310.559Zm36.4-7.063a11.166,11.166,0,0,0,6.359-4.478,15.786,15.786,0,0,1,2.03,4.575,15.818,15.818,0,0,1-11.236,19.342,15.76,15.76,0,0,1-7.328.188,15.086,15.086,0,0,0,8.944.363,15.155,15.155,0,0,0,10.765-18.531,15.1,15.1,0,0,0-3.143-5.984,11.182,11.182,0,0,0,1.57-9.183,11.162,11.162,0,0,0-2.514-4.642,11.7,11.7,0,0,1,1.668,3.635,11.7,11.7,0,0,1-8.312,14.306,11.633,11.633,0,0,1-5.419.14A11.16,11.16,0,0,0-230.736,3303.5Zm-22.835,1.109c0,.008.009.018.013.026,0-.008,0-.017-.007-.026a9.547,9.547,0,0,1,5.162,1.987,8,8,0,0,0-5.372-2.788,18.873,18.873,0,0,1-.519-4.036,18.869,18.869,0,0,1,13-18.306,15.867,15.867,0,0,0-14.091,16.081,15.782,15.782,0,0,0,1.415,6.245,7.985,7.985,0,0,0-5.156,1.44,7.97,7.97,0,0,0-2.455,2.769,9.527,9.527,0,0,1,1.832-1.683A9.5,9.5,0,0,1-253.572,3304.6Z" transform="translate(272.757 -3271.297)"/></g></g></svg>