<svg xmlns="http://www.w3.org/2000/svg" width="465.286" height="570.088" viewBox="0 0 465.286 570.088"><defs><style>.a{fill:none;stroke:#333;stroke-linecap:round;stroke-linejoin:round;stroke-width:14.173px;}.b{fill:#fff;}</style></defs><g transform="translate(2065.001 94.514) rotate(30)"><g transform="translate(-3.431 -44.511)"><path class="a" d="M-1466.467,813.141l44,.456.956,6.08a62.073,62.073,0,0,1-3.383,11.161,104.216,104.216,0,0,1-5.029,10.57q-2.808,5.139-5.957,10.023l-12.065-3.524a73.3,73.3,0,0,0,12.3-24.414l-30.877-.163Zm3.874-17.81,37.2-.1-.434,10.495-37.126-.211Z"/><path class="a" d="M-1457.7,855.836l12.03,2.022-4.059,10.432,23.6-1.652,4.508,6.705-25.323,43.377-9.913-5.049,20.3-35.213-16.833,1.019-5.431,13.907-10.714-2.187Z"/><path class="a" d="M-1466.793,973.793l-.723-48.145,9.988.8,31.019-.833,5.03,5.463-2.932,35.517-31.4,1.264.018,6.127Zm32.651-37.061-21.577.686-.025,19.315,20.514-.58Z"/><path class="a" d="M-1466.268,985.778l36.838-1.17,4.745,7.521q-6.027,8.584-12.728,16.531l17.588,13-7.543,9.557-16.862-15.171-.827.8q-9.411,9.087-19,17.859l-7.275-9.379q9.312-7.024,17.952-15a153.761,153.761,0,0,0,14.074-14.882l-27.142.776Z"/><path class="a" d="M-1443.937,1054.811l7.231,8.315-27.1,26.969a29.849,29.849,0,0,1-7.659-12.386,24.89,24.89,0,0,1-.342-14.446,25.577,25.577,0,0,1,7.5-12.37,28.907,28.907,0,0,1,12.872-6.9,32.539,32.539,0,0,1,12.482-.626,23.088,23.088,0,0,1,11.447,4.95,24.285,24.285,0,0,1,7.451,10.007,33.678,33.678,0,0,1,2.474,12.264,44.931,44.931,0,0,1-1.476,11.164,33.552,33.552,0,0,1-4.521,10.109l-12.22-5.4a34.46,34.46,0,0,0,3.794-7.873,31.628,31.628,0,0,0,1.62-8.66,24.041,24.041,0,0,0-1.432-7.495,19.524,19.524,0,0,0-3.888-6.475,11.659,11.659,0,0,0-4.851-3.21,11.706,11.706,0,0,0-5.8-.508,17.793,17.793,0,0,0-5.5,1.81,24.738,24.738,0,0,0-6.2,4.393,10.952,10.952,0,0,0-3.333,6.537,10.741,10.741,0,0,0,1.53,7.246Z"/><path class="a" d="M-1447.035,1150.771l18.81.328q3.375.058,4.42-.767t1.535-3.755a21.722,21.722,0,0,0,7.328,2.754q-.972,5.484-3.566,7.313t-9.281,1.713l-19.5-.34q-8.874-.155-11.867-2.332t-2.886-8.364l.285-16.31-1.562-.028-.044,2.5q-.3,17-8.882,25.349a21.575,21.575,0,0,0-2.189-3.477,20.234,20.234,0,0,0-2.7-3.047q6.233-6.2,6.462-19.265l.038-2.187-3.5-.062.458-26.245,7.811.136a45.59,45.59,0,0,0,1.567-7.411l9.292,1.225-2.235,6.336,11.311.2-.459,26.246-7.623-.133-.188,10.748.437.008q.975-5.733,1.37-10.415l6.292,1.235q-.2.621-.761,2.393t-.892,2.766l3.895-1.12a47.889,47.889,0,0,1,2.513,10.046l-4.465,1.485q-.051-.625-.392-2.57-3.456,1-7.161,2l-.891-2.7-.04,2.312q-.038,2.188,1.233,2.772T-1447.035,1150.771Zm-19.729-29.975-.051,2.938,3.062.053.051-2.937Zm.156-8.936-.051,2.875,3.062.054.051-2.875Zm12.853,12.1.051-2.937-3.312-.057-.051,2.937Zm.157-9,.05-2.875-3.312-.057-.05,2.874Zm5.653,23.54-.863,2.86,1.628-.159Q-1447.648,1139.32-1447.945,1138.5Zm13.387,10.11.238-13.623q-3.114,6.573-6.105,9.582a42.632,42.632,0,0,0-3.163-8.618,34.93,34.93,0,0,0,6.3-9.7l-6.187-.109.136-7.811,9.311.163.082-4.687-8.061-.141.132-7.561,8.061.141.12-6.874,8.249.144-.12,6.873,7.936.139-.132,7.561-7.936-.138-.082,4.687,9.249.161-.137,7.811-5.5-.1A40.667,40.667,0,0,0-1415,1138.2a29.041,29.041,0,0,0-6.236,6.329,44.958,44.958,0,0,1-4.812-10.835l-.263,15.06Z"/><path class="a" d="M-1443.468,1176.312l25.621.447q-.118,3.125-.263,4.309-1.209,19.046-2.51,27.4t-3.472,10.941a10.067,10.067,0,0,1-3.2,2.757,12.938,12.938,0,0,1-4.053,1.179,54.318,54.318,0,0,1-10.254.134,19.178,19.178,0,0,0-.977-4.924,20.775,20.775,0,0,0-2.166-4.82q4.618.456,9.3.538a4.113,4.113,0,0,0,2.957-1.074q2.732-2.639,4.41-27.052l-15.935-.278q-2.535,27.023-23.921,38.213a30.984,30.984,0,0,0-3.335-4.09,30.546,30.546,0,0,0-3.907-3.6q18.6-8.99,21.227-30.7l-18.56-.324.167-9.561,18.935.331.223-12.811,9.936.173Z"/><path class="a" d="M-1469.595,1237.712l9.066-7.28q4.316,6.953,8.762,13.717a51.041,51.041,0,0,0,8.214,9.27,158.838,158.838,0,0,1,15.272-8.3l7.263,10.066q-6.479,2.264-12.777,5.028a76.2,76.2,0,0,0-11.992,6.6q-1.2.917-2.346,1.9a14.66,14.66,0,0,0-2.07,2.183,4.24,4.24,0,0,0-.892,2.766,2.579,2.579,0,0,0,1,1.7,5.648,5.648,0,0,0,1.827.939q.994.3,2.055.5a31.634,31.634,0,0,0,18.483-2.49l.8,11.265a66.5,66.5,0,0,1-19.465,1.411,41.733,41.733,0,0,1-6.016-.917,23.676,23.676,0,0,1-5.683-2.1,10.929,10.929,0,0,1-4.337-4.045,9.66,9.66,0,0,1-1.431-5.745,10.379,10.379,0,0,1,1.425-4.632,22.5,22.5,0,0,1,2.912-3.918,41.612,41.612,0,0,1,3.529-3.377q1.87-1.592,3.9-3.12-3.381-3.309-6.506-6.927A163.256,163.256,0,0,1-1469.595,1237.712Z"/><path class="b" d="M-1466.467,813.141l44,.456.956,6.08a62.073,62.073,0,0,1-3.383,11.161,104.216,104.216,0,0,1-5.029,10.57q-2.808,5.139-5.957,10.023l-12.065-3.524a73.3,73.3,0,0,0,12.3-24.414l-30.877-.163Zm3.874-17.81,37.2-.1-.434,10.495-37.126-.211Z"/><path class="b" d="M-1457.7,855.836l12.03,2.022-4.059,10.432,23.6-1.652,4.508,6.705-25.323,43.377-9.913-5.049,20.3-35.213-16.833,1.019-5.431,13.907-10.714-2.187Z"/><path class="b" d="M-1466.793,973.793l-.723-48.145,9.988.8,31.019-.833,5.03,5.463-2.932,35.517-31.4,1.264.018,6.127Zm32.651-37.061-21.577.686-.025,19.315,20.514-.58Z"/><path class="b" d="M-1466.268,985.778l36.838-1.17,4.745,7.521q-6.027,8.584-12.728,16.531l17.588,13-7.543,9.557-16.862-15.171-.827.8q-9.411,9.087-19,17.859l-7.275-9.379q9.312-7.024,17.952-15a153.761,153.761,0,0,0,14.074-14.882l-27.142.776Z"/><path class="b" d="M-1443.937,1054.811l7.231,8.315-27.1,26.969a29.849,29.849,0,0,1-7.659-12.386,24.89,24.89,0,0,1-.342-14.446,25.577,25.577,0,0,1,7.5-12.37,28.907,28.907,0,0,1,12.872-6.9,32.539,32.539,0,0,1,12.482-.626,23.088,23.088,0,0,1,11.447,4.95,24.285,24.285,0,0,1,7.451,10.007,33.678,33.678,0,0,1,2.474,12.264,44.931,44.931,0,0,1-1.476,11.164,33.552,33.552,0,0,1-4.521,10.109l-12.22-5.4a34.46,34.46,0,0,0,3.794-7.873,31.628,31.628,0,0,0,1.62-8.66,24.041,24.041,0,0,0-1.432-7.495,19.524,19.524,0,0,0-3.888-6.475,11.659,11.659,0,0,0-4.851-3.21,11.706,11.706,0,0,0-5.8-.508,17.793,17.793,0,0,0-5.5,1.81,24.738,24.738,0,0,0-6.2,4.393,10.952,10.952,0,0,0-3.333,6.537,10.741,10.741,0,0,0,1.53,7.246Z"/><path class="b" d="M-1447.035,1150.771l18.81.328q3.375.058,4.42-.767t1.535-3.755a21.722,21.722,0,0,0,7.328,2.754q-.972,5.484-3.566,7.313t-9.281,1.713l-19.5-.34q-8.874-.155-11.867-2.332t-2.886-8.364l.285-16.31-1.562-.028-.044,2.5q-.3,17-8.882,25.349a21.575,21.575,0,0,0-2.189-3.477,20.234,20.234,0,0,0-2.7-3.047q6.233-6.2,6.462-19.265l.038-2.187-3.5-.062.458-26.245,7.811.136a45.59,45.59,0,0,0,1.567-7.411l9.292,1.225-2.235,6.336,11.311.2-.459,26.246-7.623-.133-.188,10.748.437.008q.975-5.733,1.37-10.415l6.292,1.235q-.2.621-.761,2.393t-.892,2.766l3.895-1.12a47.889,47.889,0,0,1,2.513,10.046l-4.465,1.485q-.051-.625-.392-2.57-3.456,1-7.161,2l-.891-2.7-.04,2.312q-.038,2.188,1.233,2.772T-1447.035,1150.771Zm-19.729-29.975-.051,2.938,3.062.053.051-2.937Zm.156-8.936-.051,2.875,3.062.054.051-2.875Zm12.853,12.1.051-2.937-3.312-.057-.051,2.937Zm.157-9,.05-2.875-3.312-.057-.05,2.874Zm5.653,23.54-.863,2.86,1.628-.159Q-1447.648,1139.32-1447.945,1138.5Zm13.387,10.11.238-13.623q-3.114,6.573-6.105,9.582a42.632,42.632,0,0,0-3.163-8.618,34.93,34.93,0,0,0,6.3-9.7l-6.187-.109.136-7.811,9.311.163.082-4.687-8.061-.141.132-7.561,8.061.141.12-6.874,8.249.144-.12,6.873,7.936.139-.132,7.561-7.936-.138-.082,4.687,9.249.161-.137,7.811-5.5-.1A40.667,40.667,0,0,0-1415,1138.2a29.041,29.041,0,0,0-6.236,6.329,44.958,44.958,0,0,1-4.812-10.835l-.263,15.06Z"/><path class="b" d="M-1443.468,1176.312l25.621.447q-.118,3.125-.263,4.309-1.209,19.046-2.51,27.4t-3.472,10.941a10.067,10.067,0,0,1-3.2,2.757,12.938,12.938,0,0,1-4.053,1.179,54.318,54.318,0,0,1-10.254.134,19.178,19.178,0,0,0-.977-4.924,20.775,20.775,0,0,0-2.166-4.82q4.618.456,9.3.538a4.113,4.113,0,0,0,2.957-1.074q2.732-2.639,4.41-27.052l-15.935-.278q-2.535,27.023-23.921,38.213a30.984,30.984,0,0,0-3.335-4.09,30.546,30.546,0,0,0-3.907-3.6q18.6-8.99,21.227-30.7l-18.56-.324.167-9.561,18.935.331.223-12.811,9.936.173Z"/><path class="b" d="M-1469.595,1237.712l9.066-7.28q4.316,6.953,8.762,13.717a51.041,51.041,0,0,0,8.214,9.27,158.838,158.838,0,0,1,15.272-8.3l7.263,10.066q-6.479,2.264-12.777,5.028a76.2,76.2,0,0,0-11.992,6.6q-1.2.917-2.346,1.9a14.66,14.66,0,0,0-2.07,2.183,4.24,4.24,0,0,0-.892,2.766,2.579,2.579,0,0,0,1,1.7,5.648,5.648,0,0,0,1.827.939q.994.3,2.055.5a31.634,31.634,0,0,0,18.483-2.49l.8,11.265a66.5,66.5,0,0,1-19.465,1.411,41.733,41.733,0,0,1-6.016-.917,23.676,23.676,0,0,1-5.683-2.1,10.929,10.929,0,0,1-4.337-4.045,9.66,9.66,0,0,1-1.431-5.745,10.379,10.379,0,0,1,1.425-4.632,22.5,22.5,0,0,1,2.912-3.918,41.612,41.612,0,0,1,3.529-3.377q1.87-1.592,3.9-3.12-3.381-3.309-6.506-6.927A163.256,163.256,0,0,1-1469.595,1237.712Z"/></g><path class="a" d="M-1514.47,900.131l-16.372-.286a64.431,64.431,0,0,0,18.112,8.068,33.4,33.4,0,0,0-6.323,7.7,61.632,61.632,0,0,1-19.552-11.531l-.208,11.936-9.5-.166.208-11.935a55.155,55.155,0,0,1-19.763,11.344,36.378,36.378,0,0,0-6.051-7.857,60.072,60.072,0,0,0,18.392-7.992l-16.31-.285.139-8,23.809.415.061-3.5-8.123-.142.112-6.436q-6.759,4.008-12.945,7.463l-4.427-7.766q5.29-2.283,15.317-7.3l2.075,6.475.332-19.06,7.249.127a47.368,47.368,0,0,0,1.237-6.354l10.478,1.308q-.654,1.676-2.216,5.212l9.061.158-.1,5.686a62.943,62.943,0,0,0,8.152-8.671l7.916,4.889a85.091,85.091,0,0,1-10.733,9.689l-5.374-3.657-.128,7.311,2.806-3.2q10.282,5.368,14.721,8.946l-5.87,6.836a74.675,74.675,0,0,0-11.735-8.144l-.121,6.937-8.186-.143-.061,3.5,24.059.42Zm-41.389-31.79-6.978,5.88a30.163,30.163,0,0,0-3.976-5.008,57.162,57.162,0,0,0-5.536-5.16l6.467-5.2Q-1558.724,864.1-1555.859,868.341Zm8.647,9.59-.055,3.125,8.186.143.055-3.125Zm8.3-6.293.055-3.125-8.186-.143-.055,3.125Z"/><path class="a" d="M-1562.886,924.2l13.3.982q-1.607,6.1-3.037,12.887a138.228,138.228,0,0,0-2.177,13.651,9.322,9.322,0,0,0,.607,4.636,7.036,7.036,0,0,0,2.97,3.521,9.124,9.124,0,0,0,4.384,1.358,14.131,14.131,0,0,0,4.572-.545,34.81,34.81,0,0,0,5.924-2.772q2.779-1.638,5.5-3.436t5.316-3.72q2.595-1.925,4.624-3.513l5.543,11.911q-3.857,2.433-8.179,4.826t-8.766,4.41a46.2,46.2,0,0,1-9.149,3.06,35.406,35.406,0,0,1-8.355.605,25.705,25.705,0,0,1-8.065-1.7,14.335,14.335,0,0,1-4.88-3.367,12.366,12.366,0,0,1-2.943-5.083,18.579,18.579,0,0,1-.739-6.014A182.979,182.979,0,0,1-1562.886,924.2Z"/><path class="a" d="M-1559.341,1015.437q3.861,4.443,8.1,8.518a58.975,58.975,0,0,0,11.114,7.882,44.464,44.464,0,0,0-7.47,8.934,97.009,97.009,0,0,1-11.525-9.39,55.524,55.524,0,0,1-8.265-9.958Zm-4.8-22.212,19.3-2.413q-1.239-4.273-2.6-8.61l12.526-1.344q.861,4.329,1.788,8.6l13.279-1.581,1.025,9.332-12.467,1.6q.225,1.317.519,2.51a126.129,126.129,0,0,1,2.264,17.1l-16.061-.218-.891-6.266,4.383-.424a76.466,76.466,0,0,0-1.426-11.4l-20.422,2.519Z"/><path class="a" d="M-1568.945,1054.186l16.638-.585,3.712-8.562,9.727,1.42-3.306,6.756,11.384-.426-.669,9.739-15.575.541-2.722,5.516a20.792,20.792,0,0,1,8.863,4.343,34.783,34.783,0,0,1,11.137-2.337,60.477,60.477,0,0,1,11.46.606l-.4,8.682a46.813,46.813,0,0,0-15.634.352q2.628,3.36,5.258,6.78l-10.258,3.947a56.118,56.118,0,0,0-4.2-6.2,8.984,8.984,0,0,0-2.117,3.119,5.284,5.284,0,0,0-.158,3.623,4.734,4.734,0,0,0,2.233,2.821,12.063,12.063,0,0,0,3.889,1.036,37.185,37.185,0,0,0,4.06.165q2.031-.025,4.1-.241l-.425,9.994a35.46,35.46,0,0,1-15.364-.768,9.966,9.966,0,0,1-7.106-6.5,15.393,15.393,0,0,1-.234-9.912,23.622,23.622,0,0,1,4.968-8.821,26.562,26.562,0,0,0-12.9-2.475l5.858-13.338-11.885.481Z"/><path class="a" d="M-1558.941,1108.4l8.575,2.962a115.274,115.274,0,0,1-5.894,11.774l-.8,45.743-8.811-.153.566-32.433a57.7,57.7,0,0,1-4.459,4.8,39.775,39.775,0,0,0-2.008-4.911,44.08,44.08,0,0,0-2.572-4.858,59.941,59.941,0,0,0,8.681-10.287A63.543,63.543,0,0,0-1558.941,1108.4Zm46.941,57.515-9.255,3.777a38.737,38.737,0,0,0-1.286-5.086q-22.476,1.92-30.674,2.528l-1.4-9.4q.375.006,2.471-.082t3.285-.193a121.146,121.146,0,0,0,5.613-17.154l-10.686-.187.156-8.936,41.494.724-.157,8.936-20.121-.351q-3.746,10.437-6.476,16.452,4.254-.237,13.141-.833-2.351-4.917-4.171-8.074l8.371-3.292a107.481,107.481,0,0,1,6.027,11.045A47.77,47.77,0,0,1-1512,1165.918Zm-3.2-52.876-.154,8.874-33.683-.588.155-8.874Z"/><path class="a" d="M-1558.462,1178.332l12.044-2.415,3.2,13.433,10.4-1.444,2.475,8.607-15.195,14.612a12.512,12.512,0,0,1,4.388,2.89,24.019,24.019,0,0,1,2.812,3.674,4.682,4.682,0,0,0,2.453,2.7,5.21,5.21,0,0,0,3.588.343,12.38,12.38,0,0,0,3.368-1.378,17.114,17.114,0,0,0,3.81-3.4q1.6-1.941,2.751-3.609l7.926,7.889a32.158,32.158,0,0,1-5.614,6.466,28.887,28.887,0,0,1-7.46,4.84,17.961,17.961,0,0,1-8.529,1.569,9.752,9.752,0,0,1-5.309-2.03,23.207,23.207,0,0,1-4.116-4.1,27.526,27.526,0,0,1-3.131-5.086l-1.223-1.522a5.928,5.928,0,0,0-1.571-1.34,2.036,2.036,0,0,0-2.158.087,2.052,2.052,0,0,1-.317.245l-8.268,8.107-8.538-5.025,24.287-23.392-23.774,4.711-.562-10.762,16.354-2.215Z"/><path class="a" d="M-1550.121,1241.834l11.076-.619.8,11.516,18.4-1.429.211,9.443-17.827.689q.4,5.7.615,11.262a98.474,98.474,0,0,1,18.44,7.2l-3.729,9.5a144.413,144.413,0,0,0-14.637-6.569,68.671,68.671,0,0,1-.435,6.993,10.96,10.96,0,0,1-4.471,7.236,13.773,13.773,0,0,1-8.079,2.672,21.871,21.871,0,0,1-6.459-.582,14.4,14.4,0,0,1-5.764-2.851,12.509,12.509,0,0,1-3.786-5.129,16.136,16.136,0,0,1-1.171-6.365,9.89,9.89,0,0,1,2.139-6.089,15.671,15.671,0,0,1,5.043-4.225,24.668,24.668,0,0,1,6.2-2.3,32.9,32.9,0,0,1,6.546-.792q-.25-3.569-.51-6.573Zm3.4,45.317q.249-3.5.249-7.059l-.25-.005q-1.626-.029-3.126.039a12.268,12.268,0,0,0-2.979.511,4.33,4.33,0,0,0-2.374,1.74,4.607,4.607,0,0,0-.861,2.8,5.85,5.85,0,0,0,.956,4.33,4.227,4.227,0,0,0,3.875,1.818,21.757,21.757,0,0,0,2.165-.494,2.537,2.537,0,0,0,1.681-1.408A7.284,7.284,0,0,0-1546.724,1287.151Z"/><path class="a" d="M-1556.528,1328.459a80.64,80.64,0,0,1,8.264-2.543,39.4,39.4,0,0,1,8.584-1.164,19.715,19.715,0,0,1,6.515.989,11.151,11.151,0,0,1,5.4,3.752,12.826,12.826,0,0,1,2.677,6.047,26.189,26.189,0,0,1,.228,6.6,26.1,26.1,0,0,1-2.559,8.738,46.369,46.369,0,0,1-4.792,7.7,57.546,57.546,0,0,1-6.055,6.707l-11.323-3.073q2.04-2.34,3.9-4.745t3.525-4.97q1.669-2.565,3.092-5.26a18.578,18.578,0,0,0,1.914-5.811,4.993,4.993,0,0,0-.537-3.229,4.363,4.363,0,0,0-2.494-2.137,8.376,8.376,0,0,0-3.305-.495,21.954,21.954,0,0,0-5.085,1.224q-2.391.9-4.845,1.853t-4.816,1.947q-2.361.992-4.632,2.139l-1.56-10.9A85.575,85.575,0,0,1-1556.528,1328.459Zm27.865-18.892-1.551,10.1-27.962-2.426,1.877-10.844Z"/><path class="a" d="M-1550.849,1417.355a6.634,6.634,0,0,1,2.244-4.992,7.578,7.578,0,0,1,5.441-1.937,7.58,7.58,0,0,1,5.37,2.126,6.632,6.632,0,0,1,2.068,5.068,6.559,6.559,0,0,1-2.212,4.993,7.7,7.7,0,0,1-5.472,1.874,7.687,7.687,0,0,1-5.4-2.064A6.555,6.555,0,0,1-1550.849,1417.355Zm3.812-10.685-2.271-20.292-.252-10.631,14.06.245-.623,10.616-2.915,20.2Z"/><path class="b" d="M-1514.47,900.131l-16.372-.286a64.431,64.431,0,0,0,18.112,8.068,33.4,33.4,0,0,0-6.323,7.7,61.632,61.632,0,0,1-19.552-11.531l-.208,11.936-9.5-.166.208-11.935a55.155,55.155,0,0,1-19.763,11.344,36.378,36.378,0,0,0-6.051-7.857,60.072,60.072,0,0,0,18.392-7.992l-16.31-.285.139-8,23.809.415.061-3.5-8.123-.142.112-6.436q-6.759,4.008-12.945,7.463l-4.427-7.766q5.29-2.283,15.317-7.3l2.075,6.475.332-19.06,7.249.127a47.368,47.368,0,0,0,1.237-6.354l10.478,1.308q-.654,1.676-2.216,5.212l9.061.158-.1,5.686a62.943,62.943,0,0,0,8.152-8.671l7.916,4.889a85.091,85.091,0,0,1-10.733,9.689l-5.374-3.657-.128,7.311,2.806-3.2q10.282,5.368,14.721,8.946l-5.87,6.836a74.675,74.675,0,0,0-11.735-8.144l-.121,6.937-8.186-.143-.061,3.5,24.059.42Zm-41.389-31.79-6.978,5.88a30.163,30.163,0,0,0-3.976-5.008,57.162,57.162,0,0,0-5.536-5.16l6.467-5.2Q-1558.724,864.1-1555.859,868.341Zm8.647,9.59-.055,3.125,8.186.143.055-3.125Zm8.3-6.293.055-3.125-8.186-.143-.055,3.125Z"/><path class="b" d="M-1562.886,924.2l13.3.982q-1.607,6.1-3.037,12.887a138.228,138.228,0,0,0-2.177,13.651,9.322,9.322,0,0,0,.607,4.636,7.036,7.036,0,0,0,2.97,3.521,9.124,9.124,0,0,0,4.384,1.358,14.131,14.131,0,0,0,4.572-.545,34.81,34.81,0,0,0,5.924-2.772q2.779-1.638,5.5-3.436t5.316-3.72q2.595-1.925,4.624-3.513l5.543,11.911q-3.857,2.433-8.179,4.826t-8.766,4.41a46.2,46.2,0,0,1-9.149,3.06,35.406,35.406,0,0,1-8.355.605,25.705,25.705,0,0,1-8.065-1.7,14.335,14.335,0,0,1-4.88-3.367,12.366,12.366,0,0,1-2.943-5.083,18.579,18.579,0,0,1-.739-6.014A182.979,182.979,0,0,1-1562.886,924.2Z"/><path class="b" d="M-1559.341,1015.437q3.861,4.443,8.1,8.518a58.975,58.975,0,0,0,11.114,7.882,44.464,44.464,0,0,0-7.47,8.934,97.009,97.009,0,0,1-11.525-9.39,55.524,55.524,0,0,1-8.265-9.958Zm-4.8-22.212,19.3-2.413q-1.239-4.273-2.6-8.61l12.526-1.344q.861,4.329,1.788,8.6l13.279-1.581,1.025,9.332-12.467,1.6q.225,1.317.519,2.51a126.129,126.129,0,0,1,2.264,17.1l-16.061-.218-.891-6.266,4.383-.424a76.466,76.466,0,0,0-1.426-11.4l-20.422,2.519Z"/><path class="b" d="M-1568.945,1054.186l16.638-.585,3.712-8.562,9.727,1.42-3.306,6.756,11.384-.426-.669,9.739-15.575.541-2.722,5.516a20.792,20.792,0,0,1,8.863,4.343,34.783,34.783,0,0,1,11.137-2.337,60.477,60.477,0,0,1,11.46.606l-.4,8.682a46.813,46.813,0,0,0-15.634.352q2.628,3.36,5.258,6.78l-10.258,3.947a56.118,56.118,0,0,0-4.2-6.2,8.984,8.984,0,0,0-2.117,3.119,5.284,5.284,0,0,0-.158,3.623,4.734,4.734,0,0,0,2.233,2.821,12.063,12.063,0,0,0,3.889,1.036,37.185,37.185,0,0,0,4.06.165q2.031-.025,4.1-.241l-.425,9.994a35.46,35.46,0,0,1-15.364-.768,9.966,9.966,0,0,1-7.106-6.5,15.393,15.393,0,0,1-.234-9.912,23.622,23.622,0,0,1,4.968-8.821,26.562,26.562,0,0,0-12.9-2.475l5.858-13.338-11.885.481Z"/><path class="b" d="M-1558.941,1108.4l8.575,2.962a115.274,115.274,0,0,1-5.894,11.774l-.8,45.743-8.811-.153.566-32.433a57.7,57.7,0,0,1-4.459,4.8,39.775,39.775,0,0,0-2.008-4.911,44.08,44.08,0,0,0-2.572-4.858,59.941,59.941,0,0,0,8.681-10.287A63.543,63.543,0,0,0-1558.941,1108.4Zm46.941,57.515-9.255,3.777a38.737,38.737,0,0,0-1.286-5.086q-22.476,1.92-30.674,2.528l-1.4-9.4q.375.006,2.471-.082t3.285-.193a121.146,121.146,0,0,0,5.613-17.154l-10.686-.187.156-8.936,41.494.724-.157,8.936-20.121-.351q-3.746,10.437-6.476,16.452,4.254-.237,13.141-.833-2.351-4.917-4.171-8.074l8.371-3.292a107.481,107.481,0,0,1,6.027,11.045A47.77,47.77,0,0,1-1512,1165.918Zm-3.2-52.876-.154,8.874-33.683-.588.155-8.874Z"/><path class="b" d="M-1558.462,1178.332l12.044-2.415,3.2,13.433,10.4-1.444,2.475,8.607-15.195,14.612a12.512,12.512,0,0,1,4.388,2.89,24.019,24.019,0,0,1,2.812,3.674,4.682,4.682,0,0,0,2.453,2.7,5.21,5.21,0,0,0,3.588.343,12.38,12.38,0,0,0,3.368-1.378,17.114,17.114,0,0,0,3.81-3.4q1.6-1.941,2.751-3.609l7.926,7.889a32.158,32.158,0,0,1-5.614,6.466,28.887,28.887,0,0,1-7.46,4.84,17.961,17.961,0,0,1-8.529,1.569,9.752,9.752,0,0,1-5.309-2.03,23.207,23.207,0,0,1-4.116-4.1,27.526,27.526,0,0,1-3.131-5.086l-1.223-1.522a5.928,5.928,0,0,0-1.571-1.34,2.036,2.036,0,0,0-2.158.087,2.052,2.052,0,0,1-.317.245l-8.268,8.107-8.538-5.025,24.287-23.392-23.774,4.711-.562-10.762,16.354-2.215Z"/><path class="b" d="M-1550.121,1241.834l11.076-.619.8,11.516,18.4-1.429.211,9.443-17.827.689q.4,5.7.615,11.262a98.474,98.474,0,0,1,18.44,7.2l-3.729,9.5a144.413,144.413,0,0,0-14.637-6.569,68.671,68.671,0,0,1-.435,6.993,10.96,10.96,0,0,1-4.471,7.236,13.773,13.773,0,0,1-8.079,2.672,21.871,21.871,0,0,1-6.459-.582,14.4,14.4,0,0,1-5.764-2.851,12.509,12.509,0,0,1-3.786-5.129,16.136,16.136,0,0,1-1.171-6.365,9.89,9.89,0,0,1,2.139-6.089,15.671,15.671,0,0,1,5.043-4.225,24.668,24.668,0,0,1,6.2-2.3,32.9,32.9,0,0,1,6.546-.792q-.25-3.569-.51-6.573Zm3.4,45.317q.249-3.5.249-7.059l-.25-.005q-1.626-.029-3.126.039a12.268,12.268,0,0,0-2.979.511,4.33,4.33,0,0,0-2.374,1.74,4.607,4.607,0,0,0-.861,2.8,5.85,5.85,0,0,0,.956,4.33,4.227,4.227,0,0,0,3.875,1.818,21.757,21.757,0,0,0,2.165-.494,2.537,2.537,0,0,0,1.681-1.408A7.284,7.284,0,0,0-1546.724,1287.151Z"/><path class="b" d="M-1556.528,1328.459a80.64,80.64,0,0,1,8.264-2.543,39.4,39.4,0,0,1,8.584-1.164,19.715,19.715,0,0,1,6.515.989,11.151,11.151,0,0,1,5.4,3.752,12.826,12.826,0,0,1,2.677,6.047,26.189,26.189,0,0,1,.228,6.6,26.1,26.1,0,0,1-2.559,8.738,46.369,46.369,0,0,1-4.792,7.7,57.546,57.546,0,0,1-6.055,6.707l-11.323-3.073q2.04-2.34,3.9-4.745t3.525-4.97q1.669-2.565,3.092-5.26a18.578,18.578,0,0,0,1.914-5.811,4.993,4.993,0,0,0-.537-3.229,4.363,4.363,0,0,0-2.494-2.137,8.376,8.376,0,0,0-3.305-.495,21.954,21.954,0,0,0-5.085,1.224q-2.391.9-4.845,1.853t-4.816,1.947q-2.361.992-4.632,2.139l-1.56-10.9A85.575,85.575,0,0,1-1556.528,1328.459Zm27.865-18.892-1.551,10.1-27.962-2.426,1.877-10.844Z"/><path class="b" d="M-1550.849,1417.355a6.634,6.634,0,0,1,2.244-4.992,7.578,7.578,0,0,1,5.441-1.937,7.58,7.58,0,0,1,5.37,2.126,6.632,6.632,0,0,1,2.068,5.068,6.559,6.559,0,0,1-2.212,4.993,7.7,7.7,0,0,1-5.472,1.874,7.687,7.687,0,0,1-5.4-2.064A6.555,6.555,0,0,1-1550.849,1417.355Zm3.812-10.685-2.271-20.292-.252-10.631,14.06.245-.623,10.616-2.915,20.2Z"/></g></svg>