<svg xmlns="http://www.w3.org/2000/svg" width="381.138" height="387.018" viewBox="0 0 381.138 387.018"><defs><style>.a{fill:#fff000;}</style></defs><path class="a" d="M2467.308,822.06l20.257,78.626,45.927-66.956-7.856,80.812,66.057-47.21-35.022,73.252,78.22-21.77-57.963,56.856,80.949,6.3-73.914,33.6,73.914,33.6-80.949,6.3,57.963,56.856-78.22-21.77,35.022,73.252-66.057-47.21,7.856,80.812-45.927-66.956-20.257,78.626-20.257-78.626-45.927,66.956,7.856-80.812-66.057,47.21,35.022-73.252-78.22,21.77,57.963-56.856-80.949-6.3,73.914-33.6-73.914-33.6,80.949-6.3-57.963-56.856,78.22,21.77-35.022-73.252,66.057,47.21-7.856-80.812,45.927,66.956Z" transform="translate(-2276.739 -822.06)"/></svg>