<svg xmlns="http://www.w3.org/2000/svg" width="132.913" height="129.429" viewBox="0 0 132.913 129.429"><defs><style>.a{fill:#ffea00;}.b{fill:#030000;}</style></defs><g transform="translate(-7599.78 243.205)"><path class="a" d="M28.693,33.521,0,39.75,29,55.972l.7,37L43.32,65.542l23.6,7.976L52.533,48.225,72.9,21.849,46.5,29.683,28.865,0l-.172,33.521" transform="translate(7725.549 -177.254) rotate(129)"/><path class="b" d="M48.487,73.114,32.622,105.047l-.8-42.5L0,44.748l28.929-8.626L31.7,0,52.4,30.994l29.083-6.375L61.419,54.008l13.265,27.96-26.2-8.854M73.073,30.379l-22.92,6.8L34.775,11.3l-.149,29.133L8.748,46.053,34.921,60.694l.591,31.5L46.9,69.271l21,7.1L55.032,53.744Z" transform="translate(7732.693 -177.096) rotate(129)"/></g></svg>