<svg xmlns="http://www.w3.org/2000/svg" width="101.322" height="100.384" viewBox="0 0 101.322 100.384"><defs><style>.a{fill:#ffea00;}.b{fill:#030000;}</style></defs><g transform="translate(-7679.04 301.046)"><path class="a" d="M28.189,15.313,10.882,1.338,18.07,25.067,0,39.872l21.562.035,7.062,23.356,7.257-22.68,22.63-4.174L40.059,23.584,49.95,0,28.189,15.313" transform="translate(7772.944 -253.174) rotate(129)"/><path class="b" d="M43.968,48.839,33.82,74.881l-8.4-27.8L0,47.038,21.156,29.7,12.563,1.338,33.334,16.053,59.455,0,49.581,28.165,68.532,42.731,43.968,48.839m6.973-38.253L33.361,22.96,19.7,11.929l5.782,19.09L10.5,43.3l17.711.028,5.715,18.908,5.76-18,19.3-3.561-16-11.118Z" transform="translate(7780.362 -253.922) rotate(129)"/></g></svg>