<svg xmlns="http://www.w3.org/2000/svg" width="119.281" height="130.133" viewBox="0 0 119.281 130.133"><defs><style>.a{fill:#ffea00;}.b{fill:#030000;}</style></defs><g transform="translate(-6555.11 289.218)"><path class="a" d="M2601.147,4329.692l-28.693-6.229,29-16.221.7-37,13.626,27.428,23.6-7.976-14.384,25.293,20.369,26.376-26.4-7.834-17.636,29.682-.172-33.521" transform="matrix(0.899, 0.438, -0.438, 0.899, 6162.118, -5247.284)"/><path class="b" d="M2616.568,4295.75l-15.865-31.933-.8,42.5-31.824,17.8,28.929,8.626,2.772,36.122,20.694-30.994,29.083,6.375-20.059-29.389,13.265-27.96-26.2,8.854m24.586,42.735-22.92-6.8-15.378,25.878-.149-29.133-25.878-5.617L2603,4308.17l.591-31.5,11.388,22.921,21-7.1-12.866,22.625Z" transform="matrix(0.899, 0.438, -0.438, 0.899, 6162.118, -5247.284)"/></g></svg>