<svg xmlns="http://www.w3.org/2000/svg" width="243.596" height="181.406" viewBox="0 0 243.596 181.406"><defs><style>.a{fill:#fff;}.b{fill:#f0f0f0;}</style></defs><g transform="translate(377.649 -3271.297)"><path d="M-223.02,3376.075l-140.252,72.814,134.862-77.865Z"/><path d="M-377.649,3452.7l145.364-87.13-3.317-6.41Z"/><path d="M-377.185,3445.29l135.037-92.491-4.478-7.722Z"/><path d="M-347.39,3417.144l96.985-72.446-1.253-6.386Z"/><path class="a" d="M-238.192,3348.28a34.048,34.048,0,0,0,2.676,5.1q1.088,1.905,2.492,3.906c18.048,25.581,38.6,8.87,38.6,8.87s2.052,15.129,25.326,12.389c23.215-2.735,25.865-22.009,25.878-22.1l-.021-.068a23.836,23.836,0,0,1-8.608,4.271,23.845,23.845,0,0,1-14.137-.573,24.9,24.9,0,0,0,11.583-.3,24.894,24.894,0,0,0,10.449-5.7,31.555,31.555,0,0,0-3.758-7.39,30.137,30.137,0,0,1,4.552,6.632,24.99,24.99,0,0,0,6.517-24.117,25.038,25.038,0,0,0-1.841-4.846,24.981,24.981,0,0,1-7.9,12.634,29.834,29.834,0,0,0,.675-35.5,29.9,29.9,0,0,0-5.293-5.7,24.959,24.959,0,0,1,8.1,6.822,24.864,24.864,0,0,0-3.409-10.295,24.9,24.9,0,0,0-6.4-7.131,25.027,25.027,0,0,0-24.64-3.153A40.417,40.417,0,0,1-170,3291.09a40.491,40.491,0,0,1,3.885,8.665,40.255,40.255,0,0,1,1.76,14.546,41.957,41.957,0,0,0-4.328-15.831c-.965-.463-2.157-1.009-3.527-1.594s-2.918-1.208-4.6-1.82a46.245,46.245,0,0,0-12.071-4.322c-1.394-.289-2.8-.515-4.21-.674-18.879-3.009-40.576,5.681-45.63,25.534a46.2,46.2,0,0,0-1.523,5.287,47.46,47.46,0,0,0,.281,22.016A35.41,35.41,0,0,0-238.192,3348.28Z"/><path class="b" d="M-169.1,3378.544c-23.274,2.74-25.326-12.389-25.326-12.389s-20.548,16.711-38.6-8.87a39.624,39.624,0,0,1-5.688-11.165,28.161,28.161,0,0,1-.812-3.345,61.939,61.939,0,0,1,.723-20.039,50.435,50.435,0,0,1,1.276-4.9,30.206,30.206,0,0,1,1.76-5.563,29.232,29.232,0,0,1,2.662-4.867c10.7-15.385,31.931-20.279,49.028-14.625,1.287.333,2.548.7,3.764,1.081a91.31,91.31,0,0,1,11.626,4.607q-.713-1.431-1.542-2.831a42.112,42.112,0,0,0-10.549-11.863,25.23,25.23,0,0,0-3.428,2.5,24.726,24.726,0,0,0-2.883,2.956,23.86,23.86,0,0,1,2.433-3.253,23.956,23.956,0,0,1,3.016-2.845,42.249,42.249,0,0,0-41.891-4.47,42.25,42.25,0,0,0-4.579,2.373,47.683,47.683,0,0,0-8.487,6.421,29.916,29.916,0,0,1,3.517.362,24.607,24.607,0,0,1,4.869,1.249,21.3,21.3,0,0,1,4.425,2.2c-1.215-.35-2.47-.647-3.75-.922-1.278-.294-2.58-.555-3.888-.809a17.194,17.194,0,0,0-4.031-.158,11.164,11.164,0,0,0-3.8.987l.336-.579c-5.962.6-11.319,3.49-15.705,7.144a30.742,30.742,0,0,0-2.637,2.586,30,30,0,0,0-3.332,4.477,30.2,30.2,0,0,1,3.18-2.073c3.077-1.926,6.512-2.836,10.173-3.8a39.861,39.861,0,0,0-9.527,4.984,31.517,31.517,0,0,0-2.922,2.39,31.424,31.424,0,0,0-1.8,44.408,31.321,31.321,0,0,0,8.52,6.544,29.962,29.962,0,0,1-11.8-7.875,30.391,30.391,0,0,1-3.327-4.332,29.836,29.836,0,0,0,22.382,26.859c.231.061.461.113.694.166a28.6,28.6,0,0,1,2.286-10.5,29.885,29.885,0,0,0-.956,10.781,29.957,29.957,0,0,0,5.7.487,25.043,25.043,0,0,1-5.582.58c.089.682.2,1.364.334,2.05a30.007,30.007,0,0,0,35.3,23.539c.35-.069.7-.147,1.04-.229a25.245,25.245,0,0,1-3.373-2.441,29.579,29.579,0,0,0,4.72,2.091,29.969,29.969,0,0,0,7.183-3.115,28.568,28.568,0,0,1-5.753,3.565,29.808,29.808,0,0,0,29.045-7.245,29.943,29.943,0,0,0,4.832-6.095,24.98,24.98,0,0,1-6.228,9.756q-.81.784-1.669,1.481a31.553,31.553,0,0,0,12.455-.758,31.635,31.635,0,0,0,22.472-38.685c-.006-.025-.014-.05-.019-.075C-143.237,3356.535-145.887,3375.809-169.1,3378.544Z"/><path d="M-249.582,3371.746a25.358,25.358,0,0,0,4.541.727,29.158,29.158,0,0,0,.554,5.1,28.748,28.748,0,0,0,33.825,22.554,28.711,28.711,0,0,0,5.06-1.5,25.108,25.108,0,0,0,27.17-2.514,30.154,30.154,0,0,0,15.967.12,30.308,30.308,0,0,0,21.53-37.063,30.135,30.135,0,0,0-1.262-3.754,23.951,23.951,0,0,0,7.338-24.132,23.924,23.924,0,0,0-3.505-7.572,25.033,25.033,0,0,0-3.96-20.359c-.167-.235-.339-.466-.513-.693a23.816,23.816,0,0,0-3.37-13.11,23.952,23.952,0,0,0-32.308-8.6,40.462,40.462,0,0,0-46.96-3.929,40.352,40.352,0,0,0-11.585,10.4,25.033,25.033,0,0,0-19.069,8.281,25.1,25.1,0,0,0-5.122,8.706q-.926.729-1.806,1.54a30.12,30.12,0,0,0-5.17,38.031A25.094,25.094,0,0,0-249.582,3371.746Zm-11.929-21.925a31.426,31.426,0,0,1,1.8-44.408,31.319,31.319,0,0,1,12.7-7.129,29.951,29.951,0,0,0-13.607,5.634,29.743,29.743,0,0,1,3.335-4.475,29.7,29.7,0,0,1,18.547-9.63c-.118.183-.236.362-.348.545.154-.189.313-.374.472-.56a29.853,29.853,0,0,1,16.13,2.6,24.964,24.964,0,0,0-13.95-4.968,42.2,42.2,0,0,1,8.3-6.476,42.226,42.226,0,0,1,46.471,2.1,23.814,23.814,0,0,0-5.452,6.1,24.933,24.933,0,0,1,6.313-5.459,42.091,42.091,0,0,1,10.548,11.865c.572.957,1.1,1.932,1.588,2.916a.179.179,0,0,0-.025-.011,42.161,42.161,0,0,1,2.956,7.741c.025.1.051.193.076.289.06.226.119.452.175.679a41.893,41.893,0,0,1,1.1,7.045c0-.034,0-.068.005-.1,0,.06.011.119.015.179a40.276,40.276,0,0,0-1.037-11.934,40.473,40.473,0,0,0-4.627-11.355,40.43,40.43,0,0,0-7.356-9.052,25,25,0,0,1,31.035,10.282,24.851,24.851,0,0,1,3.411,10.3,24.9,24.9,0,0,0-8.1-6.824,29.864,29.864,0,0,1,5.294,5.7,29.837,29.837,0,0,1-.677,35.5,24.982,24.982,0,0,0,7.9-12.637,25.138,25.138,0,0,1,1.841,4.846,24.992,24.992,0,0,1-6.517,24.117,30.247,30.247,0,0,0-4.551-6.632,31.573,31.573,0,0,1,3.757,7.391,24.887,24.887,0,0,1-10.45,5.7,24.9,24.9,0,0,1-11.583.3,23.848,23.848,0,0,0,14.138.574,23.9,23.9,0,0,0,8.609-4.271c.013.048.027.093.04.14a31.634,31.634,0,0,1-22.472,38.685,31.5,31.5,0,0,1-12.454.76q.855-.7,1.667-1.479a25,25,0,0,0,6.227-9.759,29.888,29.888,0,0,1-4.834,6.1,29.805,29.805,0,0,1-29.041,7.242,28.531,28.531,0,0,0,5.751-3.566,29.822,29.822,0,0,1-7.182,3.116,29.585,29.585,0,0,1-4.719-2.088,24.922,24.922,0,0,0,3.372,2.439c-.345.082-.69.158-1.04.229a30.007,30.007,0,0,1-35.3-23.539c-.136-.685-.246-1.369-.334-2.05a25.106,25.106,0,0,0,5.581-.58,29.855,29.855,0,0,1-5.7-.487,29.788,29.788,0,0,1,.956-10.78,28.649,28.649,0,0,0-2.286,10.5c-.232-.053-.463-.106-.693-.164a29.837,29.837,0,0,1-22.383-26.861,30.391,30.391,0,0,0,3.325,4.333,29.994,29.994,0,0,0,11.8,7.877A31.386,31.386,0,0,1-261.511,3349.821Zm72.8-14.126A22.329,22.329,0,0,0-176,3326.74a31.58,31.58,0,0,1,4.06,9.151,31.636,31.636,0,0,1-22.473,38.684,31.514,31.514,0,0,1-14.656.376,30.168,30.168,0,0,0,17.887.727,30.311,30.311,0,0,0,21.531-37.063,30.21,30.21,0,0,0-6.285-11.967,22.364,22.364,0,0,0,3.141-18.366,22.325,22.325,0,0,0-5.028-9.284,23.4,23.4,0,0,1,3.336,7.269,23.4,23.4,0,0,1-16.623,28.612,23.263,23.263,0,0,1-10.839.279A22.318,22.318,0,0,0-188.715,3335.7Zm-45.671,2.218c.01.017.019.036.027.053-.005-.017-.009-.034-.014-.053a19.092,19.092,0,0,1,10.325,3.974,16.005,16.005,0,0,0-10.743-5.576,37.744,37.744,0,0,1-1.038-8.072,37.738,37.738,0,0,1,26-36.611,31.733,31.733,0,0,0-28.182,32.162,31.561,31.561,0,0,0,2.829,12.49,15.972,15.972,0,0,0-10.312,2.88,15.943,15.943,0,0,0-4.91,5.538,19.051,19.051,0,0,1,3.663-3.366A18.994,18.994,0,0,1-234.386,3337.913Z"/></g></svg>