<svg xmlns="http://www.w3.org/2000/svg" xmlns:xlink="http://www.w3.org/1999/xlink" width="1919.998" height="2003" viewBox="0 0 1919.998 2003"><defs><style>.a{fill:#ff5abe;stroke:#707070;}.b{clip-path:url(#a);}.c{opacity:0.296;}.d{fill:#fff;}</style><clipPath id="a"><path class="a" d="M0,2003V0H1920V1519.238L0,2003Z" transform="translate(0 0)"/></clipPath></defs><g class="b" transform="translate(0)"><g class="c" transform="translate(960 979.015)"><g transform="translate(-1369.359 -1369.359)"><path class="d" d="M1239.4,2722.159h229.576L1354.188,1352.8Z" transform="translate(15.171 16.559)"/><path class="d" d="M1239.4,0l114.788,1369.359L1468.976,0Z" transform="translate(15.171)"/><path class="d" d="M777,124.5l585.278,1243.335L578.2,239.288Z" transform="translate(7.078 1.524)"/><path class="d" d="M1938.078,2596.135,1352.8,1352.8l784.082,1128.547Z" transform="translate(16.559 16.559)"/><path class="d" d="M2481.347,2136.882,1352.8,1352.8l1243.335,585.278Z" transform="translate(16.559 16.559)"/><path class="d" d="M239.288,578.2l1128.547,784.082L124.5,777Z" transform="translate(1.524 7.078)"/><path class="d" d="M0,1468.976l1369.359-114.788L0,1239.4Z" transform="translate(0 15.171)"/><path class="d" d="M1352.8,1354.188l1369.359,114.788V1239.4Z" transform="translate(16.559 15.171)"/><path class="d" d="M2596.135,777,1352.8,1362.282,2481.347,578.2Z" transform="translate(16.559 7.078)"/><path class="d" d="M124.5,1938.078,1367.835,1352.8,239.288,2136.882Z" transform="translate(1.524 16.559)"/><path class="d" d="M2136.882,239.288,1352.8,1367.835,1938.078,124.5Z" transform="translate(16.559 1.524)"/><path class="d" d="M578.2,2481.347,1362.282,1352.8,777,2596.135Z" transform="translate(7.078 16.559)"/><path class="d" d="M1596.345,2705.255,1352.8,1352.8l465.327,1293.036Z" transform="translate(16.559 16.559)"/><path class="d" d="M1114.881,16.8l243.545,1352.354L893.2,76.117Z" transform="translate(10.934 0.206)"/><path class="d" d="M478.362,316.1,1365.49,1365.49,316.1,478.362Z" transform="translate(3.869 3.869)"/><path class="d" d="M2239.928,2402.292,1352.8,1352.8l1049.491,887.128Z" transform="translate(16.559 16.559)"/><path class="d" d="M2645.836,1818.127,1352.8,1352.8l1352.455,243.545Z" transform="translate(16.559 16.559)"/><path class="d" d="M76.119,893.2l1293.036,465.226L16.7,1114.881Z" transform="translate(0.204 10.934)"/><path class="d" d="M16.8,1596.345,1369.154,1352.8,76.117,1818.127Z" transform="translate(0.206 16.559)"/><path class="d" d="M2705.255,1114.881,1352.8,1358.426,2645.836,893.2Z" transform="translate(16.559 10.934)"/><path class="d" d="M2402.292,478.362,1352.8,1365.49,2239.928,316.1Z" transform="translate(16.559 3.869)"/><path class="d" d="M316.1,2239.928,1365.49,1352.8,478.362,2402.292Z" transform="translate(3.869 16.559)"/><path class="d" d="M1818.127,76.117,1352.8,1369.154,1596.345,16.8Z" transform="translate(16.559 0.206)"/><path class="d" d="M893.1,2645.836,1358.427,1352.8,1114.882,2705.255Z" transform="translate(10.932 16.559)"/></g></g></g></svg>