<svg xmlns="http://www.w3.org/2000/svg" width="243.596" height="181.406" viewBox="0 0 243.596 181.406"><defs><style>.a{fill:#fff;}.b{fill:#f0f0f0;}</style></defs><path d="M-363.272,3376.075l140.252,72.814-134.863-77.865Z" transform="translate(452.239 -3271.297)"/><path d="M-232.285,3452.7l-145.364-87.13,3.317-6.41Z" transform="translate(475.881 -3271.297)"/><path d="M-242.148,3445.29-377.185,3352.8l4.478-7.722Z" transform="translate(485.28 -3271.297)"/><path d="M-250.4,3417.144-347.39,3344.7l1.253-6.386Z" transform="translate(463.742 -3271.297)"/><g transform="translate(0)"><path class="a" d="M-139.014,3348.28a34.048,34.048,0,0,1-2.676,5.1q-1.088,1.905-2.492,3.906c-18.048,25.581-38.6,8.87-38.6,8.87s-2.052,15.129-25.326,12.389c-23.215-2.735-25.865-22.009-25.878-22.1l.021-.068a23.836,23.836,0,0,0,8.608,4.271,23.845,23.845,0,0,0,14.137-.573,24.9,24.9,0,0,1-11.583-.3,24.894,24.894,0,0,1-10.449-5.7,31.555,31.555,0,0,1,3.758-7.39,30.137,30.137,0,0,0-4.552,6.632,24.99,24.99,0,0,1-6.517-24.117,25.038,25.038,0,0,1,1.841-4.846,24.981,24.981,0,0,0,7.9,12.634,29.834,29.834,0,0,1-.675-35.5,29.9,29.9,0,0,1,5.293-5.7,24.959,24.959,0,0,0-8.1,6.822,24.864,24.864,0,0,1,3.409-10.295,24.9,24.9,0,0,1,6.4-7.131,25.027,25.027,0,0,1,24.64-3.153,40.416,40.416,0,0,0-7.355,9.056,40.492,40.492,0,0,0-3.885,8.665,40.255,40.255,0,0,0-1.76,14.546,41.956,41.956,0,0,1,4.328-15.831c.965-.463,2.157-1.009,3.527-1.594s2.918-1.208,4.6-1.82a46.245,46.245,0,0,1,12.071-4.322c1.394-.289,2.8-.515,4.21-.674,18.879-3.009,40.576,5.681,45.63,25.534a46.2,46.2,0,0,1,1.523,5.287,47.46,47.46,0,0,1-.281,22.016A35.41,35.41,0,0,1-139.014,3348.28Z" transform="translate(243.152 -3271.297)"/><path class="b" d="M-242.851,3378.544c23.274,2.74,25.326-12.389,25.326-12.389s20.548,16.711,38.6-8.87a39.624,39.624,0,0,0,5.688-11.165,28.161,28.161,0,0,0,.812-3.345,61.939,61.939,0,0,0-.723-20.039,50.435,50.435,0,0,0-1.276-4.9,30.206,30.206,0,0,0-1.76-5.563,29.232,29.232,0,0,0-2.662-4.867c-10.7-15.385-31.931-20.279-49.028-14.625-1.287.333-2.548.7-3.764,1.081a91.31,91.31,0,0,0-11.626,4.607q.713-1.431,1.542-2.831a42.112,42.112,0,0,1,10.549-11.863,25.231,25.231,0,0,1,3.428,2.5,24.726,24.726,0,0,1,2.883,2.956,23.86,23.86,0,0,0-2.433-3.253,23.956,23.956,0,0,0-3.016-2.845,42.249,42.249,0,0,1,41.891-4.47,42.25,42.25,0,0,1,4.579,2.373,47.684,47.684,0,0,1,8.487,6.421,29.917,29.917,0,0,0-3.517.362,24.607,24.607,0,0,0-4.869,1.249,21.3,21.3,0,0,0-4.425,2.2c1.215-.35,2.47-.647,3.75-.922,1.278-.294,2.58-.555,3.888-.809a17.194,17.194,0,0,1,4.031-.158,11.164,11.164,0,0,1,3.8.987l-.336-.579c5.962.6,11.319,3.49,15.705,7.144a30.742,30.742,0,0,1,2.637,2.586,30,30,0,0,1,3.332,4.477,30.2,30.2,0,0,0-3.18-2.073c-3.077-1.926-6.512-2.836-10.173-3.8a39.861,39.861,0,0,1,9.527,4.984,31.517,31.517,0,0,1,2.922,2.39,31.424,31.424,0,0,1,1.8,44.408,31.321,31.321,0,0,1-8.52,6.544,29.962,29.962,0,0,0,11.8-7.875,30.391,30.391,0,0,0,3.327-4.332,29.836,29.836,0,0,1-22.382,26.859c-.231.061-.461.113-.694.166a28.6,28.6,0,0,0-2.286-10.5,29.885,29.885,0,0,1,.956,10.781,29.957,29.957,0,0,1-5.7.487,25.043,25.043,0,0,0,5.582.58c-.089.682-.2,1.364-.334,2.05a30.008,30.008,0,0,1-35.305,23.539c-.35-.069-.7-.147-1.04-.229a25.245,25.245,0,0,0,3.373-2.441,29.58,29.58,0,0,1-4.72,2.091,29.969,29.969,0,0,1-7.183-3.115,28.568,28.568,0,0,0,5.753,3.565,29.808,29.808,0,0,1-29.045-7.245,29.943,29.943,0,0,1-4.832-6.095,24.98,24.98,0,0,0,6.228,9.756q.81.784,1.669,1.481a31.553,31.553,0,0,1-12.455-.758,31.635,31.635,0,0,1-22.472-38.685c.006-.025.014-.05.019-.075C-268.716,3356.535-266.066,3375.809-242.851,3378.544Z" transform="translate(277.9 -3271.297)"/><path d="M-157.229,3371.746a25.358,25.358,0,0,1-4.541.727,29.158,29.158,0,0,1-.554,5.1,28.748,28.748,0,0,1-33.825,22.554,28.71,28.71,0,0,1-5.06-1.5,25.109,25.109,0,0,1-27.17-2.514,30.154,30.154,0,0,1-15.967.12,30.308,30.308,0,0,1-21.53-37.063,30.132,30.132,0,0,1,1.262-3.754,23.95,23.95,0,0,1-7.338-24.132,23.924,23.924,0,0,1,3.505-7.572,25.033,25.033,0,0,1,3.96-20.359c.167-.235.339-.466.513-.693a23.816,23.816,0,0,1,3.37-13.11,23.952,23.952,0,0,1,32.308-8.6,40.462,40.462,0,0,1,46.96-3.929,40.352,40.352,0,0,1,11.585,10.4,25.033,25.033,0,0,1,19.069,8.281,25.1,25.1,0,0,1,5.122,8.706q.926.729,1.806,1.54a30.12,30.12,0,0,1,5.17,38.031A25.094,25.094,0,0,1-157.229,3371.746Zm11.929-21.925a31.426,31.426,0,0,0-1.8-44.408,31.319,31.319,0,0,0-12.7-7.129,29.951,29.951,0,0,1,13.607,5.634,29.743,29.743,0,0,0-3.335-4.475,29.7,29.7,0,0,0-18.547-9.63c.118.183.236.362.348.545-.154-.189-.313-.374-.472-.56a29.853,29.853,0,0,0-16.13,2.6,24.964,24.964,0,0,1,13.95-4.968,42.2,42.2,0,0,0-8.3-6.476,42.227,42.227,0,0,0-46.471,2.1,23.814,23.814,0,0,1,5.452,6.1,24.933,24.933,0,0,0-6.313-5.459,42.091,42.091,0,0,0-10.548,11.865c-.572.957-1.1,1.932-1.588,2.916a.179.179,0,0,1,.025-.011,42.162,42.162,0,0,0-2.956,7.741c-.025.1-.051.193-.076.289-.06.226-.119.452-.175.679a41.893,41.893,0,0,0-1.1,7.045c0-.034,0-.068-.005-.1,0,.06-.011.119-.015.179a40.276,40.276,0,0,1,1.037-11.934,40.473,40.473,0,0,1,4.627-11.355,40.429,40.429,0,0,1,7.356-9.052,25,25,0,0,0-31.035,10.282,24.851,24.851,0,0,0-3.411,10.3,24.9,24.9,0,0,1,8.1-6.824,29.864,29.864,0,0,0-5.294,5.7,29.837,29.837,0,0,0,.677,35.5,24.982,24.982,0,0,1-7.9-12.637,25.136,25.136,0,0,0-1.841,4.846,24.992,24.992,0,0,0,6.517,24.117,30.247,30.247,0,0,1,4.551-6.632,31.574,31.574,0,0,0-3.757,7.391,24.887,24.887,0,0,0,10.45,5.7,24.9,24.9,0,0,0,11.583.3,23.848,23.848,0,0,1-14.138.574,23.9,23.9,0,0,1-8.609-4.271c-.013.048-.027.093-.04.14a31.634,31.634,0,0,0,22.472,38.685,31.5,31.5,0,0,0,12.454.76q-.855-.7-1.667-1.479a25,25,0,0,1-6.227-9.759,29.888,29.888,0,0,0,4.834,6.1,29.805,29.805,0,0,0,29.041,7.242,28.531,28.531,0,0,1-5.751-3.566,29.822,29.822,0,0,0,7.182,3.116,29.585,29.585,0,0,0,4.719-2.088,24.922,24.922,0,0,1-3.372,2.439c.345.082.69.158,1.04.229a30.007,30.007,0,0,0,35.305-23.539c.136-.685.246-1.369.334-2.05a25.106,25.106,0,0,1-5.581-.58,29.855,29.855,0,0,0,5.7-.487,29.788,29.788,0,0,0-.956-10.78,28.649,28.649,0,0,1,2.286,10.5c.232-.053.463-.106.693-.164a29.837,29.837,0,0,0,22.383-26.861,30.391,30.391,0,0,1-3.325,4.333,29.994,29.994,0,0,1-11.8,7.877A31.386,31.386,0,0,0-145.3,3349.821Zm-72.8-14.126a22.329,22.329,0,0,1-12.719-8.955,31.579,31.579,0,0,0-4.06,9.151,31.636,31.636,0,0,0,22.473,38.684,31.514,31.514,0,0,0,14.656.376,30.168,30.168,0,0,1-17.887.727,30.311,30.311,0,0,1-21.531-37.063,30.209,30.209,0,0,1,6.285-11.967,22.364,22.364,0,0,1-3.141-18.366,22.325,22.325,0,0,1,5.028-9.284,23.4,23.4,0,0,0-3.336,7.269,23.4,23.4,0,0,0,16.623,28.612,23.263,23.263,0,0,0,10.839.279A22.318,22.318,0,0,1-218.1,3335.7Zm45.671,2.218c-.01.017-.019.036-.027.053.005-.017.009-.034.014-.053a19.093,19.093,0,0,0-10.325,3.974,16.005,16.005,0,0,1,10.743-5.576,37.744,37.744,0,0,0,1.038-8.072,37.738,37.738,0,0,0-26-36.611A31.733,31.733,0,0,1-168.8,3323.79a31.561,31.561,0,0,1-2.829,12.49,15.972,15.972,0,0,1,10.312,2.88,15.943,15.943,0,0,1,4.91,5.538,19.051,19.051,0,0,0-3.663-3.366A19,19,0,0,0-172.425,3337.913Z" transform="translate(272.757 -3271.297)"/></g></svg>