<svg xmlns="http://www.w3.org/2000/svg" width="73.613" height="75.234" viewBox="0 0 73.613 75.234"><defs><style>.a{fill:#ffea00;}.b{fill:#231815;}</style></defs><g transform="translate(-6641.705 232.649)"><path class="a" d="M2671.5,4321.342l-15.1-3.09,14.092-10.614-1.926-17.258,12.742,10.922,14.542-7.548-4.789,15.675,10.486,13.013-16.041-1.653-7.675,17.487-6.332-16.934" transform="matrix(0.899, 0.438, -0.438, 0.899, 6162.118, -5247.284)"/><path class="b" d="M2651.944,4319.258l18.161,3.718,7.59,20.294,10.09-18.144,18.057-.353-12.691-15.748,5.805-19-17.384,9.027-15.4-13.2,2.334,20.93-16.564,12.476m20.536-10.762-.977-13.129,9.548,8.187,11.7-6.073-3.773,12.351,8.283,10.279-12.919-1.334-6.368,14.508-5.076-13.574-12.036-2.465Z" transform="matrix(0.899, 0.438, -0.438, 0.899, 6162.118, -5247.284)"/></g></svg>