<svg xmlns="http://www.w3.org/2000/svg" width="70" height="69.652" viewBox="0 0 70 69.652"><defs><style>.a{fill:#1a1311;}.b,.d{fill:#fff;}.c{fill:none;stroke:#fff;stroke-width:3px;}.d{font-size:8px;font-family: 'Noto Sans JP', sans-serif;}</style></defs><g transform="translate(-7821 -3622)"><path class="a" d="M243.763,118.329l5.23,7.167,7.468-4.8,2.286,8.571,8.7-1.776-.967,8.818,8.752,1.484-4.089,7.873,7.624,4.543-6.659,5.865,5.467,6.988-8.33,3.065,2.572,8.49-8.875-.149-.671,8.845-8.222-3.343-3.823,8.006-6.459-6.085-6.459,6.085-3.823-8.006-8.222,3.343-.671-8.845-8.875.149,2.572-8.49-8.33-3.065,5.467-6.988-6.659-5.865,7.624-4.543L212.3,137.8l8.752-1.484-.967-8.818,8.7,1.776,2.286-8.571,7.468,4.8Z" transform="translate(7612.237 3503.671)"/><g transform="translate(7835.379 3639.203)"><g transform="translate(9.075 17.672)"><g transform="translate(0.546)"><path class="b" d="M10.673,25.669l9.037-9.178,9.037,9.178,1.673-2.236L19.709,12,9,23.433Z" transform="translate(-8.767 -8)"/><path class="c" d="M5842.624-37.354H5864.5" transform="translate(-5842.624 37.354)"/></g></g><text class="d" transform="translate(20.621 9)"><tspan x="-18.476" y="0">PAGE TOP</tspan></text></g></g></svg>