<svg xmlns="http://www.w3.org/2000/svg" width="168.752" height="168.032" viewBox="0 0 168.752 168.032"><defs><style>.a{fill:#1a1311;}.b,.d{fill:#fff;}.c{fill:none;stroke:#fff;stroke-width:3px;}.d{font-size:18px;font-family: 'Noto Sans JP', sans-serif;}</style></defs><path class="a" d="M293.139,118.329l12.608,17.291,18-11.569,5.51,20.678,20.966-4.284-2.331,21.272,21.1,3.579-9.858,18.993,18.38,10.959L361.461,209.4l13.18,16.859-20.081,7.395,6.2,20.481-21.4-.359-1.617,21.338-19.822-8.064-9.216,19.313-15.57-14.68-15.57,14.68-9.216-19.313-19.822,8.064-1.617-21.338-21.4.359,6.2-20.481-20.081-7.395,13.18-16.859-16.054-14.15,18.38-10.959L217.285,165.3l21.1-3.579-2.331-21.272,20.966,4.284,5.51-20.678,18,11.569Z" transform="translate(-208.763 -118.329)"/><g transform="translate(-1464 -7144)"><g transform="translate(1525 7229)"><path class="b" d="M12.5,40.619,31.422,21.4l18.92,19.215,3.5-4.682L31.422,12,9,35.937Z" transform="translate(-8.512 -5.718)"/><path class="c" d="M5842.624-37.354h45.8" transform="translate(-5842.624 37.354)"/></g><text class="d" transform="translate(1548 7213)"><tspan x="-41.571" y="0">PAGE TOP</tspan></text></g></svg>