<svg xmlns="http://www.w3.org/2000/svg" width="71.919" height="86" viewBox="0 0 71.919 86"><defs><style>.a{fill:#333;}</style></defs><g transform="translate(-41.914)"><path class="a" d="M113.8,83.982l-.525-2.592c-.064-.346-1.741-8.566-2.613-11.485A14.025,14.025,0,0,0,101.3,61,22.6,22.6,0,0,0,94.553,59.7c-.294-.026-.6-.052-.947-.078-1.909-.486-4.2-2.228-4.2-3.214V51.118a25.558,25.558,0,0,0,2.535-2.881,15.417,15.417,0,0,0,1.528-2.642c.42,2.8,1.842,5.169,2.736,7.586,2.775,7.5,9.32,7.364,9.32,7.364-4.161-2-3.828-6.99-4.161-13.314s5.991-17.309,5.659-27.294S100.531,5.291,96.371,2.794s-8.065.775-8.065.775h0a10.177,10.177,0,0,0-3.318-.79A15.232,15.232,0,0,0,76.216,0a16.635,16.635,0,0,0-3.073.3C67.662,1.358,60.069,6.877,57.38,13.945a23.325,23.325,0,0,0-1.562,12.19A5.458,5.458,0,0,0,54.485,29.3c-.141,1.524-.012,8.438,3.24,12.011a6.889,6.889,0,0,0,2.459,1.767,18.746,18.746,0,0,0,2.189,5.02,22.705,22.705,0,0,0,3.97,4.29v4.021c0,.986-2.305,2.727-4.2,3.214-.345.026-.665.052-.947.078A22.519,22.519,0,0,0,54.447,61a13.969,13.969,0,0,0-9.361,8.9c-.884,2.919-2.548,11.14-2.612,11.485l-.526,2.592A1.683,1.683,0,0,0,43.6,86h68.553A1.683,1.683,0,0,0,113.8,83.982ZM62.411,15.046a6.965,6.965,0,0,1,3.4-4.12,3.741,3.741,0,0,1,.489-.207,7.41,7.41,0,0,0-.717,1.612c-.041.148-.082.3-.123.453l-.076.226.014,0c0,.009,0,.018-.007.028a3.273,3.273,0,0,1,1.7.013,2.672,2.672,0,0,1,.525.179l-.564,1.434L66.928,15l-.03.061H66.9l-.01.026a4.53,4.53,0,0,0,1.537-.064c.133-.031.285-.082.432-.126.089-.02.164-.04.26-.059a5.286,5.286,0,0,1-.334.569c-.064.077-.127.166-.192.243a5.546,5.546,0,0,1-4.046,2.292,3.408,3.408,0,0,1-.865-.012l-.006,0,.14-.357h.013v-.013l.561-1.3.18-.4h-.009l.011-.026s-.4-.039-.986-.039a11.544,11.544,0,0,0-1.282.078l-.125.005A7.875,7.875,0,0,1,62.411,15.046Zm3.151,30.925c-1.434-2.165-1.818-5.007-2.522-6.275-.128.013-.269.026-.384.026-3.842,0-4.533-8.054-4.341-10.065a1.515,1.515,0,0,1,1.677-1.486,1.41,1.41,0,0,1,.178.011.553.553,0,0,1,.069.033c.042.045.083.093.125.135a8.537,8.537,0,0,0,.986,4.315.426.426,0,0,0,.5.179.467.467,0,0,0,.333-.423c0-3.061.14-5.75.192-6.454,1.178-.909,3.278-2.51,5.225-4.008,2.075-1.588,4.046-3.086,4.418-3.368a32.546,32.546,0,0,0,10.054-3.465c.546-.285,1.063-.568,1.518-.84-.2.386-.36.783-.522,1.169-.615,1.459-1.114,2.651-2.472,3.048-.218.051-.461.089-.7.128l.076.64a4.59,4.59,0,0,0,.794-.141c3.966-.764,5.634-1.705,6.486-2.954a4.585,4.585,0,0,0,.321-.522A56.724,56.724,0,0,1,89.342,23.1a.431.431,0,0,0,.166.282,15.9,15.9,0,0,1,2.51,2.933l1.243,6.479a.463.463,0,0,0,.423.358h.026a.441.441,0,0,0,.422-.307,28.3,28.3,0,0,1,1.78-4.43l.051-.129v-.2h0a1.468,1.468,0,0,1,1.446,1.383c.192,1.959-.191,9.527-4.648,9.527-.107,0-.221-.009-.334-.017a2.69,2.69,0,0,1-.321-.043c-.085-.013-.167-.022-.253-.043-.7,1.268-1.217,4.624-3.01,7.082a20.818,20.818,0,0,1-1.767,2.035,19.739,19.739,0,0,1-4.994,3.842A10.462,10.462,0,0,1,77.2,53.18a10.615,10.615,0,0,1-4.918-1.332,20.021,20.021,0,0,1-4.994-3.842A16.676,16.676,0,0,1,65.562,45.971Zm12.306,26.52c-6.915,0-13.273-3.644-15.826-9l.282-.024h.013c.127-.012.256-.026.4-.038s.269-.064.41-.1c2.779-.729,7.043-3.381,7.043-6.915v-.933l.012-.406A13.571,13.571,0,0,0,84.345,55c.1-.052.19-.1.285-.158.044-.026.086-.052.13-.079.268-.157.536-.316.8-.488v2.135c0,3.534,4.264,6.185,7.03,6.915h.012c.141.039.269.077.4.1l.41.038h.013l.217.018.048.01C91.136,68.849,84.782,72.491,77.867,72.491Z" transform="translate(0)"/><g transform="translate(58.069 26.328)"><path class="a" d="M177.776,174.454a11.235,11.235,0,0,1-5.264-1.634,6.4,6.4,0,0,0-7.721,0,11.242,11.242,0,0,1-5.265,1.633,11.1,11.1,0,0,1-6.686-2.537,8.86,8.86,0,0,1-3.543-6.886c0-2.768,3.66-5.1,5.959-5.1,1.708,0,11.78,1.657,13.4,1.925,1.616-.268,11.686-1.925,13.394-1.925,2.3,0,5.959,2.336,5.959,5.1a8.86,8.86,0,0,1-3.543,6.886A11.1,11.1,0,0,1,177.776,174.454Zm-9.124-5.573a10.757,10.757,0,0,1,5.072,1.589,8.9,8.9,0,0,0,4.051,1.339c4.559,0,7.584-4.08,7.584-6.778,0-.847-1.981-2.458-3.314-2.458-1.235,0-9.565,1.322-13.176,1.925a1.324,1.324,0,0,1-.436,0c-3.611-.6-11.942-1.925-13.178-1.925-1.333,0-3.314,1.612-3.314,2.458,0,2.7,3.025,6.778,7.584,6.778a8.9,8.9,0,0,0,4.052-1.339A10.765,10.765,0,0,1,168.652,168.881Z" transform="translate(-149.298 -159.927)"/><g transform="translate(0.793 5.137)"><path class="a" d="M172.989,190.507a91.859,91.859,0,0,1-19.033-2.012.529.529,0,0,1,.246-1.029,90.752,90.752,0,0,0,18.787,1.984,65.139,65.139,0,0,0,17-1.975.529.529,0,0,1,.306,1.013,41.432,41.432,0,0,1-4.685,1.014A77.021,77.021,0,0,1,172.989,190.507Z" transform="translate(-153.55 -187.451)"/></g><path class="a" d="M250.7,182.677a.529.529,0,0,1-.529-.529v-7.03a.529.529,0,0,1,1.058,0v7.03A.529.529,0,0,1,250.7,182.677Z" transform="translate(-231.342 -171.853)"/></g></g></svg>