<svg xmlns="http://www.w3.org/2000/svg" width="86" height="86.028" viewBox="0 0 86 86.028"><defs><style>.a{fill:#333;}</style></defs><g transform="translate(-580.445 -8023.414)"><path class="a" d="M682.617-48.711a25.44,25.44,0,0,0-7.514-5.278l-.008,0a20.97,20.97,0,0,0-1.977-.775l-.066-.022a20.187,20.187,0,0,0-1.993-.551l-.06-.012a19.685,19.685,0,0,0-6.239-.367,12.412,12.412,0,0,0-8.692,4.7,16.789,16.789,0,0,0-3.3,8.8c-.522,5.1-1.409,8.1-5.253,12.365-2.231,2.475-8.585,9.518-6.555,17.372l-2.476,2.476-1.947,1.947L604.67,23.808a3.2,3.2,0,0,0,0,4.52l.9.9a3.2,3.2,0,0,0,4.519,0L641.966-2.638l1.946-1.946,2.477-2.477c7.854,2.031,14.9-4.32,17.372-6.555,4.267-3.844,7.261-4.731,12.365-5.253a16.79,16.79,0,0,0,8.809-3.3,12.377,12.377,0,0,0,4.69-8.687C690.3-37.278,687.874-43.454,682.617-48.711ZM607.375,27.432l-.9-.9a.651.651,0,0,1,0-.919l31.871-31.87,1.823,1.823L608.294,27.432A.65.65,0,0,1,607.375,27.432Zm74.931-53.886q-.3-.965-.721-1.964.764-.374,1.476-.711a8.609,8.609,0,0,1-.5,2.033A6.735,6.735,0,0,1,682.306-26.454Zm-9.531,3.545c-.457.07-.9.141-1.321.214.319-.216.638-.429.956-.633,2.465-1.577,5.078-3.017,7.478-4.242a18.013,18.013,0,0,1,.909,2.783,13.575,13.575,0,0,1-5.13,1.478C674.661-23.2,673.709-23.067,672.775-22.909Zm-15.853,9.053a14.75,14.75,0,0,1-1.91-1.029c-.072-.049-.144-.085-.216-.137l5.037-5.036.505.505.9-.9-.505-.505,3.542-3.542,1.407,1.407.9-.9L665.175-25.4l3.939-3.939,1.407,1.407.9-.9-1.406-1.407,4.642-4.642.442-.439a34,34,0,0,1,3.956,5.961c.009.019.021.037.03.056-2.466,1.257-5.161,2.74-7.7,4.367a66.793,66.793,0,0,0-6.764,5.048,28.9,28.9,0,0,0-3.84,2.962A35.93,35.93,0,0,1,656.922-13.856ZM646-20.188a13.426,13.426,0,0,0,3.161,4.928,13.554,13.554,0,0,0,4.131,2.822c.259.119.516.245.781.348-2.663,1.632-5.852,1.589-7.761-.321S644.361-17.522,646-20.188Zm2.917-.706a14.7,14.7,0,0,1-1.156-2.13,35.838,35.838,0,0,1,3.063-3.848,28.91,28.91,0,0,0,2.961-3.838,66.747,66.747,0,0,0,5.049-6.766c1.626-2.541,3.108-5.233,4.365-7.7a33.812,33.812,0,0,1,5.761,3.782c.086.071.172.133.258.2l-5.08,5.079-1.716-1.718h0l-.019-.019-.9.9,1.736,1.737-3.938,3.939-1.737-1.737-.9.9L658.4-30.37l-3.542,3.542-.835-.835-.9.9.835.835-4.19,4.19Zm7.653-16.655a38.76,38.76,0,0,0,.637-4.212,13.561,13.561,0,0,1,1.476-5.121,17.892,17.892,0,0,1,2.629.849c.052.022.1.037.153.06-1.224,2.4-2.662,5.006-4.238,7.469-.16.25-.329.5-.5.753C656.681-37.684,656.631-37.616,656.575-37.549Zm4.785-10.475c-.337-.131-.681-.268-1.008-.4a8.631,8.631,0,0,1,2.682-.732q-.339.715-.714,1.482C662-47.811,661.68-47.906,661.36-48.025Zm14,9.738-.162.161c-.495-.549-1-1.092-1.534-1.623s-1.065-1.029-1.609-1.52l-.026-.025,3.661-3.662c.554.465,1.106.966,1.655,1.515s1.05,1.1,1.515,1.655Zm-25.3,18.96,5.251-5.251,3.17,3.169-5.253,5.253a21.146,21.146,0,0,1-1.661-1.494A21.315,21.315,0,0,1,650.062-19.326Zm9.694-9.693,3.169,3.17-3.542,3.542-3.17-3.17Zm8.008-1.669-3.939,3.939-3.169-3.17,3.938-3.939Zm.9-.9-3.17-3.17,5.185-5.185c.552.5,1.1,1.009,1.636,1.545s1.041,1.075,1.535,1.624Zm12.121,1.437a36.218,36.218,0,0,0-4.332-6.526l3.579-3.578a16.227,16.227,0,0,1,3.115,8.977C682.412-30.937,681.618-30.56,680.785-30.151Zm-6.627-15.971-3.576,3.575a36.212,36.212,0,0,0-6.528-4.327c.409-.835.788-1.631,1.13-2.367a16.088,16.088,0,0,1,8.507,2.809C673.848-46.328,674-46.231,674.158-46.122Z" transform="translate(-23.289 8079.235)"/><circle class="a" cx="13" cy="13" r="13" transform="translate(626.445 8083.442)"/></g></svg>