<svg xmlns="http://www.w3.org/2000/svg" width="161.618" height="120.357" viewBox="0 0 161.618 120.357"><defs><style>.a{fill:#fff;}.b{fill:#f0f0f0;}</style></defs><g transform="translate(0 0)"><path d="M-270.22,3374.375l-93.053,48.31,89.477-51.661Z" transform="translate(372.811 -3304.859)"/><path d="M-377.649,3421.224l96.444-57.808-2.2-4.253Z" transform="translate(377.649 -3300.867)"/><path d="M-377.185,3411.565l89.593-61.365-2.971-5.124Z" transform="translate(377.493 -3296.126)"/><path d="M-347.39,3390.614l64.347-48.066-.831-4.237Z" transform="translate(367.466 -3293.85)"/><g transform="translate(69.592 0)"><path class="a" d="M-239.271,3325.346a22.6,22.6,0,0,0,1.775,3.383q.722,1.263,1.653,2.591c11.974,16.972,25.607,5.885,25.607,5.885s1.361,10.038,16.8,8.219c15.4-1.814,17.161-14.6,17.169-14.663l-.014-.045a15.816,15.816,0,0,1-5.711,2.833,15.824,15.824,0,0,1-9.379-.38,16.517,16.517,0,0,0,7.685-.2,16.511,16.511,0,0,0,6.933-3.78,20.947,20.947,0,0,0-2.493-4.9,20,20,0,0,1,3.02,4.4,16.58,16.58,0,0,0,4.324-16,16.607,16.607,0,0,0-1.221-3.215,16.575,16.575,0,0,1-5.242,8.382,19.794,19.794,0,0,0,.448-23.552,19.842,19.842,0,0,0-3.512-3.783,16.564,16.564,0,0,1,5.371,4.526,16.5,16.5,0,0,0-2.262-6.83,16.523,16.523,0,0,0-4.244-4.731,16.6,16.6,0,0,0-16.348-2.092,26.811,26.811,0,0,1,4.88,6.008,26.865,26.865,0,0,1,2.578,5.749,26.709,26.709,0,0,1,1.168,9.651,27.833,27.833,0,0,0-2.871-10.5c-.64-.307-1.431-.669-2.34-1.058s-1.936-.8-3.049-1.208a30.688,30.688,0,0,0-8.009-2.868c-.925-.192-1.858-.342-2.793-.447-12.526-2-26.921,3.769-30.274,16.941a30.659,30.659,0,0,0-1.01,3.508,31.488,31.488,0,0,0,.186,14.607A23.493,23.493,0,0,0-239.271,3325.346Z" transform="translate(262.204 -3274.27)"/><path class="b" d="M-202.994,3343.719c-15.442,1.818-16.8-8.22-16.8-8.22s-13.633,11.087-25.607-5.885a26.288,26.288,0,0,1-3.774-7.408,18.7,18.7,0,0,1-.539-2.219,41.1,41.1,0,0,1,.48-13.3,33.5,33.5,0,0,1,.847-3.25,20.034,20.034,0,0,1,1.168-3.69,19.4,19.4,0,0,1,1.766-3.229c7.1-10.207,21.185-13.454,32.529-9.7.854.221,1.691.462,2.5.717a60.628,60.628,0,0,1,7.713,3.057q-.473-.949-1.023-1.878a27.946,27.946,0,0,0-7-7.871,16.751,16.751,0,0,0-2.274,1.659,16.4,16.4,0,0,0-1.913,1.961,15.807,15.807,0,0,1,1.614-2.158,15.883,15.883,0,0,1,2-1.888,28.031,28.031,0,0,0-27.793-2.966,28.06,28.06,0,0,0-3.038,1.575,31.631,31.631,0,0,0-5.631,4.26,19.928,19.928,0,0,1,2.333.24,16.366,16.366,0,0,1,3.23.829,14.172,14.172,0,0,1,2.936,1.459c-.806-.232-1.639-.429-2.488-.612s-1.712-.368-2.58-.537a11.414,11.414,0,0,0-2.674-.1,7.409,7.409,0,0,0-2.521.655l.223-.384a19.6,19.6,0,0,0-10.42,4.74,20.383,20.383,0,0,0-1.75,1.716,19.9,19.9,0,0,0-2.211,2.97,20.039,20.039,0,0,1,2.11-1.375,23.834,23.834,0,0,1,6.749-2.524,26.437,26.437,0,0,0-6.321,3.307,20.9,20.9,0,0,0-1.939,1.586,20.848,20.848,0,0,0-1.2,29.463,20.779,20.779,0,0,0,5.653,4.342,19.883,19.883,0,0,1-7.826-5.225,20.173,20.173,0,0,1-2.207-2.874,19.8,19.8,0,0,0,14.85,17.82c.153.041.306.075.46.11a18.978,18.978,0,0,1,1.517-6.969,19.828,19.828,0,0,0-.634,7.153,19.886,19.886,0,0,0,3.782.323,16.633,16.633,0,0,1-3.7.385c.059.452.131.9.222,1.36a19.909,19.909,0,0,0,23.424,15.618c.232-.046.461-.1.69-.152a16.763,16.763,0,0,1-2.238-1.62,19.616,19.616,0,0,0,3.132,1.387,19.887,19.887,0,0,0,4.766-2.067,18.929,18.929,0,0,1-3.817,2.365,19.777,19.777,0,0,0,19.27-4.807,19.852,19.852,0,0,0,3.206-4.044,16.574,16.574,0,0,1-4.132,6.473q-.537.52-1.107.982a20.938,20.938,0,0,0,8.263-.5,20.989,20.989,0,0,0,14.909-25.666c0-.017-.009-.033-.013-.05C-185.834,3329.117-187.592,3341.9-202.994,3343.719Z" transform="translate(271.766 -3272.564)"/><path d="M-257.381,3337.941a16.831,16.831,0,0,0,3.013.482,19.346,19.346,0,0,0,.368,3.382,19.074,19.074,0,0,0,22.442,14.964,19.052,19.052,0,0,0,3.357-1,16.659,16.659,0,0,0,18.026-1.668,20.007,20.007,0,0,0,10.594.08A20.108,20.108,0,0,0-185.3,3329.6a19.972,19.972,0,0,0-.837-2.491,15.89,15.89,0,0,0,4.869-16.011,15.87,15.87,0,0,0-2.325-5.024,16.608,16.608,0,0,0-2.627-13.507c-.111-.156-.225-.31-.34-.46a15.8,15.8,0,0,0-2.236-8.7,15.891,15.891,0,0,0-21.435-5.7,26.845,26.845,0,0,0-31.156-2.607,26.769,26.769,0,0,0-7.686,6.9,16.607,16.607,0,0,0-12.652,5.494,16.648,16.648,0,0,0-3.4,5.776q-.614.483-1.2,1.021a19.984,19.984,0,0,0-3.43,25.232A16.649,16.649,0,0,0-257.381,3337.941ZM-265.3,3323.4a20.85,20.85,0,0,1,1.2-29.463,20.782,20.782,0,0,1,8.428-4.73,19.874,19.874,0,0,0-9.028,3.738,19.736,19.736,0,0,1,2.213-2.969,19.7,19.7,0,0,1,12.305-6.389c-.078.122-.157.24-.231.362.1-.125.208-.249.313-.372a19.81,19.81,0,0,1,10.7,1.728,16.563,16.563,0,0,0-9.255-3.3,28.014,28.014,0,0,1,5.5-4.3,28.017,28.017,0,0,1,30.832,1.392,15.8,15.8,0,0,0-3.617,4.048,16.545,16.545,0,0,1,4.188-3.622,27.924,27.924,0,0,1,7,7.872c.38.635.729,1.282,1.054,1.935l-.017-.007a27.98,27.98,0,0,1,1.961,5.136c.017.064.034.128.05.192.04.15.079.3.116.451a27.788,27.788,0,0,1,.73,4.674c0-.022,0-.045,0-.067,0,.04.007.079.01.119a26.723,26.723,0,0,0-.688-7.918,26.854,26.854,0,0,0-3.07-7.534,26.815,26.815,0,0,0-4.88-6.005,16.588,16.588,0,0,1,20.591,6.822,16.488,16.488,0,0,1,2.263,6.832,16.519,16.519,0,0,0-5.371-4.527,19.8,19.8,0,0,1,3.512,3.782,19.8,19.8,0,0,1-.449,23.554,16.574,16.574,0,0,0,5.243-8.384,16.681,16.681,0,0,1,1.221,3.215,16.581,16.581,0,0,1-4.324,16,20.074,20.074,0,0,0-3.019-4.4,20.951,20.951,0,0,1,2.493,4.9,16.512,16.512,0,0,1-6.933,3.78,16.517,16.517,0,0,1-7.685.2,15.822,15.822,0,0,0,9.38.381,15.854,15.854,0,0,0,5.712-2.834c.009.032.018.062.027.093a20.989,20.989,0,0,1-14.909,25.667,20.9,20.9,0,0,1-8.263.5q.567-.464,1.106-.981a16.588,16.588,0,0,0,4.131-6.475,19.841,19.841,0,0,1-3.207,4.046,19.776,19.776,0,0,1-19.268,4.8,18.919,18.919,0,0,0,3.816-2.366,19.775,19.775,0,0,1-4.765,2.067,19.59,19.59,0,0,1-3.131-1.385,16.533,16.533,0,0,0,2.237,1.618c-.229.055-.458.1-.69.152a19.909,19.909,0,0,1-23.424-15.617q-.135-.682-.222-1.36a16.685,16.685,0,0,0,3.7-.385,19.844,19.844,0,0,1-3.782-.323,19.764,19.764,0,0,1,.634-7.152,19.007,19.007,0,0,0-1.517,6.968c-.154-.035-.307-.07-.46-.109a19.8,19.8,0,0,1-14.85-17.821,20.167,20.167,0,0,0,2.206,2.875,19.9,19.9,0,0,0,7.828,5.226A20.828,20.828,0,0,1-265.3,3323.4Zm48.3-9.372a14.817,14.817,0,0,0,8.439-5.941,20.946,20.946,0,0,1,2.694,6.071,20.99,20.99,0,0,1-14.91,25.666,20.905,20.905,0,0,1-9.724.25,20.016,20.016,0,0,0,11.867.482,20.11,20.11,0,0,0,14.285-24.59,20.041,20.041,0,0,0-4.17-7.939,14.839,14.839,0,0,0,2.084-12.186,14.811,14.811,0,0,0-3.336-6.159,15.521,15.521,0,0,1,2.213,4.823,15.524,15.524,0,0,1-11.029,18.983,15.439,15.439,0,0,1-7.191.185A14.808,14.808,0,0,0-217,3314.023Zm-30.3,1.472a.322.322,0,0,1,.018.035l-.009-.035a12.667,12.667,0,0,1,6.85,2.636,10.618,10.618,0,0,0-7.128-3.7,25.043,25.043,0,0,1-.689-5.355,25.038,25.038,0,0,1,17.249-24.291,21.054,21.054,0,0,0-18.7,21.338,20.942,20.942,0,0,0,1.877,8.287,10.594,10.594,0,0,0-6.842,1.911,10.577,10.577,0,0,0-3.258,3.674,12.635,12.635,0,0,1,2.43-2.233A12.6,12.6,0,0,1-247.3,3315.495Z" transform="translate(272.757 -3271.297)"/></g></g></svg>