<svg xmlns="http://www.w3.org/2000/svg" width="1920" height="1329" viewBox="0 0 1920 1329"><defs><style>.a{fill:#040000;}</style></defs><g transform="translate(134.357 188.683)"><path class="a" d="M1647.677,511.317h5.748l-192.4-115.465Z" transform="translate(-60 629)"/><path class="a" d="M1664.683,511.317h6.51L1434.823,372.7Z" transform="translate(-60 629)"/><path class="a" d="M1845.643,339.2v-2.145l-309.129-77.8Z" transform="translate(-60 454.403)"/><path class="a" d="M1546.66,511.317h2.394l-72.889-51.474Z" transform="translate(-60 629)"/><path class="a" d="M1354.21,356.188,1581.2,511.317h4.782Z" transform="translate(-60 629)"/><path class="a" d="M1417,440.141l92.082,71.176h2.628Z" transform="translate(-49.372 629)"/><path class="a" d="M1845.643,351.1,1754.4,326.565l91.242,25.328Z" transform="translate(-60 480.368)"/><path class="a" d="M1359.385,402.471l137.665,108.846h3.471Z" transform="translate(-48.739 629)"/><path class="a" d="M1845.643,314.385v-.394L1814.86,307.3Z" transform="translate(-60 450.234)"/><path class="a" d="M1845.643,294.046v-1.681L1653.089,255.82Z" transform="translate(-60 422.49)"/><path class="a" d="M1711.22,259.908l-7.066-.113,141.489,26.388v-4.362l-245.3-42.864Z" transform="translate(-60 412.066)"/><path class="a" d="M1845.643,287.75l-221.729-40.592,221.729,42.772Z" transform="translate(-60 417.122)"/><path class="a" d="M1766.47,306.349l-6.439-.119,85.613,21.206v-4.652L1649.865,277.5Z" transform="translate(-60 451.076)"/><path class="a" d="M1726.49,304.959l119.153,30.375v-1.262Z" transform="translate(-60 463.694)"/><path class="a" d="M1625.868,308.919l219.775,68.2v-2.349Z" transform="translate(-60 495.397)"/><path class="a" d="M1832.925,356.451,1572.6,283.526l273.048,79.148V360Z" transform="translate(-60 478.407)"/><path class="a" d="M1554.381,296.276l291.262,95.539v-2.7Z" transform="translate(-60 504.647)"/><path class="a" d="M1418.029,407.549,1565.99,511.317h4.026Z" transform="translate(-60 629)"/><path class="a" d="M1771.013-188.683h-7.46l-319.6,166.6Z" transform="translate(-60)"/><path class="a" d="M1397.092,443.918l82.669,67.4h3.328Z" transform="translate(-48.515 629)"/><path class="a" d="M1845.643-117.709v-.847l-33.3,13.345Z" transform="translate(-60)"/><path class="a" d="M1720.474-188.683h-3.231l-139.03,77.3Z" transform="translate(-60)"/><path class="a" d="M1738.059-188.683h-1.183l-48.719,26.451Z" transform="translate(-60)"/><path class="a" d="M1845.643-39.839v-2.7L1642.005,16.517Z" transform="translate(-60 143.42)"/><path class="a" d="M1754.051-55.915l91.593-31.124v-2.648l-66.12,23.213Z" transform="translate(-60)"/><path class="a" d="M1722.161-40.037,1845.643-81.1v-3.589L1498.267,34.245Z" transform="translate(-60)"/><path class="a" d="M1569.375-6.81l276.268-101.161v-4.252L1709.574-60.68Z" transform="translate(-60)"/><path class="a" d="M1447.592,511.317,1318.373,402.129,1443.1,511.317Z" transform="translate(-47.096 629)"/><path class="a" d="M1404.2,511.317l-20.854-19.191,20.282,19.191Z" transform="translate(-46.481 629)"/><path class="a" d="M1391.739,447.042l77.341,64.275h1.8Z" transform="translate(-48.171 629)"/><path class="a" d="M1405.837-188.683l-42.894,40.047-78.68,74.851,127.221-114.9Z" transform="translate(-45.94)"/><path class="a" d="M1336.916,408.748l120.9,102.569h3.059Z" transform="translate(-47.562 629)"/><path class="a" d="M1450.169,511.317h3.111l-86.185-72.3Z" transform="translate(-47.569 629)"/><path class="a" d="M1601.153-130.513l105.043-58.17H1703.5Z" transform="translate(-60)"/><path class="a" d="M1387.4-188.683h-3.895l-73.438,73.313Z" transform="translate(-45.55)"/><path class="a" d="M856.768-133.757l2.275-4.116-.48-50.81H853.4Z" transform="translate(-30.018)"/><path class="a" d="M430.1,511.317h2.453l98.13-108.9Z" transform="translate(-18.02 629)"/><path class="a" d="M640.923,511.317h.835l12.053-26.341Z" transform="translate(-23.647 629)"/><path class="a" d="M-134.357,430.938v2.432L160.306,327.927Z" transform="translate(0 629)"/><path class="a" d="M-134.357,414.714,65.317,347.3-134.357,412.62Z" transform="translate(0 629)"/><path class="a" d="M903.214-188.683l-1.151,37.661,2.064-37.661Z" transform="translate(-31.44)"/><path class="a" d="M-89.944,511.317H-88.4L-44.239,490.3Z" transform="translate(0 629)"/><path class="a" d="M779.612,511.317l8.833-48.991-10.432,48.991Z" transform="translate(-27.794 629)"/><path class="a" d="M1845.643-37.4v-1.937L1699.053,3.089Z" transform="translate(-60 142.857)"/><path class="a" d="M-134.357,478.768v1.394l112.985-46.917Z" transform="translate(0 629)"/><path class="a" d="M-134.357,484.228v.084l6.35-2.672Z" transform="translate(0 629)"/><path class="a" d="M199.747,396.789-28.97,511.317h11.307l130.915-68.556Z" transform="translate(0 629)"/><path class="a" d="M-134.357,490.4v2.359l165.5-71.227Z" transform="translate(0 629)"/><path class="a" d="M-92.444,478.51l-41.913,17.55v4.1l254.85-111.187Z" transform="translate(0 629)"/><path class="a" d="M912.22-188.683l-1.858,68.332,4.879-68.332Z" transform="translate(-31.736)"/><path class="a" d="M-134.357,459.768v2.123l242.378-95Z" transform="translate(0 629)"/><path class="a" d="M-87.3,436.212l-47.061,17.612v2.6l15.785-6.132Z" transform="translate(0 629)"/><path class="a" d="M-134.357,439.654V442.1l276-101.777Z" transform="translate(0 629)"/><path class="a" d="M1417.525-96.952l130.056-91.731h-2.955Z" transform="translate(-50.333)"/><path class="a" d="M1795.165,6.993l50.479-11.7v-.339Z" transform="translate(-60 167.897)"/><path class="a" d="M951.247-155.678l5.024-33h-.912Z" transform="translate(-32.981)"/><path class="a" d="M1755.539,2.115l90.1-22.866v-.607Z" transform="translate(-60 155.57)"/><path class="a" d="M1845.643-131.95v-2.017L1621.086-42.982Z" transform="translate(-60)"/><path class="a" d="M1845.643,331.044v-2.391L1533.206,253.72Z" transform="translate(-60 446.896)"/><path class="a" d="M1845.643,170.162l-276.885-3.872,276.885,5.467Z" transform="translate(-60 321.479)"/><path class="a" d="M1845.643,269.148v-1.385l-246.621-38.291Z" transform="translate(-60 398.318)"/><path class="a" d="M1579.989-29.479l265.654-106.945v-2.247Z" transform="translate(-60)"/><path class="a" d="M1845.643,220.194,1607.514,199.82l238.129,22.04Z" transform="translate(-60 360.447)"/><path class="a" d="M1174.27-120.265l47.308-68.418H1220.2Z" transform="translate(-40.626)"/><path class="a" d="M1438.743-178.291l12.461-10.392h-.294Z" transform="translate(-47.972)"/><path class="a" d="M1458-168.752l25.351-19.931h-.825Z" transform="translate(-60)"/><path class="a" d="M1662-86.151l183.645-80.509v-1.814Z" transform="translate(-60)"/><path class="a" d="M1104.878-151.535l18.072-37.148h-2.4Z" transform="translate(-37.899)"/><path class="a" d="M1586.055-130.741l101.9-57.942H1685.6Z" transform="translate(-60)"/><path class="a" d="M1465.562-148.278l54.829-40.405h-1.469Z" transform="translate(-60)"/><path class="a" d="M1821.355,294.016l24.289,4.969v-.209Z" transform="translate(-60 436.841)"/><path class="a" d="M1845.643,67.445v-1.31L1590.4,101.02Z" transform="translate(-60 240.982)"/><path class="a" d="M1228.675,511.317h1.689l-52.213-74.127Z" transform="translate(-40.85 629)"/><path class="a" d="M1285.04,511.317h5.255l-80.24-94.82Z" transform="translate(-42.461 629)"/><path class="a" d="M1236.495,476.8l25.477,34.52h3.466Z" transform="translate(-42.157 629)"/><path class="a" d="M1184.386,469.683l26.091,41.634h1.861Z" transform="translate(-40.534 629)"/><path class="a" d="M1193.225-188.683l-57.75,94.2,60.274-94.2Z" transform="translate(-39.688)"/><path class="a" d="M1216.954,511.317h1.8l-35.042-50.74Z" transform="translate(-40.661 629)"/><path class="a" d="M1155.983,511.317h.488l-6.557-11.488Z" transform="translate(-39.047 629)"/><path class="a" d="M1138.842,511.317h.029l-.614-1.186Z" transform="translate(-38.576 629)"/><path class="a" d="M1146.322,430.432l49.4,80.885h3.725Z" transform="translate(-39.878 629)"/><path class="a" d="M1222.531,511.317h1.8l-36.043-51.848Z" transform="translate(-40.823 629)"/><path class="a" d="M1505.873-188.683h-1.153l-17.556,13.6Z" transform="translate(-60)"/><path class="a" d="M1534.857-188.683h-5.819L1335.306-45.64Z" transform="translate(-49.527)"/><path class="a" d="M1350.971-77.234l41.785-30.252,106.055-81.2h-6.448Z" transform="translate(-48.642)"/><path class="a" d="M1573.342-188.683l-10.122,7.062,10.494-7.062Z" transform="translate(-60)"/><path class="a" d="M1470.774-188.683h-2.992l-50.893,42.307Z" transform="translate(-48.323)"/><path class="a" d="M1291.107-188.683h-1.349l-42.534,52.043Z" transform="translate(-42.815)"/><path class="a" d="M1275.81-188.683h-1.549l-57.654,73.332Z" transform="translate(-42.2)"/><path class="a" d="M1303.55-188.683l-75.986,90.756,79.509-90.756Z" transform="translate(-42.997)"/><path class="a" d="M1845.643,409.344v-2.4L1494.424,286.35Z" transform="translate(-60 629)"/><path class="a" d="M1783.71,403.346l61.933,23.279v-2.713l-56.778-20.57Z" transform="translate(-60 629)"/><path class="a" d="M1502.654,309.135l342.99,135.735v-4.79l-198.93-76.3Z" transform="translate(-60 629)"/><path class="a" d="M1845.643,448.055v-1.667l-98.6-38.005Z" transform="translate(-60 629)"/><path class="a" d="M1764.495-24.561l81.148-23.5v-2.659l-143.6,43.052Z" transform="translate(-60 132.092)"/><path class="a" d="M1162.585-188.683h-.043l-.732,1.34Z" transform="translate(-39.293)"/><path class="a" d="M1746.772,229.3l98.871,11.987v-.562Z" transform="translate(-60 382.13)"/><path class="a" d="M933.294-188.683l-6.35,69.926,7.8-69.926Z" transform="translate(-32.288)"/><path class="a" d="M1594.313-188.683h-1.035l-22.425,14.972Z" transform="translate(-60)"/><path class="a" d="M1845.643,244.957l-26.474-3.2,26.474,3.4Z" transform="translate(-60 388.67)"/><path class="a" d="M1100.97-188.683h-1.908L1066.992-112Z" transform="translate(-37.04)"/><path class="a" d="M959.122,430.889l12.962,80.428h1.9Z" transform="translate(-33.386 629)"/><path class="a" d="M1072.02-188.683H1072l-.076.21Z" transform="translate(-36.556)"/><path class="a" d="M1182.5-188.683l-15.128,25.635,15.708-25.635Z" transform="translate(-39.762)"/><path class="a" d="M1067.684-124.963l27.529-63.72h-1.722Z" transform="translate(-36.939)"/><path class="a" d="M989.086-188.683h-.2l-2.041,10.3Z" transform="translate(-34.014)"/><path class="a" d="M1007.965-188.683l-7.153,30.313-8.785,45.256,17.124-57.538,4.862-18.031Z" transform="translate(-34.516)"/><path class="a" d="M1032.778-188.683l-5.451,19.621,6.067-19.621Z" transform="translate(-35.311)"/><path class="a" d="M1048.43,444.073l24.312,67.244h1.676Z" transform="translate(-36.319 629)"/><path class="a" d="M1845.643,159.94v-1.18l-217.238.533Z" transform="translate(-60 312.729)"/><path class="a" d="M-108.386,511.317,134.522,398.924l-248.18,112.393Z" transform="translate(0 629)"/><path class="a" d="M1845.643,179.013v-.845l-117.292-2.854Z" transform="translate(-60 328.815)"/><path class="a" d="M1845.643,141.423v-.294l-22.374.768Z" transform="translate(-60 296.686)"/><path class="a" d="M1845.643,32.817V30.943L1693.02,59.735Z" transform="translate(-60 205.815)"/><path class="a" d="M1775.34,138.526l70.3-1.346v-2.8L1628.5,142.506Z" transform="translate(-60 293.704)"/><path class="a" d="M1845.643,46.668V45.179L1608.2,84.906Z" transform="translate(-60 222.785)"/><path class="a" d="M1845.643,64.455V62.86L1704.222,83.581Z" transform="translate(-60 232.925)"/><path class="a" d="M1743.865,54.086l101.778-17.609V33.182L1621.771,74.865Z" transform="translate(-60 211.985)"/><path class="a" d="M1550.189,78.287l295.454-59.041V16.565l-45.609,9.556Z" transform="translate(-60 202.265)"/><path class="a" d="M1614.682,134.462l230.961-11.628v-1.39Z" transform="translate(-60 283.952)"/><path class="a" d="M1845.643-60.725v-.714L1784.462-42Z" transform="translate(-60 127.98)"/><path class="a" d="M1772.572,194.891l73.072,4.435v-.482Z" transform="translate(-60 346.866)"/><path class="a" d="M1717.205,182.313l128.438,5.63V185.6l-230.7-8.285Z" transform="translate(-60 333.946)"/><path class="a" d="M1845.643,164.849l-226.125-1.2,226.125,2.674Z" transform="translate(-60 317.814)"/><path class="a" d="M1845.643,149.657v-1.508l-271.235,4.836Z" transform="translate(-60 304.773)"/><path class="a" d="M1845.643,175.222v-1.01l-193.154-3.763Z" transform="translate(-60 324.922)"/><path class="a" d="M1646.427-188.683h-6.506L1399.061-39.228Z" transform="translate(-60)"/><path class="a" d="M1450.283-4.038l158.9-72.81L1845.643-186.06v-2.623H1835.26L1543.837-49.607Z" transform="translate(-60)"/><path class="a" d="M1845.643-30.133v-1.694l-193.129,53Z" transform="translate(-60 152.493)"/><path class="a" d="M1845.643-8.942V-10.32L1632.128,41.94Z" transform="translate(-60 173.202)"/><path class="a" d="M1845.643,62.333V61.085l-67.623,9.829Z" transform="translate(-60 227.631)"/><path class="a" d="M1449.785-7.872l381-180.811H1818.36L1475.4-21.591Z" transform="translate(-60)"/><path class="a" d="M1509.337-115.232l121.169-73.452H1620.5l-125.848,80.556Z" transform="translate(-60)"/><path class="a" d="M1845.643-172.046v-1.106l-47.829,22.274Z" transform="translate(-60)"/><path class="a" d="M1845.643,218.988V218.2l-70.737-5.742Z" transform="translate(-60 363.848)"/><path class="a" d="M1804.042-160.661l41.6-18.757v-3.116l-60.507,28.223Z" transform="translate(-60)"/><path class="a" d="M1723.369,87.661l122.274-15.083v-.785Z" transform="translate(-60 239.484)"/><path class="a" d="M1688.246,96.252l157.4-18.157V76.438Z" transform="translate(-60 245.17)"/><path class="a" d="M1617.529,197.232l228.115,19.441v-1.73Z" transform="translate(-60 356.678)"/><path class="a" d="M1695.356,98.546l150.287-16.48v-.983Z" transform="translate(-60 248.606)"/><path class="a" d="M1845.643,58.738V58.05l-55.215,8.562Z" transform="translate(-60 224.453)"/><path class="a" d="M1713.176,117.733l132.467-9.473v-.753Z" transform="translate(-60 270.093)"/><path class="a" d="M1845.643,114.749v-.929L1711.7,123.046Z" transform="translate(-60 275.451)"/><path class="a" d="M1845.643,97.821V96.99l-127.5,11.9Z" transform="translate(-60 261.135)"/><path class="a" d="M1433.355-188.683l-18.786,16.669,3.559-.2-9.381,10.951,32.622-27.418Z" transform="translate(-47.544)"/><path class="a" d="M120.441-161.012,72.589-188.683H71.427Z"/><path class="a" d="M473.5-143.5l-41-45.185h-1.049Z" transform="translate(-17.518)"/><path class="a" d="M464.854-68.361,361.893-160.435l-29.158-28.248H321.263L461.677-68.923Z" transform="translate(-14.886)"/><path class="a" d="M325.124-82.106,163.183-188.683h-3.456Z"/><path class="a" d="M383.288-126.1l-19.447-18.955,90.172,73.937L316.981-188.683h-9.138Z" transform="translate(-14.468)"/><path class="a" d="M584.294-98.638l-65.086-90.045h-1.746Z" transform="translate(-20.442)"/><path class="a" d="M349.794-185.847l-3.085-2.836h-.093Z" transform="translate(-14.598)"/><path class="a" d="M696.843-139.46l-19.33-49.223h-1.088Z" transform="translate(-24.825)"/><path class="a" d="M569.478-165.116l-15.2-23.567h-.558Z" transform="translate(-21.018)"/><path class="a" d="M591.548-184.283l-2.524-4.4h-.09Z" transform="translate(-21.947)"/><path class="a" d="M-134.357-59.569v2.152L42.654-7.322Z" transform="translate(0 125.376)"/><path class="a" d="M-134.357-72.294V-70.4l284.276,85.21Z" transform="translate(0 119.447)"/><path class="a" d="M-134.357-108.326v1.311l83.033,28.324Z"/><path class="a" d="M-134.357-66.779V-63.5l32.641,9.376L105.6,5.425Z" transform="translate(0 122.138)"/><path class="a" d="M274.828,28.921-134.357-119.755v4.871L149.328-14.746Z"/><path class="a" d="M-134.357-104.4v3.15L117.383-17.287Z"/><path class="a" d="M-11.516-114.883l-122.841-51.771v4.235L105.156-64.728Z"/><path class="a" d="M92.609-143.741l-53.223-30.3L94.044-147.52l-76.8-41.163H5.453Z"/><path class="a" d="M638.273-188.683h-3.456l34.312,65.262Z" transform="translate(-23.719)"/><path class="a" d="M348.53,511.317h.733l26.791-24.868Z" transform="translate(-14.839 629)"/><path class="a" d="M277.058,511.317,448.9,373.008,273.156,511.317Z" transform="translate(-13.552 629)"/><path class="a" d="M438.091,477.707l-33,33.61h1.046Z" transform="translate(-16.624 629)"/><path class="a" d="M479.83,426.312l-87.276,85h4.266Z" transform="translate(-16.703 629)"/><path class="a" d="M494.063-156.029l-27.135-32.654H466.1Z" transform="translate(-18.456)"/><path class="a" d="M385.344,511.317h.932l31.075-31.161Z" transform="translate(-16.007 629)"/><path class="a" d="M493.13-105.051,413.8-188.683h-5.38l56.122,56.8Z" transform="translate(-17.183)"/><path class="a" d="M541.95,511.317h.645l13.761-20.694Z" transform="translate(-20.644 629)"/><path class="a" d="M778.919-152.9l-7.279-35.786h-.989Z" transform="translate(-27.54)"/><path class="a" d="M711.385-188.683h-2.155l25.52,72.5Z" transform="translate(-25.897)"/><path class="a" d="M724.668-188.683h-.538l6.738,21.2Z" transform="translate(-26.104)"/><path class="a" d="M691.778-188.683h-1.4l26.64,69.549Z" transform="translate(-25.333)"/><path class="a" d="M750.293,511.317h1.088l6.943-29.022Z" transform="translate(-26.917 629)"/><path class="a" d="M712.729,511.317h3.694l22.987-76.182Z" transform="translate(-26.02 629)"/><path class="a" d="M673.383,511.317l18.948-48.3-20.232,48.3Z" transform="translate(-24.69 629)"/><path class="a" d="M-18.574-16.976-116.086-45.6l-18.271-5.141v2.335Z" transform="translate(0 130.23)"/><path class="a" d="M685.988-187.254l-.535-1.429h-.293Z" transform="translate(-24.844)"/><path class="a" d="M760.267-177.221l-2.637-11.462h-.261Z" transform="translate(-27.062)"/><path class="a" d="M1495.979,431.955l121.286,79.362h7.065l-12.161-7.644Z" transform="translate(-60 629)"/><path class="a" d="M1690.427,511.317h4.157l-93.551-53.243Z" transform="translate(-60 629)"/><path class="a" d="M1706.965,511.317h.436l-14.122-7.879Z" transform="translate(-60 629)"/><path class="a" d="M1538.522,412.133l176.2,99.184h3.845Z" transform="translate(-60 629)"/><path class="a" d="M1310.449,445.351l65.91,65.966h1.581Z" transform="translate(-45.327 629)"/><path class="a" d="M1754.943,504.028l13.488,7.289h6.939l-100.218-51.042Z" transform="translate(-60 629)"/><path class="a" d="M1265.367,388.7l127.11,122.619h4.648Z" transform="translate(-45.44 629)"/><path class="a" d="M1385.107,511.317h2.72l-68.913-66.023Z" transform="translate(-45.627 629)"/><path class="a" d="M1611.683,387.788l-.734,1.43,234.694,108.06v-7.473L1561.5,363.5Z" transform="translate(-60 629)"/><path class="a" d="M1845.643,478.4v-2.982L1503.508,329.046Z" transform="translate(-60 629)"/><path class="a" d="M1845.643,416.5v-.837l-94.724-33.4Z" transform="translate(-60 629)"/><path class="a" d="M-134.357-41.7v.186l21.4,5.6Z" transform="translate(0 133.18)"/><path class="a" d="M1845.643,258.023v-1.388l-271.481-37.884Z" transform="translate(-60 387.869)"/><path class="a" d="M1845.643,499.525l-269.7-122.88,269.7,125.589Z" transform="translate(-60 629)"/><path class="a" d="M1028.711,511.317h.149l-2.083-7.083Z" transform="translate(-35.223 629)"/><path class="a" d="M1845.643,485.72V482.4L1546.538,352.157Z" transform="translate(-60 629)"/><path class="a" d="M1675.407,434.621l158.221,76.7h3.87Z" transform="translate(-60 629)"/><path class="a" d="M1845.643,265.79v-.26l-40.006-6.041Z" transform="translate(-60 406.373)"/><path class="a" d="M-130.744,381.1,232.588,273.432-87.65,364.908l-46.707,13.028v6.923L103.773,313.61Z" transform="translate(0 493.856)"/><path class="a" d="M-134.357,503.212V504.7L8.99,441.29Z" transform="translate(0 629)"/><path class="a" d="M-134.357,285.5v.409l65.337-11.318Z" transform="translate(0 423.127)"/><path class="a" d="M258.785,487.685l-32.7,23.631h.712Z" transform="translate(0 629)"/><path class="a" d="M-134.357,510.449v.868h3.086L88.355,412.283Z" transform="translate(0 629)"/><path class="a" d="M44.5,20.966l-178.859-43.93v3.357L208.9,61.685Z" transform="translate(0 169.395)"/><path class="a" d="M-123.213-14.535-134.357-17.2v.115Z" transform="translate(0 154.681)"/><path class="a" d="M49.044,484.977l-50.976,26.34H.511Z" transform="translate(0 629)"/><path class="a" d="M844.094,511.317h1.723l3.33-55.331Z" transform="translate(-29.726 629)"/><path class="a" d="M917.389,506.067l.306,5.25h.109Z" transform="translate(-31.878 629)"/><path class="a" d="M897.909-188.683l.139,2.468.109-2.468Z" transform="translate(-31.285)"/><path class="a" d="M854.954,441.543l-4.61,69.774h1.195Z" transform="translate(-29.909 629)"/><path class="a" d="M911.854,505.507l.273,5.81h.123Z" transform="translate(-31.71 629)"/><path class="a" d="M459.625,504.357l19.641-26.127-29.175,33.087h3.71Z" transform="translate(-17.975 629)"/><path class="a" d="M725.872,511.317h.156l2.117-7.258Z" transform="translate(-26.098 629)"/><path class="a" d="M832.744,471.067l-4.454,40.25h.872Z" transform="translate(-29.237 629)"/><path class="a" d="M810.143,451.732l-9.737,59.585h3.759l6.842-48.887Z" transform="translate(-28.479 629)"/><path class="a" d="M74.44,121.538l-208.8-15.248v1.063Z" transform="translate(0 270.956)"/><path class="a" d="M-67.7,12.28-134.357-2.351V.173L68.28,42.857Z" transform="translate(0 178.993)"/><path class="a" d="M126.642,107.007-113.651,79.482l-20.706-2.366v3.232l82.793,8.548Z" transform="translate(0 249.493)"/><path class="a" d="M-134.357,23.874v1.814L67.8,61.554Z" transform="translate(0 201.864)"/><path class="a" d="M-134.357,21.793v.719l42.7,7.323Z" transform="translate(0 191.326)"/><path class="a" d="M-134.357,73.82l305.84,34.7L-134.357,71.54Z" transform="translate(0 246.87)"/><path class="a" d="M-118.822,141.738l-15.534-.427v1.949l175.489,3.347Z" transform="translate(0 298.784)"/><path class="a" d="M-134.357,87.3l36.228,3.382,289.316,27.324L-134.357,84.951Z" transform="translate(0 258.066)"/><path class="a" d="M-134.357,254.635v2.244L189.938,213.6Z" transform="translate(0 385.302)"/><path class="a" d="M-134.357,129.812l282.62,10.609-282.62-12.186Z" transform="translate(0 289.819)"/><path class="a" d="M-134.357,122.283l67.372,3.144-67.372-3.633Z" transform="translate(0 280.441)"/><path class="a" d="M-134.357,126.461l79.187,3.254-79.187-3.925Z" transform="translate(0 284.17)"/><path class="a" d="M29.931,188.319l-164.287,7.753v.907Z" transform="translate(0 343.006)"/><path class="a" d="M-34.12,196.289l-100.237,5.416v.955Z" transform="translate(0 349.103)"/><path class="a" d="M-134.357,45.747v1.438l222.5,33.1Z" transform="translate(0 221.586)"/><path class="a" d="M-134.357,33.9v1.924L-23.293,53.02Z" transform="translate(0 205.625)"/><path class="a" d="M35.37,88.2-134.357,66.374v1.212Z" transform="translate(0 236.562)"/><path class="a" d="M-134.357,193.365v.624l88.28-4.315Z" transform="translate(0 342.09)"/><path class="a" d="M-134.357,301.851v3.387L51.051,268.323,198.675,238.67Z" transform="translate(0 424.363)"/><path class="a" d="M-134.357,321.922v.384l12.584-2.8Z" transform="translate(0 458.479)"/><path class="a" d="M-134.357-14.9v2.065l303.69,69.2Z" transform="translate(0 173.853)"/><path class="a" d="M-134.357,324.723v1.633l248.7-56.062Z" transform="translate(0 448.331)"/><path class="a" d="M-134.357,89.125v1.636L181.875,119.51Z" transform="translate(0 260.958)"/><path class="a" d="M54,112.813-134.357,96.534v2.5L39.759,112.691Z" transform="translate(0 262.39)"/><path class="a" d="M-134.357,317.963v2.5l324.84-70.92Z" transform="translate(0 438.172)"/><path class="a" d="M345.564,340.025,29.217,511.317h6.25Z" transform="translate(0 629)"/><path class="a" d="M-61.285,281.662l-73.071,12.393v2.611l33.374-6.269Z" transform="translate(0 431.895)"/><path class="a" d="M-45.379,211.611l-88.977,6.861v.609Z" transform="translate(0 363.573)"/><path class="a" d="M-134.357,306.676v2.076L110.656,258.88Z" transform="translate(0 433.018)"/><path class="a" d="M-17.138,217.624l-117.218,10.134v1.149Z" transform="translate(0 371.077)"/><path class="a" d="M-134.357,211.954v1.77l196.433-14.8Z" transform="translate(0 355.816)"/><path class="a" d="M-134.357,136.728v1.115l179,4.655Z" transform="translate(0 294.835)"/><path class="a" d="M-125.923,222.207l-8.433.693v2.183L162,198.384Z" transform="translate(0 361.599)"/><path class="a" d="M-134.357,310.179v.984l94.4-19.5Z" transform="translate(0 443.994)"/><path class="a" d="M-134.357,250.727v1.4l234.788-29.861Z" transform="translate(0 385.721)"/><path class="a" d="M-134.357,130.9v1.579l273.9,9.327Z" transform="translate(0 291.714)"/><path class="a" d="M193.988-188.683h-1.442l25.166,16.518Z"/><path class="a" d="M145.043,511.317h4.251L352.364,379.129Z" transform="translate(0 629)"/><path class="a" d="M39.3-188.683l52.873,28.531L353.029-18.931,330.348-32.988,53.392-188.683Z"/><path class="a" d="M220.22-57.567,331.6-4.537l-54.719-28.42L-35.074-188.683H-51.232Z"/><path class="a" d="M-81.24-188.683h-7.695L200.9-55.027Z"/><path class="a" d="M106.579-188.683h-4.927l120.882,71.438Z"/><path class="a" d="M-134.357-171.446v1.321L-52.078-136.1Z"/><path class="a" d="M343.519-96.352,422.4-42.308l-8.89-8.183L222.528-188.683H207.416L400.2-54.354Z" transform="translate(-11.618)"/><path class="a" d="M126.936-188.683h-5.2L382-29.914Z"/><path class="a" d="M388.033-177.939l-10.916-10.744h-.508Z" transform="translate(-15.574)"/><path class="a" d="M181.516,511.317H184.4l72.214-49.774Z" transform="translate(0 629)"/><path class="a" d="M283.689,417.067,133.854,509.056l-3.649,2.261h10.251L328.75,390.5Z" transform="translate(0 629)"/><path class="a" d="M371.2,399.313l-33.017,21.471-129.9,90.533h9.764Z" transform="translate(-11.314 629)"/><path class="a" d="M243.765,511.317,434.387,366.786,239.725,511.317Z" transform="translate(-12.572 629)"/><path class="a" d="M168.727,465.492,90.606,511.317h5.183Z" transform="translate(0 629)"/><path class="a" d="M-128.21-188.683h-3.267L-28.485-143.71Z"/><path class="a" d="M-97.894-188.683h-7.558L285.661-11.259Z"/><path class="a" d="M43.493,511.317h5.986l150.128-85.406Z" transform="translate(0 629)"/><path class="a" d="M260.8-175.744l-16.841-12.939h-.753Z"/><path class="a" d="M-68.609,301.925l-65.747,13.542v.5Z" transform="translate(0 449.873)"/><path class="a" d="M153.148,269.111l-287.5,67.363v2.17Z" transform="translate(0 456.729)"/><path class="a" d="M-134.357,363.945v2.581L200.254,274.2Z" transform="translate(0 479.127)"/><path class="a" d="M-134.357,345.5v1.587L-1.09,312.861Z" transform="translate(0 473.841)"/><path class="a" d="M-134.357,341.851v1.211L46.086,298.48Z" transform="translate(0 467.527)"/><path class="a" d="M93.462,221.126l-227.819,26.641v1.48Z" transform="translate(0 383.656)"/><path class="a" d="M102.085,228.031l-236.442,31.332v2.909l189.5-26.757Z" transform="translate(0 393.706)"/><path class="a" d="M-106.906,262.157l-27.45,3.855v.271Z" transform="translate(0 407.514)"/><path class="a" d="M-134.357-125.493v2.015l173.646,62.6Z"/><path class="a" d="M304.489-180.521l-9.824-8.162h-.352Z" transform="translate(-13.057)"/><path class="a" d="M248.9-127.257l-94.139-61.426h-7.312L325.54-75.977Z"/><path class="a" d="M285.987-167.5,377.634-99.66l-114.3-89.023H256.1Z" transform="translate(-12.606)"/><path class="a" d="M-8.557-188.683H-16.1L193.515-83.346Z"/><path class="a" d="M14.877-86.443-134.357-145.43v4.669L241.432,3.32Z"/><path class="a" d="M-134.357-138.181v.571l31.318,11.685Z"/><path class="a" d="M-134.357,347.875v3.614l85.934-22.2,283.589-73.219Z" transform="translate(0 462.716)"/><path class="a" d="M-134.357,230.868v1.391L51.618,213.323Z" transform="translate(0 371.275)"/></g></svg>