<svg xmlns="http://www.w3.org/2000/svg" width="336.573" height="341.765" viewBox="0 0 336.573 341.765"><defs><style>.a{fill:#fff;}</style></defs><path class="a" d="M2842.18,1301.591l17.888,69.432,40.557-59.127-6.937,71.363,58.333-41.69-30.927,64.686,69.074-19.224-51.186,50.208,71.484,5.56-65.271,29.673,65.271,29.673-71.484,5.56,51.186,50.208-69.074-19.224,30.927,64.686-58.333-41.69,6.938,71.363-40.557-59.127-17.888,69.432-17.888-69.432-40.557,59.127,6.938-71.363-58.333,41.69,30.927-64.686-69.074,19.224,51.186-50.208-71.484-5.56,65.271-29.673-65.271-29.673,71.484-5.56-51.186-50.208,69.074,19.224-30.927-64.686,58.333,41.69-6.937-71.363,40.557,59.127Z" transform="translate(-2673.894 -1301.591)"/></svg>