<svg xmlns="http://www.w3.org/2000/svg" width="853.188" height="628.679" viewBox="0 0 853.188 628.679"><defs><style>.a{fill:#fff000;}.b{fill:#333;}</style></defs><g transform="translate(-422.9 -477.975)"><path class="a" d="M471.457,683.431c15.336-19.079,38.206-25.741,59.058-19.836a110.925,110.925,0,0,0,26.5,40.883,110.242,110.242,0,0,1-18.027-37.552c.133.151.4.151.538.3a2.927,2.927,0,0,0-.672-.454,108.207,108.207,0,0,1-3.364-26.648c0-60.718,50.314-109.928,112.332-109.928a113.542,113.542,0,0,1,72.51,25.892,78.411,78.411,0,0,0-8.071,34.22c0,3.179.269,6.358.538,9.539,5.785-46.182,53.273-82.219,111.12-82.219,57.712,0,105.336,36.037,111.12,82.219a75.512,75.512,0,0,0,.538-9.539,77.673,77.673,0,0,0-7.4-32.858,106.2,106.2,0,0,1,45.471-32.706c46.951-17.715,95.112,1.364,107.354,42.548a73.223,73.223,0,0,1,.4,39.217,82.627,82.627,0,0,0-24.888,20.593,81.368,81.368,0,0,1,20.986-11.66c.4-.151.807-.3,1.345-.454-.135.3-.268.757-.4,1.06a8.282,8.282,0,0,1,.807-1.211c39.82-13.93,81.524,7.117,93.5,47.7,8.072,27.1.942,56.175-16.278,77.222a86.082,86.082,0,0,0,29.6-43.153c20.045,4.542,38.744,17.412,51.659,37.7,26.637,42.094,18.027,100.389-19.1,130.217a75.483,75.483,0,0,1-35.516,16.051,122.464,122.464,0,0,0-31.345-63.746,124.584,124.584,0,0,1,21.391,70.408c0,66.168-50.313,119.921-112.331,119.921-30.941,0-58.923-13.325-79.236-34.977a116.714,116.714,0,0,0,32.422,31.948v.757c0,34.22-27.31,62.081-60.807,62.081-25.426,0-47.086-15.9-56.233-38.308a91.842,91.842,0,0,0,9.821-41.337v-1.817c-7.131,49.513-54.35,87.821-111.39,87.821-61.344,0-111.12-44.213-112.2-99.177a84.108,84.108,0,0,0-.942,13.173,76.3,76.3,0,0,0,.539,9.69,55.468,55.468,0,0,1-35.247,23.773c-29.327,5.753-57.04-13.93-61.749-44.214a57.115,57.115,0,0,1,2.153-26.648,57.3,57.3,0,0,0-6.457,17.715,87.445,87.445,0,0,1-24.485,3.483c-53.946,0-97.667-49.059-97.667-109.474,0-43.456,22.735-81.158,55.561-98.723a96.285,96.285,0,0,0-34.574,20.593c-1.21-1.06-2.421-2.271-3.632-3.482C451.547,753.991,449.259,710.989,471.457,683.431Z" transform="translate(9.425 11.221)"/><g transform="translate(454.11 509.469)"><g transform="translate(537.037 317.974)"><path class="b" d="M945.057,940.7c-30.941,0-58.923-13.323-79.236-34.977,20.448,29.981,53.541,49.513,90.941,49.513,62.017,0,112.33-53.6,112.33-119.922A123.8,123.8,0,0,0,1036,750.368a124.592,124.592,0,0,1,21.391,70.408C1057.389,886.946,1007.076,940.7,945.057,940.7Z" transform="translate(-865.821 -750.368)"/></g><g transform="translate(79.371 18.17)"><path class="b" d="M542.188,704.594a107.96,107.96,0,0,1-21.391-64.5c0-60.718,50.314-109.929,112.331-109.929a113.573,113.573,0,0,1,79.237,31.948,112.883,112.883,0,0,0-90.941-45.424c-62.018,0-112.332,49.21-112.332,109.929A108.184,108.184,0,0,0,542.188,704.594Z" transform="translate(-509.093 -516.686)"/></g><g transform="translate(451.207 498.462)"><path class="b" d="M856.23,960.7c-26.367,0-48.834-17.111-57.309-41.034,3.632,30.737,29.327,54.51,60.4,54.51,33.631,0,60.806-27.709,60.806-62.081A60.9,60.9,0,0,0,916.5,891.05a69.169,69.169,0,0,1,.4,7.571C917.172,932.841,889.862,960.7,856.23,960.7Z" transform="translate(-798.921 -891.05)"/></g><g transform="translate(1.678 157.224)"><path class="b" d="M463.807,646.973c-22.2,27.558-19.91,70.56,4.978,95.845a60.837,60.837,0,0,0,17.085,12.265,57.051,57.051,0,0,1-7.264-6.36c-24.888-25.286-27.176-68.288-4.978-95.846,17.488-21.805,45.066-27.558,68.206-16.354C517.215,618.2,483.852,621.989,463.807,646.973Z" transform="translate(-448.535 -625.072)"/></g><g transform="translate(237.577 475.144)"><path class="b" d="M745.544,972.052c-61.344,0-111.12-44.213-112.2-99.177a83.952,83.952,0,0,0-.942,13.173c0,55.721,50.312,100.994,112.33,100.994s112.332-45.273,112.332-100.994V884.23C849.8,933.895,802.584,972.052,745.544,972.052Z" transform="translate(-632.407 -872.875)"/></g><g transform="translate(135.696 451.068)"><path class="b" d="M620.168,924.972c-29.327,5.754-57.04-13.93-61.749-44.213a57.119,57.119,0,0,1,2.153-26.649,58,58,0,0,0-6.861,37.552c4.709,30.283,32.422,49.967,61.749,44.213,20.449-4.089,36.323-19.533,42.511-38.612A57.154,57.154,0,0,1,620.168,924.972Z" transform="translate(-552.995 -854.109)"/></g><g transform="translate(0 263.919)"><path class="b" d="M447.227,813.318c0,60.414,43.722,109.473,97.667,109.473A87.048,87.048,0,0,0,587,912.041a88.148,88.148,0,0,1-27.578,4.39c-53.946,0-97.667-49.059-97.667-109.473,0-43.456,22.735-81.16,55.56-98.723C476.689,721.56,447.227,763.653,447.227,813.318Z" transform="translate(-447.227 -708.235)"/></g><g transform="translate(731.026 196.532)"><path class="b" d="M1079.179,694.782c26.637,42.094,18.027,100.388-19.1,130.217-13.184,10.448-28.117,16.05-43.05,16.959,19.238,2.271,39.283-3.029,56.368-16.505,37.129-29.677,45.739-87.972,19.1-130.217-17.218-27.255-44.932-41.185-72.51-39.369C1042.856,658.443,1064.649,671.919,1079.179,694.782Z" transform="translate(-1017.026 -655.71)"/></g><g transform="translate(611.969 98.659)"><path class="b" d="M1040.459,644.6c8.073,27.1.942,56.175-16.278,77.222,26.772-20.744,39.82-57.085,29.866-90.4-12.242-41.185-54.887-62.232-95.246-47.091a80.986,80.986,0,0,0-34.573,24.984,81.339,81.339,0,0,1,20.987-11.66C985.571,582.365,1028.217,603.411,1040.459,644.6Z" transform="translate(-924.227 -579.423)"/></g><g transform="translate(478.383 1.559)"><path class="b" d="M870.954,528.375c46.951-17.715,95.112,1.362,107.354,42.548,4.708,15.9,3.363,32.858-2.69,48.6,13.586-20.29,18.7-44.516,12.107-66.622-12.242-41.185-60.269-60.264-107.354-42.548-28.789,10.9-50.583,33.008-60.268,57.992A106.675,106.675,0,0,1,870.954,528.375Z" transform="translate(-820.103 -503.738)"/></g><g transform="translate(267.846)"><path class="b" d="M767.658,521.6c57.712,0,105.336,36.037,111.12,82.219a75.743,75.743,0,0,0,.538-9.54c0-50.724-50.044-91.758-111.658-91.758S656,543.557,656,594.281c0,3.18.268,6.36.537,9.54C662.457,557.639,709.946,521.6,767.658,521.6Z" transform="translate(-656 -502.523)"/></g><path d="M657.782,594.7" transform="translate(-387.65 -476.442)"/></g><g transform="translate(422.9 584.875)"><path class="a" d="M572.226,702.569,435.815,626.1,422.9,597.184,438.236,561.3l24.484,2.574L579.087,693.03Z" transform="translate(-422.9 -561.298)"/><path class="b" d="M422.9,589.269,572.226,694.655,435.815,618.19Z" transform="translate(-422.9 -553.384)"/><path class="b" d="M459.338,563.872,434.854,561.3,575.7,693.03Z" transform="translate(-419.518 -561.298)"/></g><g transform="translate(672.181 477.975)"><path class="a" d="M672.09,617.278,617.2,502.959l10.09-19.684,37.937-5.3,17.892,15.9,1.211,123.556Z" transform="translate(-617.202 -477.975)"/><path class="b" d="M627.292,482.106l44.8,134L617.2,501.79Z" transform="translate(-617.202 -476.806)"/><path class="b" d="M672.529,493.874l-17.892-15.9,19.1,139.454Z" transform="translate(-606.61 -477.975)"/></g><g transform="translate(1066.482 520.069)"><path class="a" d="M924.541,630.4l70.9-117.045,22.6-2.574,24.888,30.889-4.44,25.589L930.864,641.608Z" transform="translate(-924.541 -510.785)"/><path class="b" d="M1018.038,510.785,924.541,630.4l70.9-117.045Z" transform="translate(-924.541 -510.785)"/><path class="b" d="M1037.092,560.451l4.439-25.589L929.47,634.8Z" transform="translate(-923.147 -503.972)"/></g><g transform="translate(497.429 936.16)"><path class="a" d="M597.493,846.01,527.807,961.389l-22.331,2.423-24.484-30.435,4.305-25.135L591.3,835.108Z" transform="translate(-480.991 -835.108)"/><path class="b" d="M500.076,961.407l92.017-117.8L522.407,958.984Z" transform="translate(-475.591 -832.703)"/><path class="b" d="M485.3,908.242l-4.305,25.135L591.3,835.108Z" transform="translate(-480.991 -835.108)"/></g><g transform="translate(647.427 980.07)"><path class="a" d="M653.6,874.331l-15.74,94.786-13.587,8.631-23-11.659-3.363-17.413,49.1-79.342Z" transform="translate(-597.908 -869.334)"/><path class="b" d="M618.46,976.646l29.327-103.417-15.74,94.786Z" transform="translate(-592.093 -868.232)"/><path class="b" d="M597.908,948.676l3.363,17.413,45.74-96.755Z" transform="translate(-597.908 -869.334)"/></g><g transform="translate(1147.603 860.603)"><path class="a" d="M993.556,776.215l93.093,31.04,7,18.17-14.26,27.709-17.757,2.423-73.856-71.468Z" transform="translate(-987.771 -776.215)"/><path class="b" d="M1092.369,825.425,992.28,776.215l93.093,31.04Z" transform="translate(-986.495 -776.215)"/><path class="b" d="M1061.627,853.821l17.757-2.423-91.614-69.046Z" transform="translate(-987.771 -774.479)"/></g><g transform="translate(986.169 962.355)"><path class="a" d="M872.7,855.526,976.29,946.072l.807,26.649-30.134,27.1-23.408-6.814L861.941,862.036Z" transform="translate(-861.941 -855.526)"/><path class="b" d="M974.723,972.721,870.33,855.526l103.586,90.547Z" transform="translate(-859.567 -855.526)"/><path class="b" d="M923.555,991.575l23.408,6.814L861.941,860.6Z" transform="translate(-861.941 -854.09)"/></g></g></svg>