<svg xmlns="http://www.w3.org/2000/svg" width="338" height="453.999" viewBox="0 0 338 453.999"><defs><style>.a,.d{fill:#333;}.b{fill:#fff;}.c,.d{stroke:none;}</style></defs><g transform="translate(-21 -3944)"><g transform="translate(5 -45.001)"><g class="a" transform="translate(21 3994)"><path class="c" d="M 299.000732421875 447.5001220703125 L 34.00022125244141 447.5001220703125 C 29.6120548248291 447.5001220703125 25.35600090026855 446.6410522460938 21.35022163391113 444.94677734375 C 17.48027801513672 443.3099975585938 14.0043888092041 440.9664611816406 11.01916694641113 437.9812927246094 C 8.033888816833496 434.9960632324219 5.690277576446533 431.5202331542969 4.053444385528564 427.6502685546875 C 2.359111070632935 423.6443786621094 1.5 419.3882141113281 1.5 414.9998779296875 L 1.5 60.68522644042969 C 1.5 56.29711532592773 2.359111070632935 52.04105758666992 4.053444385528564 48.03522491455078 C 5.690277576446533 44.165283203125 8.033888816833496 40.68944931030273 11.01916694641113 37.70417022705078 C 14.00444412231445 34.71889114379883 17.48027801513672 32.37528228759766 21.35022163391113 30.73844718933105 C 25.35605621337891 29.04411506652832 29.61211204528809 28.18500328063965 34.00022125244141 28.18500328063965 L 151.5271148681641 28.18500328063965 L 152.4196166992188 28.18500328063965 L 152.8453826904297 27.40067100524902 L 166.0131378173828 3.144866704940796 L 179.1813354492188 27.40067100524902 L 179.6071624755859 28.18500328063965 L 180.4996185302734 28.18500328063965 L 299.000732421875 28.18500328063965 C 303.3888244628906 28.18500328063965 307.6448364257812 29.04411506652832 311.6505432128906 30.73844718933105 C 315.5203857421875 32.37528228759766 318.9961242675781 34.71889114379883 321.9812927246094 37.70417022705078 C 324.9664306640625 40.68939208984375 327.3099365234375 44.165283203125 328.9467163085938 48.03517150878906 C 330.6409301757812 52.0410041809082 331.5 56.29711532592773 331.5 60.68522644042969 L 331.5 414.9998779296875 C 331.5 419.3882141113281 330.6409301757812 423.6444396972656 328.9467163085938 427.6502685546875 C 327.3099365234375 431.5202331542969 324.9664306640625 434.9961242675781 321.9812927246094 437.9812927246094 C 318.9961547851562 440.9664611816406 315.5204467773438 443.3099975585938 311.6506042480469 444.94677734375 C 307.6448974609375 446.6410522460938 303.3888244628906 447.5001220703125 299.000732421875 447.5001220703125 Z"/><path class="d" d="M 299.0007019042969 446.0001525878906 C 303.18701171875 446.0001525878906 307.2464599609375 445.1809692382812 311.0662841796875 443.5653381347656 C 314.7572937011719 442.004150390625 318.07275390625 439.7685546875 320.920654296875 436.9206848144531 C 323.7684631347656 434.07275390625 326.0040588378906 430.7572021484375 327.565185546875 427.0660400390625 C 329.1808166503906 423.24609375 330 419.1864318847656 330 414.9999084472656 L 330 60.68521118164062 C 330 56.49891662597656 329.1808166503906 52.43944549560547 327.565185546875 48.61950302124023 C 326.0040588378906 44.92838668823242 323.7684631347656 41.61279678344727 320.9205932617188 38.76479721069336 C 318.07275390625 35.91679763793945 314.7572326660156 33.68115234375 311.0662231445312 32.11997222900391 C 307.2463989257812 30.50426864624023 303.18701171875 29.68503379821777 299.0007019042969 29.68503379821777 L 180.4996490478516 29.68503379821777 L 178.7147064208984 29.68503379821777 L 177.8631134033203 28.11638641357422 L 166.0131530761719 6.288802146911621 L 154.1636505126953 28.1163272857666 L 153.3120574951172 29.68503379821777 L 151.5271148681641 29.68503379821777 L 34.00017547607422 29.68503379821777 C 29.81388282775879 29.68503379821777 25.7544116973877 30.50426864624023 21.93453025817871 32.11997222900391 C 18.24341201782227 33.68120956420898 14.92782306671143 35.91685485839844 12.07982349395752 38.76485824584961 C 9.231823921203613 41.61285781860352 6.996176242828369 44.92844390869141 5.434941291809082 48.61956405639648 C 3.819235324859619 52.43944549560547 3 56.49891662597656 3 60.68521118164062 L 3 414.9999084472656 C 3 419.1863708496094 3.819235324859619 423.2460327148438 5.434941291809082 427.0659790039062 C 6.996176242828369 430.757080078125 9.231823921203613 434.0726928710938 12.07982349395752 436.9206237792969 C 14.92776489257812 439.7685546875 18.24335289001465 442.004150390625 21.93447113037109 443.5653381347656 C 25.7544116973877 445.1809692382812 29.81388282775879 446.0001525878906 34.00017547607422 446.0001525878906 L 299.0007019042969 446.0001525878906 M 299.0007019042969 449.0001525878906 L 34.00017547607422 449.0001525878906 C 15.22258853912354 449.0001525878906 0 433.7784423828125 0 414.9999084472656 L 0 60.68521118164062 C 0 41.90761947631836 15.22258853912354 26.68503379821777 34.00017547607422 26.68503379821777 L 151.5271148681641 26.68503379821777 L 166.0131225585938 0.0009153047576546669 L 180.4996490478516 26.68503379821777 L 299.0007019042969 26.68503379821777 C 317.7783508300781 26.68503379821777 333 41.90761947631836 333 60.68521118164062 L 333 414.9999084472656 C 333 433.7784423828125 317.7783508300781 449.0001525878906 299.0007019042969 449.0001525878906 Z"/></g></g><g transform="translate(0 -50.001)"><g class="b" transform="translate(21 3994)"><path class="c" d="M 299.000732421875 447.5001220703125 L 34.00022125244141 447.5001220703125 C 29.6120548248291 447.5001220703125 25.35600090026855 446.6410522460938 21.35022163391113 444.94677734375 C 17.48027801513672 443.3099975585938 14.0043888092041 440.9664611816406 11.01916694641113 437.9812927246094 C 8.033888816833496 434.9960632324219 5.690277576446533 431.5202331542969 4.053444385528564 427.6502685546875 C 2.359111070632935 423.6443786621094 1.5 419.3882141113281 1.5 414.9998779296875 L 1.5 60.68522644042969 C 1.5 56.29711532592773 2.359111070632935 52.04105758666992 4.053444385528564 48.03522491455078 C 5.690277576446533 44.165283203125 8.033888816833496 40.68944931030273 11.01916694641113 37.70417022705078 C 14.00444412231445 34.71889114379883 17.48027801513672 32.37528228759766 21.35022163391113 30.73844718933105 C 25.35605621337891 29.04411506652832 29.61211204528809 28.18500328063965 34.00022125244141 28.18500328063965 L 151.5271148681641 28.18500328063965 L 152.4196166992188 28.18500328063965 L 152.8453826904297 27.40067100524902 L 166.0131378173828 3.144866704940796 L 179.1813354492188 27.40067100524902 L 179.6071624755859 28.18500328063965 L 180.4996185302734 28.18500328063965 L 299.000732421875 28.18500328063965 C 303.3888244628906 28.18500328063965 307.6448364257812 29.04411506652832 311.6505432128906 30.73844718933105 C 315.5203857421875 32.37528228759766 318.9961242675781 34.71889114379883 321.9812927246094 37.70417022705078 C 324.9664306640625 40.68939208984375 327.3099365234375 44.165283203125 328.9467163085938 48.03517150878906 C 330.6409301757812 52.0410041809082 331.5 56.29711532592773 331.5 60.68522644042969 L 331.5 414.9998779296875 C 331.5 419.3882141113281 330.6409301757812 423.6444396972656 328.9467163085938 427.6502685546875 C 327.3099365234375 431.5202331542969 324.9664306640625 434.9961242675781 321.9812927246094 437.9812927246094 C 318.9961547851562 440.9664611816406 315.5204467773438 443.3099975585938 311.6506042480469 444.94677734375 C 307.6448974609375 446.6410522460938 303.3888244628906 447.5001220703125 299.000732421875 447.5001220703125 Z"/><path class="d" d="M 299.0007019042969 446.0001525878906 C 303.18701171875 446.0001525878906 307.2464599609375 445.1809692382812 311.0662841796875 443.5653381347656 C 314.7572937011719 442.004150390625 318.07275390625 439.7685546875 320.920654296875 436.9206848144531 C 323.7684631347656 434.07275390625 326.0040588378906 430.7572021484375 327.565185546875 427.0660400390625 C 329.1808166503906 423.24609375 330 419.1864318847656 330 414.9999084472656 L 330 60.68521118164062 C 330 56.49891662597656 329.1808166503906 52.43944549560547 327.565185546875 48.61950302124023 C 326.0040588378906 44.92838668823242 323.7684631347656 41.61279678344727 320.9205932617188 38.76479721069336 C 318.07275390625 35.91679763793945 314.7572326660156 33.68115234375 311.0662231445312 32.11997222900391 C 307.2463989257812 30.50426864624023 303.18701171875 29.68503379821777 299.0007019042969 29.68503379821777 L 180.4996490478516 29.68503379821777 L 178.7147064208984 29.68503379821777 L 177.8631134033203 28.11638641357422 L 166.0131530761719 6.288802146911621 L 154.1636505126953 28.1163272857666 L 153.3120574951172 29.68503379821777 L 151.5271148681641 29.68503379821777 L 34.00017547607422 29.68503379821777 C 29.81388282775879 29.68503379821777 25.7544116973877 30.50426864624023 21.93453025817871 32.11997222900391 C 18.24341201782227 33.68120956420898 14.92782306671143 35.91685485839844 12.07982349395752 38.76485824584961 C 9.231823921203613 41.61285781860352 6.996176242828369 44.92844390869141 5.434941291809082 48.61956405639648 C 3.819235324859619 52.43944549560547 3 56.49891662597656 3 60.68521118164062 L 3 414.9999084472656 C 3 419.1863708496094 3.819235324859619 423.2460327148438 5.434941291809082 427.0659790039062 C 6.996176242828369 430.757080078125 9.231823921203613 434.0726928710938 12.07982349395752 436.9206237792969 C 14.92776489257812 439.7685546875 18.24335289001465 442.004150390625 21.93447113037109 443.5653381347656 C 25.7544116973877 445.1809692382812 29.81388282775879 446.0001525878906 34.00017547607422 446.0001525878906 L 299.0007019042969 446.0001525878906 M 299.0007019042969 449.0001525878906 L 34.00017547607422 449.0001525878906 C 15.22258853912354 449.0001525878906 0 433.7784423828125 0 414.9999084472656 L 0 60.68521118164062 C 0 41.90761947631836 15.22258853912354 26.68503379821777 34.00017547607422 26.68503379821777 L 151.5271148681641 26.68503379821777 L 166.0131225585938 0.0009153047576546669 L 180.4996490478516 26.68503379821777 L 299.0007019042969 26.68503379821777 C 317.7783508300781 26.68503379821777 333 41.90761947631836 333 60.68521118164062 L 333 414.9999084472656 C 333 433.7784423828125 317.7783508300781 449.0001525878906 299.0007019042969 449.0001525878906 Z"/></g></g></g></svg>