<svg xmlns="http://www.w3.org/2000/svg" width="936" height="417" viewBox="0 0 936 417"><defs><style>.a,.j{fill:#fff;}.b{fill:#c7c7c7;}.c{fill:#ff5abd;}.d{fill:#ffeef8;}.e{fill:#4ee4f4;}.f,.g{fill:none;stroke:#2b2e34;}.f{stroke-width:0.709px;}.h,.i,.k,.l{fill:#2b2e34;}.h,.j,.k,.l{font-size:18px;}.h,.i,.j{font-family: 'Noto Sans JP', sans-serif;}.i{font-size:11px;}.k{font-family: 'Noto Sans JP', sans-serif;}.l{font-family: 'Noto Sans JP', sans-serif;}</style></defs><g transform="translate(-9 423.204)"><path class="a" d="M9-6.2H944v-417H9Z"/><path class="b" d="M9.5-422.7h50v56H9.5Z"/><path class="b" d="M59.5-422.7h250v56H59.5Zm250,0h127v28h-127Zm127,0h127v28h-127Zm127,0h127v28h-127Zm127,0h127v28h-127Zm127,0h127v28h-127Zm-508,28h127v28h-127Zm127,0h127v28h-127Zm127,0h127v28h-127Zm127,0h127v28h-127Zm127,0h127v28h-127Z"/><path class="c" d="M9.5-366.7h50v360H9.5Z"/><path class="d" d="M59.5-326.7h250v40H59.5Zm250,0h127v40h-127Zm127,0h127v40h-127Zm127,0h127v40h-127Zm127,0h127v40h-127Zm127,0h127v40h-127Zm-758,80h250v40H59.5Zm250,0h127v40h-127Zm127,0h127v40h-127Zm127,0h127v40h-127Zm127,0h127v40h-127Zm127,0h127v40h-127Zm-758,80h250v40H59.5Zm250,0h127v40h-127Zm127,0h127v40h-127Zm127,0h127v40h-127Zm127,0h127v40h-127Zm127,0h127v40h-127Zm-758,80h250v40H59.5Zm250,0h127v40h-127Zm127,0h127v40h-127Zm127,0h127v40h-127Zm127,0h127v40h-127Zm127,0h127v40h-127Z"/><path class="e" d="M59.5-46.7h250v40H59.5Zm250,0h127v40h-127Zm127,0h127v40h-127Zm127,0h127v40h-127Zm127,0h127v40h-127Zm127,0h127v40h-127Z"/><g transform="translate(59.5 -394.704)"><path class="f" d="M0,0V-27.5"/></g><g transform="translate(309.5 -394.704)"><path class="f" d="M0,0V-27.5"/></g><g transform="translate(436.5 -394.704)"><path class="f" d="M0,0V-27.5"/></g><g transform="translate(563.5 -394.704)"><path class="f" d="M0,0V-27.5"/></g><g transform="translate(690.5 -394.704)"><path class="f" d="M0,0V-27.5"/></g><g transform="translate(817.5 -394.704)"><path class="f" d="M0,0V-27.5"/></g><g transform="translate(59.5 -367.059)"><path class="f" d="M0,0V-27.646"/></g><g transform="translate(309.5 -367.059)"><path class="f" d="M0,0V-27.646"/></g><g transform="translate(436.5 -367.059)"><path class="f" d="M0,0V-27.646"/></g><g transform="translate(563.5 -367.059)"><path class="f" d="M0,0V-27.646"/></g><g transform="translate(690.5 -367.059)"><path class="f" d="M0,0V-27.646"/></g><g transform="translate(817.5 -367.059)"><path class="f" d="M0,0V-27.646"/></g><g transform="translate(10 -366.704)"><path class="f" d="M0,0H49.5"/></g><g transform="translate(59.5 -366.704)"><path class="f" d="M0,0H250"/></g><g transform="translate(59.5 -327.059)"><path class="f" d="M0,0V-39.291"/></g><g transform="translate(309.5 -366.704)"><path class="f" d="M0,0H127"/></g><g transform="translate(309.5 -327.059)"><path class="f" d="M0,0V-39.291"/></g><g transform="translate(436.5 -366.704)"><path class="f" d="M0,0H127"/></g><g transform="translate(436.5 -327.059)"><path class="f" d="M0,0V-39.291"/></g><g transform="translate(563.5 -366.704)"><path class="f" d="M0,0H127"/></g><g transform="translate(563.5 -327.059)"><path class="f" d="M0,0V-39.291"/></g><g transform="translate(690.5 -366.704)"><path class="f" d="M0,0H127"/></g><g transform="translate(690.5 -327.059)"><path class="f" d="M0,0V-39.291"/></g><g transform="translate(817.5 -366.704)"><path class="f" d="M0,0H126.5"/></g><g transform="translate(817.5 -327.059)"><path class="f" d="M0,0V-39.291"/></g><g transform="translate(59.146 -326.704)"><path class="f" d="M0,0H250.354"/></g><g transform="translate(59.5 -287.059)"><path class="f" d="M0,0V-39.291"/></g><g transform="translate(309.5 -326.704)"><path class="f" d="M0,0H127"/></g><g transform="translate(309.5 -287.059)"><path class="f" d="M0,0V-39.291"/></g><g transform="translate(436.5 -326.704)"><path class="f" d="M0,0H127"/></g><g transform="translate(436.5 -287.059)"><path class="f" d="M0,0V-39.291"/></g><g transform="translate(563.5 -326.704)"><path class="f" d="M0,0H127"/></g><g transform="translate(563.5 -287.059)"><path class="f" d="M0,0V-39.291"/></g><g transform="translate(690.5 -326.704)"><path class="f" d="M0,0H127"/></g><g transform="translate(690.5 -287.059)"><path class="f" d="M0,0V-39.291"/></g><g transform="translate(817.5 -326.704)"><path class="f" d="M0,0H126.5"/></g><g transform="translate(817.5 -287.059)"><path class="f" d="M0,0V-39.291"/></g><g transform="translate(59.146 -286.704)"><path class="f" d="M0,0H250.354"/></g><g transform="translate(59.5 -247.059)"><path class="f" d="M0,0V-39.291"/></g><g transform="translate(309.5 -286.704)"><path class="f" d="M0,0H127"/></g><g transform="translate(309.5 -247.059)"><path class="f" d="M0,0V-39.291"/></g><g transform="translate(436.5 -286.704)"><path class="f" d="M0,0H127"/></g><g transform="translate(436.5 -247.059)"><path class="f" d="M0,0V-39.291"/></g><g transform="translate(563.5 -286.704)"><path class="f" d="M0,0H127"/></g><g transform="translate(563.5 -247.059)"><path class="f" d="M0,0V-39.291"/></g><g transform="translate(690.5 -286.704)"><path class="f" d="M0,0H127"/></g><g transform="translate(690.5 -247.059)"><path class="f" d="M0,0V-39.291"/></g><g transform="translate(817.5 -286.704)"><path class="f" d="M0,0H126.5"/></g><g transform="translate(817.5 -247.059)"><path class="f" d="M0,0V-39.291"/></g><g transform="translate(59.146 -246.704)"><path class="f" d="M0,0H250.354"/></g><g transform="translate(59.5 -207.059)"><path class="f" d="M0,0V-39.291"/></g><g transform="translate(309.5 -246.704)"><path class="f" d="M0,0H127"/></g><g transform="translate(309.5 -207.059)"><path class="f" d="M0,0V-39.291"/></g><g transform="translate(436.5 -246.704)"><path class="f" d="M0,0H127"/></g><g transform="translate(436.5 -207.059)"><path class="f" d="M0,0V-39.291"/></g><g transform="translate(563.5 -246.704)"><path class="f" d="M0,0H127"/></g><g transform="translate(563.5 -207.059)"><path class="f" d="M0,0V-39.291"/></g><g transform="translate(690.5 -246.704)"><path class="f" d="M0,0H127"/></g><g transform="translate(690.5 -207.059)"><path class="f" d="M0,0V-39.291"/></g><g transform="translate(817.5 -246.704)"><path class="f" d="M0,0H126.5"/></g><g transform="translate(817.5 -207.059)"><path class="f" d="M0,0V-39.291"/></g><g transform="translate(59.146 -206.704)"><path class="f" d="M0,0H250.354"/></g><g transform="translate(59.5 -167.059)"><path class="f" d="M0,0V-39.291"/></g><g transform="translate(309.5 -206.704)"><path class="f" d="M0,0H127"/></g><g transform="translate(309.5 -167.059)"><path class="f" d="M0,0V-39.291"/></g><g transform="translate(436.5 -206.704)"><path class="f" d="M0,0H127"/></g><g transform="translate(436.5 -167.059)"><path class="f" d="M0,0V-39.291"/></g><g transform="translate(563.5 -206.704)"><path class="f" d="M0,0H127"/></g><g transform="translate(563.5 -167.059)"><path class="f" d="M0,0V-39.291"/></g><g transform="translate(690.5 -206.704)"><path class="f" d="M0,0H127"/></g><g transform="translate(690.5 -167.059)"><path class="f" d="M0,0V-39.291"/></g><g transform="translate(817.5 -206.704)"><path class="f" d="M0,0H126.5"/></g><g transform="translate(817.5 -167.059)"><path class="f" d="M0,0V-39.291"/></g><g transform="translate(59.146 -166.704)"><path class="f" d="M0,0H250.354"/></g><g transform="translate(59.5 -127.059)"><path class="f" d="M0,0V-39.291"/></g><g transform="translate(309.5 -166.704)"><path class="f" d="M0,0H127"/></g><g transform="translate(309.5 -127.059)"><path class="f" d="M0,0V-39.291"/></g><g transform="translate(436.5 -166.704)"><path class="f" d="M0,0H127"/></g><g transform="translate(436.5 -127.059)"><path class="f" d="M0,0V-39.291"/></g><g transform="translate(563.5 -166.704)"><path class="f" d="M0,0H127"/></g><g transform="translate(563.5 -127.059)"><path class="f" d="M0,0V-39.291"/></g><g transform="translate(690.5 -166.704)"><path class="f" d="M0,0H127"/></g><g transform="translate(690.5 -127.059)"><path class="f" d="M0,0V-39.291"/></g><g transform="translate(817.5 -166.704)"><path class="f" d="M0,0H126.5"/></g><g transform="translate(817.5 -127.059)"><path class="f" d="M0,0V-39.291"/></g><g transform="translate(59.146 -126.704)"><path class="f" d="M0,0H250.354"/></g><g transform="translate(59.5 -87.059)"><path class="f" d="M0,0V-39.291"/></g><g transform="translate(309.5 -126.704)"><path class="f" d="M0,0H127"/></g><g transform="translate(309.5 -87.059)"><path class="f" d="M0,0V-39.291"/></g><g transform="translate(436.5 -126.704)"><path class="f" d="M0,0H127"/></g><g transform="translate(436.5 -87.059)"><path class="f" d="M0,0V-39.291"/></g><g transform="translate(563.5 -126.704)"><path class="f" d="M0,0H127"/></g><g transform="translate(563.5 -87.059)"><path class="f" d="M0,0V-39.291"/></g><g transform="translate(690.5 -126.704)"><path class="f" d="M0,0H127"/></g><g transform="translate(690.5 -87.059)"><path class="f" d="M0,0V-39.291"/></g><g transform="translate(817.5 -126.704)"><path class="f" d="M0,0H126.5"/></g><g transform="translate(817.5 -87.059)"><path class="f" d="M0,0V-39.291"/></g><g transform="translate(59.146 -86.704)"><path class="f" d="M0,0H250.354"/></g><g transform="translate(59.5 -47.058)"><path class="f" d="M0,0V-39.291"/></g><g transform="translate(309.5 -86.704)"><path class="f" d="M0,0H127"/></g><g transform="translate(309.5 -47.058)"><path class="f" d="M0,0V-39.291"/></g><g transform="translate(436.5 -86.704)"><path class="f" d="M0,0H127"/></g><g transform="translate(436.5 -47.058)"><path class="f" d="M0,0V-39.291"/></g><g transform="translate(563.5 -86.704)"><path class="f" d="M0,0H127"/></g><g transform="translate(563.5 -47.058)"><path class="f" d="M0,0V-39.291"/></g><g transform="translate(690.5 -86.704)"><path class="f" d="M0,0H127"/></g><g transform="translate(690.5 -47.058)"><path class="f" d="M0,0V-39.291"/></g><g transform="translate(817.5 -86.704)"><path class="f" d="M0,0H126.5"/></g><g transform="translate(817.5 -47.058)"><path class="f" d="M0,0V-39.291"/></g><g transform="translate(59.146 -46.704)"><path class="f" d="M0,0H250.354"/></g><g transform="translate(59.5 -7.204)"><path class="f" d="M0,0V-39.146"/></g><g transform="translate(309.5 -46.704)"><path class="f" d="M0,0H127"/></g><g transform="translate(309.5 -7.204)"><path class="f" d="M0,0V-39.146"/></g><g transform="translate(436.5 -46.704)"><path class="f" d="M0,0H127"/></g><g transform="translate(436.5 -7.204)"><path class="f" d="M0,0V-39.146"/></g><g transform="translate(563.5 -46.704)"><path class="f" d="M0,0H127"/></g><g transform="translate(563.5 -7.204)"><path class="f" d="M0,0V-39.146"/></g><g transform="translate(690.5 -46.704)"><path class="f" d="M0,0H127"/></g><g transform="translate(690.5 -7.204)"><path class="f" d="M0,0V-39.146"/></g><g transform="translate(817.5 -46.704)"><path class="f" d="M0,0H126.5"/></g><g transform="translate(817.5 -7.204)"><path class="f" d="M0,0V-39.146"/></g><g transform="translate(9 -422.704)"><path class="g" d="M0,0H50.5"/></g><g transform="translate(9.5 -394.704)"><path class="g" d="M0,0V-27.5"/></g><g transform="translate(59.5 -422.704)"><path class="g" d="M0,0H250"/></g><g transform="translate(309.5 -422.704)"><path class="g" d="M0,0H127"/></g><g transform="translate(436.5 -422.704)"><path class="g" d="M0,0H127"/></g><g transform="translate(563.5 -422.704)"><path class="g" d="M0,0H127"/></g><g transform="translate(690.5 -422.704)"><path class="g" d="M0,0H127"/></g><g transform="translate(817.5 -422.704)"><path class="g" d="M0,0H127.5"/></g><g transform="translate(944.5 -394.704)"><path class="g" d="M0,0V-27.5"/></g><g transform="translate(9.5 -366.704)"><path class="g" d="M0,0V-28"/></g><g transform="translate(944.5 -366.704)"><path class="g" d="M0,0V-28"/></g><g transform="translate(9.5 -326.704)"><path class="g" d="M0,0V-40"/></g><g transform="translate(9.5 -286.704)"><path class="g" d="M0,0V-40"/></g><g transform="translate(9.5 -246.704)"><path class="g" d="M0,0V-40"/></g><g transform="translate(9.5 -206.704)"><path class="g" d="M0,0V-40"/></g><g transform="translate(9.5 -166.704)"><path class="g" d="M0,0V-40"/></g><g transform="translate(9.5 -126.704)"><path class="g" d="M0,0V-40"/></g><g transform="translate(9.5 -86.704)"><path class="g" d="M0,0V-40"/></g><g transform="translate(9.5 -46.704)"><path class="g" d="M0,0V-40"/></g><g transform="translate(9.5 -7.204)"><path class="g" d="M0,0V-39.5"/></g><g transform="translate(9 -6.704)"><path class="g" d="M0,0H50.5"/></g><g transform="translate(944.5 -326.704)"><path class="g" d="M0,0V-40"/></g><g transform="translate(944.5 -286.704)"><path class="g" d="M0,0V-40"/></g><g transform="translate(944.5 -246.704)"><path class="g" d="M0,0V-40"/></g><g transform="translate(944.5 -206.704)"><path class="g" d="M0,0V-40"/></g><g transform="translate(944.5 -166.704)"><path class="g" d="M0,0V-40"/></g><g transform="translate(944.5 -126.704)"><path class="g" d="M0,0V-40"/></g><g transform="translate(944.5 -86.704)"><path class="g" d="M0,0V-40"/></g><g transform="translate(944.5 -46.704)"><path class="g" d="M0,0V-40"/></g><g transform="translate(944.5 -7.204)"><path class="g" d="M0,0V-39.5"/></g><g transform="translate(59.5 -6.704)"><path class="g" d="M0,0H250"/></g><g transform="translate(309.5 -6.704)"><path class="g" d="M0,0H127"/></g><g transform="translate(436.5 -6.704)"><path class="g" d="M0,0H127"/></g><g transform="translate(563.5 -6.704)"><path class="g" d="M0,0H127"/></g><g transform="translate(690.5 -6.704)"><path class="g" d="M0,0H127"/></g><g transform="translate(817.5 -6.704)"><path class="g" d="M0,0H127.5"/></g><text class="h" transform="translate(166.5 -387.864)"><tspan x="0" y="0">内容</tspan></text><text class="h" transform="translate(345.996 -401.868)"><tspan x="0" y="0">チラ</tspan><tspan y="0">見</tspan></text><text class="h" transform="translate(473.004 -401.868)"><tspan x="0" y="0">ガン</tspan><tspan y="0">見</tspan></text><text class="h" transform="translate(609.012 -401.868)"><tspan x="0" y="0">和</tspan><tspan y="0">み</tspan></text><text class="h" transform="translate(736.02 -401.868)"><tspan x="0" y="0">励</tspan><tspan y="0">み</tspan></text><text class="h" transform="translate(863.028 -401.868)"><tspan x="0" y="0">極</tspan><tspan y="0">み</tspan></text><text class="i" transform="translate(323.273 -376.665)"><tspan x="0" y="0">年会費</tspan></text><text class="h" transform="translate(357.82 -373.864)"><tspan x="0" y="0">1000</tspan></text><text class="h" transform="translate(404.728 -373.864)"><tspan x="0" y="0">円</tspan></text><text class="i" transform="translate(457.176 -376.665)"><tspan x="0" y="0">年会費</tspan></text><text class="h" transform="translate(491.723 -373.864)"><tspan x="0" y="0">1</tspan></text><text class="h" transform="translate(506.825 -373.864)"><tspan x="0" y="0">万円</tspan></text><text class="i" transform="translate(578.875 -376.665)"><tspan x="0" y="0">年会費</tspan></text><text class="h" transform="translate(613.422 -373.864)"><tspan x="0" y="0">30</tspan></text><text class="h" transform="translate(639.126 -373.864)"><tspan x="0" y="0">万円</tspan></text><text class="i" transform="translate(700.574 -376.665)"><tspan x="0" y="0">年会費</tspan></text><text class="h" transform="translate(735.121 -373.864)"><tspan x="0" y="0">200</tspan></text><text class="h" transform="translate(771.427 -373.864)"><tspan x="0" y="0">万円</tspan></text><text class="i" transform="translate(827.574 -376.665)"><tspan x="0" y="0">年会費</tspan></text><text class="h" transform="translate(862.121 -373.864)"><tspan x="0" y="0">500</tspan></text><text class="h" transform="translate(898.427 -373.864)"><tspan x="0" y="0">万円</tspan></text><text class="j" transform="translate(25.499 -233.014)"><tspan x="0" y="0">サ</tspan></text><text class="j" transform="translate(25.499 -211.756)"><tspan x="0" y="0">ポ</tspan></text><text class="j" transform="translate(41.34 -188.334) rotate(-90)"><tspan x="0" y="0">ー</tspan></text><text class="j" transform="translate(25.5 -169.234)"><tspan x="0" y="0">タ</tspan></text><text class="j" transform="translate(41.34 -145.814) rotate(-90)"><tspan x="0" y="0">ー</tspan></text><text class="j" transform="translate(25.5 -126.715)"><tspan x="0" y="0">様</tspan></text><text class="k" transform="translate(98.994 -339.871)"><tspan x="0" y="0">活動報告提出（随時）</tspan></text><text class="k" transform="translate(361.974 -339.871)"><tspan x="0" y="0" xml:space="preserve"> ◎</tspan></text><text class="k" transform="translate(490.998 -339.871)"><tspan x="0" y="0">◎</tspan></text><text class="k" transform="translate(618.006 -339.871)"><tspan x="0" y="0">◎</tspan></text><text class="k" transform="translate(745.014 -339.871)"><tspan x="0" y="0">◎</tspan></text><text class="k" transform="translate(872.022 -339.871)"><tspan x="0" y="0">◎</tspan></text><text class="k" transform="translate(130.53 -299.875)"><tspan x="0" y="0">お</tspan><tspan y="0">礼状</tspan><tspan y="0">の</tspan><tspan y="0">送付</tspan></text><text class="k" transform="translate(364.026 -299.875)"><tspan x="0" y="0">◎</tspan></text><text class="k" transform="translate(491.034 -299.875)"><tspan x="0" y="0">◎</tspan></text><text class="k" transform="translate(618.042 -299.875)"><tspan x="0" y="0">◎</tspan></text><text class="k" transform="translate(745.05 -299.875)"><tspan x="0" y="0">◎</tspan></text><text class="k" transform="translate(872.058 -299.875)"><tspan x="0" y="0">◎</tspan></text><text class="k" transform="translate(69.816 -259.879)"><tspan x="0" y="0">F</tspan></text><text class="k" transform="translate(79.068 -259.879)"><tspan x="0" y="0">ac</tspan></text><text class="k" transform="translate(97.95 -259.879)"><tspan x="0" y="0">ebook</tspan></text><text class="k" transform="translate(155.296 -259.879)"><tspan x="0" y="0">グループへの</tspan><tspan y="0">招待</tspan></text><text class="k" transform="translate(364.062 -259.879)"><tspan x="0" y="0">◎</tspan></text><text class="k" transform="translate(491.07 -259.879)"><tspan x="0" y="0">◎</tspan></text><text class="k" transform="translate(618.078 -259.879)"><tspan x="0" y="0">◎</tspan></text><text class="k" transform="translate(745.086 -259.879)"><tspan x="0" y="0">◎</tspan></text><text class="k" transform="translate(872.094 -259.879)"><tspan x="0" y="0">◎</tspan></text><text class="k" transform="translate(81.102 -219.882)"><tspan x="0" y="0">選手</tspan><tspan y="0">との</tspan><tspan y="0">記念撮影（個別）</tspan></text><text class="k" transform="translate(364.098 -219.882)"><tspan x="0" y="0">◎</tspan></text><text class="k" transform="translate(491.106 -219.882)"><tspan x="0" y="0">◎</tspan></text><text class="k" transform="translate(618.114 -219.882)"><tspan x="0" y="0">◎</tspan></text><text class="k" transform="translate(745.122 -219.882)"><tspan x="0" y="0">◎</tspan></text><text class="k" transform="translate(872.13 -219.882)"><tspan x="0" y="0">◎</tspan></text><text class="k" transform="translate(130.638 -179.887)"><tspan x="0" y="0">イベント</tspan><tspan y="0">招待</tspan></text><text class="l" transform="translate(364.134 -179.887)"><tspan x="0" y="0">×</tspan></text><text class="k" transform="translate(491.142 -179.887)"><tspan x="0" y="0">△</tspan></text><text class="k" transform="translate(618.15 -179.887)"><tspan x="0" y="0">◯</tspan></text><text class="k" transform="translate(745.158 -179.887)"><tspan x="0" y="0">◎</tspan></text><text class="k" transform="translate(872.166 -179.887)"><tspan x="0" y="0">◎</tspan></text><text class="k" transform="translate(109.938 -139.891)"><tspan x="0" y="0">r</tspan></text><text class="k" transform="translate(116.436 -139.891)"><tspan x="0" y="0">aqr</tspan></text><text class="k" transform="translate(144.246 -139.891)"><tspan x="0" y="0">a HP</tspan></text><text class="k" transform="translate(187.41 -139.891)"><tspan x="0" y="0">への</tspan><tspan y="0">掲載</tspan></text><text class="l" transform="translate(364.17 -139.891)"><tspan x="0" y="0">×</tspan></text><text class="l" transform="translate(491.178 -139.891)"><tspan x="0" y="0">×</tspan></text><text class="k" transform="translate(618.186 -139.891)"><tspan x="0" y="0">△</tspan></text><text class="k" transform="translate(745.194 -139.891)"><tspan x="0" y="0">◯</tspan></text><text class="k" transform="translate(872.202 -139.891)"><tspan x="0" y="0">◎</tspan></text><text class="k" transform="translate(65.478 -99.895)"><tspan x="0" y="0">毎月</tspan><tspan y="0">お</tspan><tspan y="0">食事券（5,000</tspan></text><text class="k" transform="translate(240.942 -99.895)"><tspan x="0" y="0">円相当）</tspan></text><text class="l" transform="translate(364.206 -99.895)"><tspan x="0" y="0">×</tspan></text><text class="l" transform="translate(491.214 -99.895)"><tspan x="0" y="0">×</tspan></text><text class="l" transform="translate(618.222 -99.895)"><tspan x="0" y="0">×</tspan></text><text class="k" transform="translate(745.23 -99.895)"><tspan x="0" y="0">◎</tspan></text><text class="k" transform="translate(872.238 -99.895)"><tspan x="0" y="0">◎</tspan></text><text class="k" transform="translate(64.74 -59.898)"><tspan x="0" y="0">毎月</tspan><tspan y="0">お</tspan><tspan y="0">食事券</tspan></text><text class="k" transform="translate(164.287 -59.898)"><tspan x="0" y="0">（10,000</tspan></text><text class="k" transform="translate(241.739 -59.898)"><tspan x="0" y="0">円相当）</tspan></text><text class="l" transform="translate(364.242 -59.898)"><tspan x="0" y="0">×</tspan></text><text class="l" transform="translate(491.25 -59.898)"><tspan x="0" y="0">×</tspan></text><text class="l" transform="translate(618.258 -59.898)"><tspan x="0" y="0">×</tspan></text><text class="l" transform="translate(745.266 -59.898)"><tspan x="0" y="0">×</tspan></text><text class="k" transform="translate(872.274 -59.898)"><tspan x="0" y="0">◎</tspan></text><text class="k" transform="translate(148.782 -19.903)"><tspan x="0" y="0">販売枠数</tspan></text><text class="k" transform="translate(346.278 -19.903)"><tspan x="0" y="0">無制限</tspan></text><text class="k" transform="translate(473.286 -19.903)"><tspan x="0" y="0">無制限</tspan></text><text class="k" transform="translate(612.3 -19.903)"><tspan x="0" y="0">100</tspan></text><text class="k" transform="translate(744.294 -19.903)"><tspan x="0" y="0">10</tspan></text><text class="k" transform="translate(876.288 -19.903)"><tspan x="0" y="0">1</tspan></text></g></svg>