<svg xmlns="http://www.w3.org/2000/svg" width="936" height="337" viewBox="0 0 936 337"><defs><style>.a,.j{fill:#fff;}.b{fill:#c7c7c7;}.c{fill:#131c7a;}.d{fill:#e7e8f1;}.e{fill:#4ee4f4;}.f,.g{fill:none;stroke:#2b2e34;}.f{stroke-width:0.709px;}.h,.i,.k,.l{fill:#2b2e34;}.h,.j,.k,.l{font-size:18px;}.h,.i,.j{font-family: 'Noto Sans JP', sans-serif;}.i{font-size:11px;}.k{font-family: 'Noto Sans JP', sans-serif;}.l{font-family: 'Noto Sans JP', sans-serif;}</style></defs><g transform="translate(-9 343.204)"><path class="a" d="M9-6.2H945v-337H9Z"/><path class="b" d="M9.5-342.7h50v56H9.5Z"/><path class="b" d="M59.5-342.7h250v56H59.5Zm250,0h127v28h-127Zm127,0h127v28h-127Zm127,0h127v28h-127Zm127,0h127v28h-127Zm127,0h127v28h-127Zm-508,28h127v28h-127Zm127,0h127v28h-127Zm127,0h127v28h-127Zm127,0h127v28h-127Zm127,0h127v28h-127Z"/><path class="c" d="M9.5-286.7h50v280H9.5Z"/><path class="d" d="M59.5-286.7h250v40H59.5Zm250,0h127v40h-127Zm127,0h127v40h-127Zm127,0h127v40h-127Zm127,0h127v40h-127Zm127,0h127v40h-127Zm-758,80h250v40H59.5Zm250,0h127v40h-127Zm127,0h127v40h-127Zm127,0h127v40h-127Zm127,0h127v40h-127Zm127,0h127v40h-127Zm-758,80h250v40H59.5Zm250,0h127v40h-127Zm127,0h127v40h-127Zm127,0h127v40h-127Zm127,0h127v40h-127Zm127,0h127v40h-127Z"/><path class="a" d="M59.5-246.7h250v40H59.5Zm250,0h127v40h-127Zm127,0h127v40h-127Zm127,0h127v40h-127Zm127,0h127v40h-127Zm127,0h127v40h-127Zm-758,80h250v40H59.5Zm250,0h127v40h-127Zm127,0h127v40h-127Zm127,0h127v40h-127Zm127,0h127v40h-127Zm127,0h127v40h-127Zm-758,80h250v40H59.5Zm250,0h127v40h-127Zm127,0h127v40h-127Zm127,0h127v40h-127Zm127,0h127v40h-127Zm127,0h127v40h-127Z"/><path class="e" d="M59.5-46.7h250v40H59.5Zm250,0h127v40h-127Zm127,0h127v40h-127Zm127,0h127v40h-127Zm127,0h127v40h-127Zm127,0h127v40h-127Z"/><g transform="translate(59.5 -314.704)"><path class="f" d="M0,0V-27.5"/></g><g transform="translate(309.5 -314.704)"><path class="f" d="M0,0V-27.5"/></g><g transform="translate(436.5 -314.704)"><path class="f" d="M0,0V-27.5"/></g><g transform="translate(563.5 -314.704)"><path class="f" d="M0,0V-27.5"/></g><g transform="translate(690.5 -314.704)"><path class="f" d="M0,0V-27.5"/></g><g transform="translate(817.5 -314.704)"><path class="f" d="M0,0V-27.5"/></g><g transform="translate(59.5 -287.059)"><path class="f" d="M0,0V-27.646"/></g><g transform="translate(309.5 -287.059)"><path class="f" d="M0,0V-27.646"/></g><g transform="translate(436.5 -287.059)"><path class="f" d="M0,0V-27.646"/></g><g transform="translate(563.5 -287.059)"><path class="f" d="M0,0V-27.646"/></g><g transform="translate(690.5 -287.059)"><path class="f" d="M0,0V-27.646"/></g><g transform="translate(817.5 -287.059)"><path class="f" d="M0,0V-27.646"/></g><g transform="translate(10 -286.704)"><path class="f" d="M0,0H49.5"/></g><g transform="translate(59.5 -286.704)"><path class="f" d="M0,0H250"/></g><g transform="translate(59.5 -247.059)"><path class="f" d="M0,0V-39.291"/></g><g transform="translate(309.5 -286.704)"><path class="f" d="M0,0H127"/></g><g transform="translate(309.5 -247.059)"><path class="f" d="M0,0V-39.291"/></g><g transform="translate(436.5 -286.704)"><path class="f" d="M0,0H127"/></g><g transform="translate(436.5 -247.059)"><path class="f" d="M0,0V-39.291"/></g><g transform="translate(563.5 -286.704)"><path class="f" d="M0,0H127"/></g><g transform="translate(563.5 -247.059)"><path class="f" d="M0,0V-39.291"/></g><g transform="translate(690.5 -286.704)"><path class="f" d="M0,0H127"/></g><g transform="translate(690.5 -247.059)"><path class="f" d="M0,0V-39.291"/></g><g transform="translate(817.5 -286.704)"><path class="f" d="M0,0H127.354"/></g><g transform="translate(817.5 -247.059)"><path class="f" d="M0,0V-39.291"/></g><g transform="translate(944.5 -247.059)"><path class="f" d="M0,0V-39.291"/></g><g transform="translate(59.146 -246.704)"><path class="f" d="M0,0H250.354"/></g><g transform="translate(59.5 -207.059)"><path class="f" d="M0,0V-39.291"/></g><g transform="translate(309.5 -246.704)"><path class="f" d="M0,0H127"/></g><g transform="translate(309.5 -207.059)"><path class="f" d="M0,0V-39.291"/></g><g transform="translate(436.5 -246.704)"><path class="f" d="M0,0H127"/></g><g transform="translate(436.5 -207.059)"><path class="f" d="M0,0V-39.291"/></g><g transform="translate(563.5 -246.704)"><path class="f" d="M0,0H127"/></g><g transform="translate(563.5 -207.059)"><path class="f" d="M0,0V-39.291"/></g><g transform="translate(690.5 -246.704)"><path class="f" d="M0,0H127"/></g><g transform="translate(690.5 -207.059)"><path class="f" d="M0,0V-39.291"/></g><g transform="translate(817.5 -246.704)"><path class="f" d="M0,0H127.354"/></g><g transform="translate(817.5 -207.059)"><path class="f" d="M0,0V-39.291"/></g><g transform="translate(944.5 -207.059)"><path class="f" d="M0,0V-39.291"/></g><g transform="translate(59.146 -206.704)"><path class="f" d="M0,0H250.354"/></g><g transform="translate(59.5 -167.059)"><path class="f" d="M0,0V-39.291"/></g><g transform="translate(309.5 -206.704)"><path class="f" d="M0,0H127"/></g><g transform="translate(309.5 -167.059)"><path class="f" d="M0,0V-39.291"/></g><g transform="translate(436.5 -206.704)"><path class="f" d="M0,0H127"/></g><g transform="translate(436.5 -167.059)"><path class="f" d="M0,0V-39.291"/></g><g transform="translate(563.5 -206.704)"><path class="f" d="M0,0H127"/></g><g transform="translate(563.5 -167.059)"><path class="f" d="M0,0V-39.291"/></g><g transform="translate(690.5 -206.704)"><path class="f" d="M0,0H127"/></g><g transform="translate(690.5 -167.059)"><path class="f" d="M0,0V-39.291"/></g><g transform="translate(817.5 -206.704)"><path class="f" d="M0,0H127.354"/></g><g transform="translate(817.5 -167.059)"><path class="f" d="M0,0V-39.291"/></g><g transform="translate(944.5 -167.059)"><path class="f" d="M0,0V-39.291"/></g><g transform="translate(59.146 -166.704)"><path class="f" d="M0,0H250.354"/></g><g transform="translate(59.5 -127.059)"><path class="f" d="M0,0V-39.291"/></g><g transform="translate(309.5 -166.704)"><path class="f" d="M0,0H127"/></g><g transform="translate(309.5 -127.059)"><path class="f" d="M0,0V-39.291"/></g><g transform="translate(436.5 -166.704)"><path class="f" d="M0,0H127"/></g><g transform="translate(436.5 -127.059)"><path class="f" d="M0,0V-39.291"/></g><g transform="translate(563.5 -166.704)"><path class="f" d="M0,0H127"/></g><g transform="translate(563.5 -127.059)"><path class="f" d="M0,0V-39.291"/></g><g transform="translate(690.5 -166.704)"><path class="f" d="M0,0H127"/></g><g transform="translate(690.5 -127.059)"><path class="f" d="M0,0V-39.291"/></g><g transform="translate(817.5 -166.704)"><path class="f" d="M0,0H127.354"/></g><g transform="translate(817.5 -127.059)"><path class="f" d="M0,0V-39.291"/></g><g transform="translate(944.5 -127.059)"><path class="f" d="M0,0V-39.291"/></g><g transform="translate(59.146 -126.704)"><path class="f" d="M0,0H250.354"/></g><g transform="translate(59.5 -87.059)"><path class="f" d="M0,0V-39.291"/></g><g transform="translate(309.5 -126.704)"><path class="f" d="M0,0H127"/></g><g transform="translate(309.5 -87.059)"><path class="f" d="M0,0V-39.291"/></g><g transform="translate(436.5 -126.704)"><path class="f" d="M0,0H127"/></g><g transform="translate(436.5 -87.059)"><path class="f" d="M0,0V-39.291"/></g><g transform="translate(563.5 -126.704)"><path class="f" d="M0,0H127"/></g><g transform="translate(563.5 -87.059)"><path class="f" d="M0,0V-39.291"/></g><g transform="translate(690.5 -126.704)"><path class="f" d="M0,0H127"/></g><g transform="translate(690.5 -87.059)"><path class="f" d="M0,0V-39.291"/></g><g transform="translate(817.5 -126.704)"><path class="f" d="M0,0H127.354"/></g><g transform="translate(817.5 -87.059)"><path class="f" d="M0,0V-39.291"/></g><g transform="translate(944.5 -87.059)"><path class="f" d="M0,0V-39.291"/></g><g transform="translate(59.146 -86.704)"><path class="f" d="M0,0H250.354"/></g><g transform="translate(59.5 -46.704)"><path class="f" d="M0,0V-39.646"/></g><g transform="translate(309.5 -86.704)"><path class="f" d="M0,0H127"/></g><g transform="translate(309.5 -47.204)"><path class="f" d="M0,0V-39.146"/></g><g transform="translate(436.5 -86.704)"><path class="f" d="M0,0H127"/></g><g transform="translate(436.5 -47.204)"><path class="f" d="M0,0V-39.146"/></g><g transform="translate(563.5 -86.704)"><path class="f" d="M0,0H127"/></g><g transform="translate(563.5 -47.204)"><path class="f" d="M0,0V-39.146"/></g><g transform="translate(690.5 -86.704)"><path class="f" d="M0,0H127"/></g><g transform="translate(690.5 -47.204)"><path class="f" d="M0,0V-39.146"/></g><g transform="translate(817.5 -86.704)"><path class="f" d="M0,0H127.354"/></g><g transform="translate(817.5 -47.204)"><path class="f" d="M0,0V-39.146"/></g><g transform="translate(944.5 -47.204)"><path class="f" d="M0,0V-39.146"/></g><g transform="translate(59.5 -7.204)"><path class="f" d="M0,0V-39.5"/></g><g transform="translate(309.5 -7.204)"><path class="f" d="M0,0V-39"/></g><g transform="translate(436.5 -7.204)"><path class="f" d="M0,0V-39"/></g><g transform="translate(563.5 -7.204)"><path class="f" d="M0,0V-39"/></g><g transform="translate(690.5 -7.204)"><path class="f" d="M0,0V-39"/></g><g transform="translate(817.5 -7.204)"><path class="f" d="M0,0V-39"/></g><g transform="translate(9 -342.704)"><path class="g" d="M0,0H50.5"/></g><g transform="translate(9.5 -314.704)"><path class="g" d="M0,0V-27.5"/></g><g transform="translate(59.5 -342.704)"><path class="g" d="M0,0H250"/></g><g transform="translate(309.5 -342.704)"><path class="g" d="M0,0H127"/></g><g transform="translate(436.5 -342.704)"><path class="g" d="M0,0H127"/></g><g transform="translate(563.5 -342.704)"><path class="g" d="M0,0H127"/></g><g transform="translate(690.5 -342.704)"><path class="g" d="M0,0H127"/></g><g transform="translate(817.5 -342.704)"><path class="g" d="M0,0H127.5"/></g><g transform="translate(944.5 -314.704)"><path class="g" d="M0,0V-27.5"/></g><g transform="translate(9.5 -286.704)"><path class="g" d="M0,0V-28"/></g><g transform="translate(944.5 -287.059)"><path class="g" d="M0,0V-27.646"/></g><g transform="translate(9.5 -246.704)"><path class="g" d="M0,0V-40"/></g><g transform="translate(9.5 -206.704)"><path class="g" d="M0,0V-40"/></g><g transform="translate(9.5 -166.704)"><path class="g" d="M0,0V-40"/></g><g transform="translate(9.5 -126.704)"><path class="g" d="M0,0V-40"/></g><g transform="translate(9.5 -86.704)"><path class="g" d="M0,0V-40"/></g><g transform="translate(9.5 -46.704)"><path class="g" d="M0,0V-40"/></g><g transform="translate(9.5 -7.204)"><path class="g" d="M0,0V-39.5"/></g><g transform="translate(9 -6.704)"><path class="g" d="M0,0H50.5"/></g><g transform="translate(59.854 -46.704)"><path class="g" d="M0,0H249.646"/></g><g transform="translate(309.5 -46.704)"><path class="g" d="M0,0H127"/></g><g transform="translate(436.5 -46.704)"><path class="g" d="M0,0H127"/></g><g transform="translate(563.5 -46.704)"><path class="g" d="M0,0H127"/></g><g transform="translate(690.5 -46.704)"><path class="g" d="M0,0H127"/></g><g transform="translate(817.5 -46.704)"><path class="g" d="M0,0H127.5"/></g><g transform="translate(944.5 -7.204)"><path class="g" d="M0,0V-39"/></g><g transform="translate(59.5 -6.704)"><path class="g" d="M0,0H250"/></g><g transform="translate(309.5 -6.704)"><path class="g" d="M0,0H127"/></g><g transform="translate(436.5 -6.704)"><path class="g" d="M0,0H127"/></g><g transform="translate(563.5 -6.704)"><path class="g" d="M0,0H127"/></g><g transform="translate(690.5 -6.704)"><path class="g" d="M0,0H127"/></g><g transform="translate(817.5 -6.704)"><path class="g" d="M0,0H127.5"/></g><text class="h" transform="translate(166.5 -307.864)"><tspan x="0" y="0">内容</tspan></text><text class="h" transform="translate(345.996 -321.868)"><tspan x="0" y="0">ブルー</tspan></text><text class="h" transform="translate(464.004 -321.868)"><tspan x="0" y="0">ホワイト</tspan></text><text class="h" transform="translate(591.012 -321.868)"><tspan x="0" y="0">ブロンズ</tspan></text><text class="h" transform="translate(718.02 -321.868)"><tspan x="0" y="0">シルバー</tspan></text><text class="h" transform="translate(845.028 -321.868)"><tspan x="0" y="0">ゴールド</tspan></text><text class="i" transform="translate(330.176 -296.665)"><tspan x="0" y="0">年会費</tspan></text><text class="h" transform="translate(364.723 -293.864)"><tspan x="0" y="0">5</tspan></text><text class="h" transform="translate(379.825 -293.864)"><tspan x="0" y="0">万円</tspan></text><text class="i" transform="translate(451.875 -296.665)"><tspan x="0" y="0">年会費</tspan></text><text class="h" transform="translate(486.422 -293.864)"><tspan x="0" y="0">10</tspan></text><text class="h" transform="translate(512.126 -293.864)"><tspan x="0" y="0">万円</tspan></text><text class="i" transform="translate(578.889 -296.665)"><tspan x="0" y="0">年会</tspan></text><text class="h" transform="translate(602.806 -293.864)"><tspan x="0" y="0">100</tspan></text><text class="h" transform="translate(639.112 -293.864)"><tspan x="0" y="0">万円</tspan></text><text class="i" transform="translate(700.574 -296.665)"><tspan x="0" y="0">年会費</tspan></text><text class="h" transform="translate(735.121 -293.864)"><tspan x="0" y="0">500</tspan></text><text class="h" transform="translate(771.427 -293.864)"><tspan x="0" y="0">万円</tspan></text><text class="i" transform="translate(822.5 -296.665)"><tspan x="0" y="0">年会費</tspan></text><text class="h" transform="translate(856.878 -293.864)"><tspan x="0" y="0">1000</tspan></text><text class="h" transform="translate(903.5 -293.864)"><tspan x="0" y="0">万円</tspan></text><text class="j" transform="translate(25.495 -193.01)"><tspan x="0" y="0">ス</tspan></text><text class="j" transform="translate(25.495 -171.752)"><tspan x="0" y="0">ポ</tspan></text><text class="j" transform="translate(25.495 -150.494)"><tspan x="0" y="0">ン</tspan></text><text class="j" transform="translate(25.495 -129.236)"><tspan x="0" y="0">サ</tspan></text><text class="j" transform="translate(41.34 -105.814) rotate(-90)"><tspan x="0" y="0">ー</tspan></text><text class="j" transform="translate(25.5 -86.715)"><tspan x="0" y="0">様</tspan></text><text class="k" transform="translate(109.758 -259.857)"><tspan x="0" y="0">r</tspan></text><text class="k" transform="translate(116.256 -259.857)"><tspan x="0" y="0">aqr</tspan></text><text class="k" transform="translate(144.066 -259.857)"><tspan x="0" y="0">a HP</tspan></text><text class="k" transform="translate(187.23 -259.857)"><tspan x="0" y="0">への</tspan><tspan y="0">掲載</tspan></text><text class="k" transform="translate(363.99 -259.857)"><tspan x="0" y="0">◎</tspan></text><text class="k" transform="translate(490.998 -259.857)"><tspan x="0" y="0">◎</tspan></text><text class="k" transform="translate(618.006 -259.857)"><tspan x="0" y="0">◎</tspan></text><text class="k" transform="translate(745.014 -259.857)"><tspan x="0" y="0">◎</tspan></text><text class="k" transform="translate(872.022 -259.857)"><tspan x="0" y="0">◎</tspan></text><text class="k" transform="translate(94.53 -219.86)"><tspan x="0" y="0">販促</tspan><tspan y="0">パンフ</tspan><tspan y="0">企業名記載</tspan></text><text class="k" transform="translate(364.026 -219.86)"><tspan x="0" y="0">◎</tspan></text><text class="k" transform="translate(491.034 -219.86)"><tspan x="0" y="0">◎</tspan></text><text class="k" transform="translate(618.042 -219.86)"><tspan x="0" y="0">◎</tspan></text><text class="k" transform="translate(745.05 -219.86)"><tspan x="0" y="0">◎</tspan></text><text class="k" transform="translate(872.058 -219.86)"><tspan x="0" y="0">◎</tspan></text><text class="k" transform="translate(121.566 -179.865)"><tspan x="0" y="0">お</tspan><tspan y="0">仕事</tspan><tspan y="0">サポート</tspan></text><text class="k" transform="translate(364.062 -179.865)"><tspan x="0" y="0">◎</tspan></text><text class="k" transform="translate(491.07 -179.865)"><tspan x="0" y="0">◎</tspan></text><text class="k" transform="translate(618.078 -179.865)"><tspan x="0" y="0">◎</tspan></text><text class="k" transform="translate(745.086 -179.865)"><tspan x="0" y="0">◎</tspan></text><text class="k" transform="translate(872.094 -179.865)"><tspan x="0" y="0">◎</tspan></text><text class="k" transform="translate(80.598 -139.868)"><tspan x="0" y="0">年間報告</tspan><tspan y="0">の</tspan><tspan y="0">提出（年</tspan></text><text class="k" transform="translate(247.098 -139.868)"><tspan x="0" y="0">1</tspan></text><text class="k" transform="translate(261.588 -139.868)"><tspan x="0" y="0">回）</tspan></text><text class="k" transform="translate(364.098 -139.868)"><tspan x="0" y="0">◎</tspan></text><text class="k" transform="translate(491.106 -139.868)"><tspan x="0" y="0">◎</tspan></text><text class="k" transform="translate(618.114 -139.868)"><tspan x="0" y="0">◎</tspan></text><text class="k" transform="translate(745.122 -139.868)"><tspan x="0" y="0">◎</tspan></text><text class="k" transform="translate(872.13 -139.868)"><tspan x="0" y="0">◎</tspan></text><text class="k" transform="translate(90.138 -99.872)"><tspan x="0" y="0">活動報告</tspan><tspan y="0">の</tspan><tspan y="0">提出（随時）</tspan></text><text class="k" transform="translate(364.134 -99.872)"><tspan x="0" y="0">◯</tspan></text><text class="k" transform="translate(491.142 -99.872)"><tspan x="0" y="0">◯</tspan></text><text class="k" transform="translate(618.15 -99.872)"><tspan x="0" y="0">◎</tspan></text><text class="k" transform="translate(745.158 -99.872)"><tspan x="0" y="0">◎</tspan></text><text class="k" transform="translate(872.166 -99.872)"><tspan x="0" y="0">◎</tspan></text><text class="k" transform="translate(130.674 -59.876)"><tspan x="0" y="0">イベント</tspan><tspan y="0">招待</tspan></text><text class="l" transform="translate(364.17 -59.876)"><tspan x="0" y="0">×</tspan></text><text class="k" transform="translate(491.178 -59.876)"><tspan x="0" y="0">△</tspan></text><text class="k" transform="translate(618.186 -59.876)"><tspan x="0" y="0">◯</tspan></text><text class="k" transform="translate(745.194 -59.876)"><tspan x="0" y="0">◎</tspan></text><text class="k" transform="translate(872.202 -59.876)"><tspan x="0" y="0">◎</tspan></text><text class="k" transform="translate(148.71 -19.881)"><tspan x="0" y="0">販売枠数</tspan></text><text class="k" transform="translate(358.23 -19.881)"><tspan x="0" y="0">184</tspan></text><text class="k" transform="translate(490.224 -19.881)"><tspan x="0" y="0">10</tspan></text><text class="k" transform="translate(622.218 -19.881)"><tspan x="0" y="0">3</tspan></text><text class="k" transform="translate(749.226 -19.881)"><tspan x="0" y="0">2</tspan></text><text class="k" transform="translate(876.234 -19.881)"><tspan x="0" y="0">1</tspan></text></g></svg>