<svg xmlns="http://www.w3.org/2000/svg" width="243.596" height="276.417" viewBox="0 0 243.596 276.417"><defs><style>.a{fill:#fff;}.b{fill:#f0f0f0;}</style></defs><g transform="translate(-1453.405 -1898.989)"><g transform="translate(914.37 -1310.625) rotate(-16)"><path d="M-281.7,3373.962l-81.574,42.35,78.439-45.288Z" transform="translate(-6.015 -41.724)"/><path d="M-377.649,3413.568l84.547-50.677-1.929-3.728Z" transform="translate(0 -36.761)"/><path d="M-377.185,3403.363l78.54-53.795-2.6-4.491Z" transform="translate(-0.194 -30.868)"/><path d="M-347.39,3384.163l56.409-42.136-.729-3.714Z" transform="translate(-12.66 -28.038)"/><g transform="translate(-316.642 3271.297)"><path class="a" d="M-239.534,3319.768a19.8,19.8,0,0,0,1.556,2.966q.632,1.108,1.449,2.272c10.5,14.878,22.448,5.159,22.448,5.159s1.193,8.8,14.73,7.206c13.5-1.591,15.044-12.8,15.051-12.854l-.012-.04a13.866,13.866,0,0,1-5.007,2.484,13.87,13.87,0,0,1-8.222-.333,14.48,14.48,0,0,0,6.737-.173,14.479,14.479,0,0,0,6.077-3.313,18.355,18.355,0,0,0-2.186-4.3,17.532,17.532,0,0,1,2.648,3.857,14.535,14.535,0,0,0,3.79-14.027,14.567,14.567,0,0,0-1.071-2.819,14.53,14.53,0,0,1-4.6,7.348,17.352,17.352,0,0,0,.393-20.646,17.383,17.383,0,0,0-3.079-3.316,14.511,14.511,0,0,1,4.709,3.968,14.461,14.461,0,0,0-1.983-5.988,14.484,14.484,0,0,0-3.721-4.148,14.556,14.556,0,0,0-14.331-1.834,23.506,23.506,0,0,1,4.278,5.267,23.551,23.551,0,0,1,2.26,5.04,23.414,23.414,0,0,1,1.024,8.46,24.4,24.4,0,0,0-2.517-9.208c-.561-.27-1.255-.587-2.051-.927s-1.7-.7-2.673-1.059a26.893,26.893,0,0,0-7.021-2.514c-.811-.168-1.629-.3-2.449-.392-10.98-1.75-23.6,3.3-26.539,14.851a26.882,26.882,0,0,0-.886,3.075,27.6,27.6,0,0,0,.163,12.8A20.588,20.588,0,0,0-239.534,3319.768Z" transform="translate(259.638 -3274.993)"/><path class="b" d="M-211.237,3335.249c-13.537,1.594-14.73-7.206-14.73-7.206s-11.951,9.72-22.448-5.159a23.045,23.045,0,0,1-3.308-6.494,16.379,16.379,0,0,1-.472-1.946,36.027,36.027,0,0,1,.421-11.655,29.333,29.333,0,0,1,.742-2.849,17.566,17.566,0,0,1,1.024-3.236,17,17,0,0,1,1.548-2.831c6.223-8.948,18.572-11.795,28.516-8.506.749.194,1.482.4,2.189.629a53.055,53.055,0,0,1,6.762,2.679q-.414-.832-.9-1.647a24.492,24.492,0,0,0-6.136-6.9,14.714,14.714,0,0,0-1.994,1.454,14.4,14.4,0,0,0-1.677,1.719,13.86,13.86,0,0,1,1.415-1.892,13.9,13.9,0,0,1,1.754-1.655,24.574,24.574,0,0,0-24.365-2.6,24.581,24.581,0,0,0-2.663,1.38,27.741,27.741,0,0,0-4.936,3.735,17.41,17.41,0,0,1,2.046.211,14.3,14.3,0,0,1,2.832.726,12.372,12.372,0,0,1,2.574,1.279c-.707-.2-1.437-.376-2.181-.536s-1.5-.323-2.261-.47a10,10,0,0,0-2.345-.092,6.5,6.5,0,0,0-2.21.574l.2-.336a17.186,17.186,0,0,0-9.134,4.155,17.914,17.914,0,0,0-1.534,1.5,17.453,17.453,0,0,0-1.938,2.6,17.611,17.611,0,0,1,1.85-1.206,20.888,20.888,0,0,1,5.917-2.213,23.179,23.179,0,0,0-5.541,2.9,18.288,18.288,0,0,0-1.7,1.39,18.277,18.277,0,0,0-1.049,25.829,18.216,18.216,0,0,0,4.955,3.806,17.428,17.428,0,0,1-6.861-4.58,17.673,17.673,0,0,1-1.935-2.52,17.353,17.353,0,0,0,13.018,15.622c.134.035.268.066.4.1a16.639,16.639,0,0,1,1.33-6.109,17.383,17.383,0,0,0-.556,6.271,17.4,17.4,0,0,0,3.316.283,14.557,14.557,0,0,1-3.247.337c.052.4.115.793.194,1.192a17.453,17.453,0,0,0,20.534,13.691c.2-.04.4-.086.6-.133a14.683,14.683,0,0,1-1.962-1.42,17.2,17.2,0,0,0,2.745,1.216,17.429,17.429,0,0,0,4.178-1.812,16.615,16.615,0,0,1-3.346,2.073,17.337,17.337,0,0,0,16.893-4.214,17.417,17.417,0,0,0,2.81-3.545,14.528,14.528,0,0,1-3.622,5.674q-.471.456-.971.861a18.356,18.356,0,0,0,7.244-.441,18.4,18.4,0,0,0,13.07-22.5c0-.015-.008-.029-.011-.043C-196.193,3322.448-197.735,3333.659-211.237,3335.249Z" transform="translate(271.525 -3272.872)"/><path d="M-259.278,3329.72a14.749,14.749,0,0,0,2.641.423,16.956,16.956,0,0,0,.322,2.965,16.72,16.72,0,0,0,19.673,13.118,16.7,16.7,0,0,0,2.943-.874,14.6,14.6,0,0,0,15.8-1.462,17.537,17.537,0,0,0,9.287.07,17.628,17.628,0,0,0,12.522-21.557,17.538,17.538,0,0,0-.734-2.183,13.93,13.93,0,0,0,4.268-14.036,13.916,13.916,0,0,0-2.039-4.4,14.56,14.56,0,0,0-2.3-11.841c-.1-.137-.2-.271-.3-.4a13.852,13.852,0,0,0-1.96-7.625,13.931,13.931,0,0,0-18.791-5,23.534,23.534,0,0,0-27.313-2.285,23.474,23.474,0,0,0-6.738,6.046,14.56,14.56,0,0,0-11.091,4.816,14.6,14.6,0,0,0-2.979,5.063q-.538.424-1.05.9a17.519,17.519,0,0,0-3.007,22.12A14.6,14.6,0,0,0-259.278,3329.72Zm-6.938-12.752a18.278,18.278,0,0,1,1.049-25.829,18.214,18.214,0,0,1,7.388-4.146,17.419,17.419,0,0,0-7.914,3.277,17.293,17.293,0,0,1,1.94-2.6,17.272,17.272,0,0,1,10.787-5.6c-.069.107-.137.211-.2.317.09-.11.182-.218.275-.326a17.361,17.361,0,0,1,9.382,1.515,14.52,14.52,0,0,0-8.114-2.89,24.562,24.562,0,0,1,4.826-3.767,24.56,24.56,0,0,1,27.029,1.22,13.85,13.85,0,0,0-3.171,3.549,14.5,14.5,0,0,1,3.672-3.175,24.483,24.483,0,0,1,6.135,6.9c.333.557.639,1.124.924,1.7l-.015-.006a24.528,24.528,0,0,1,1.719,4.5c.015.057.03.112.044.168.035.132.069.263.1.395a24.369,24.369,0,0,1,.64,4.1c0-.02,0-.04,0-.059,0,.035.006.069.009.1a23.424,23.424,0,0,0-.6-6.941,23.538,23.538,0,0,0-2.691-6.6,23.511,23.511,0,0,0-4.278-5.265,14.543,14.543,0,0,1,18.051,5.98,14.454,14.454,0,0,1,1.984,5.989,14.481,14.481,0,0,0-4.709-3.969,17.366,17.366,0,0,1,3.079,3.316,17.354,17.354,0,0,1-.394,20.648,14.531,14.531,0,0,0,4.6-7.35,14.618,14.618,0,0,1,1.071,2.819,14.536,14.536,0,0,1-3.79,14.027,17.592,17.592,0,0,0-2.647-3.857,18.366,18.366,0,0,1,2.185,4.3,14.475,14.475,0,0,1-6.078,3.314,14.476,14.476,0,0,1-6.737.173,13.87,13.87,0,0,0,8.223.334,13.9,13.9,0,0,0,5.007-2.484c.008.028.016.054.023.081a18.4,18.4,0,0,1-13.07,22.5,18.319,18.319,0,0,1-7.244.442q.5-.407.97-.86a14.544,14.544,0,0,0,3.622-5.676,17.387,17.387,0,0,1-2.812,3.547,17.335,17.335,0,0,1-16.891,4.212,16.58,16.58,0,0,0,3.345-2.074,17.349,17.349,0,0,1-4.177,1.813,17.2,17.2,0,0,1-2.745-1.215,14.47,14.47,0,0,0,1.961,1.418c-.2.048-.4.092-.6.133a17.453,17.453,0,0,1-20.534-13.691c-.079-.4-.143-.8-.194-1.192a14.61,14.61,0,0,0,3.246-.337,17.379,17.379,0,0,1-3.315-.283,17.325,17.325,0,0,1,.556-6.27,16.661,16.661,0,0,0-1.33,6.108c-.135-.031-.269-.062-.4-.1a17.354,17.354,0,0,1-13.018-15.623,17.672,17.672,0,0,0,1.934,2.52,17.444,17.444,0,0,0,6.862,4.581A18.252,18.252,0,0,1-266.216,3316.968Zm42.34-8.216a12.987,12.987,0,0,0,7.4-5.208,18.367,18.367,0,0,1,2.361,5.322,18.4,18.4,0,0,1-13.071,22.5,18.332,18.332,0,0,1-8.524.219,17.548,17.548,0,0,0,10.4.423,17.63,17.63,0,0,0,12.523-21.557,17.57,17.57,0,0,0-3.655-6.96,13.008,13.008,0,0,0,1.827-10.682,12.986,12.986,0,0,0-2.924-5.4,13.612,13.612,0,0,1,1.94,4.228,13.609,13.609,0,0,1-9.668,16.641,13.531,13.531,0,0,1-6.3.162A12.98,12.98,0,0,0-223.876,3308.752Zm-26.563,1.29c.006.01.011.021.016.031l-.008-.031a11.1,11.1,0,0,1,6.005,2.311,9.309,9.309,0,0,0-6.248-3.243,21.955,21.955,0,0,1-.6-4.695,21.949,21.949,0,0,1,15.122-21.294,18.457,18.457,0,0,0-16.391,18.706,18.355,18.355,0,0,0,1.645,7.264,9.289,9.289,0,0,0-6,1.675,9.272,9.272,0,0,0-2.856,3.221,11.088,11.088,0,0,1,2.13-1.958A11.048,11.048,0,0,1-250.44,3310.042Z" transform="translate(272.757 -3271.297)"/></g></g><g transform="translate(1831.054 -1277.297)"><path d="M-223.02,3376.075l-140.252,72.814,134.862-77.865Z"/><path d="M-377.649,3452.7l145.364-87.13-3.317-6.41Z"/><path d="M-377.185,3445.29l135.037-92.491-4.478-7.722Z"/><path d="M-347.39,3417.144l96.985-72.446-1.253-6.386Z"/><path class="a" d="M-238.192,3348.28a34.048,34.048,0,0,0,2.676,5.1q1.088,1.905,2.492,3.906c18.048,25.581,38.6,8.87,38.6,8.87s2.052,15.129,25.326,12.389c23.215-2.735,25.865-22.009,25.878-22.1l-.021-.068a23.836,23.836,0,0,1-8.608,4.271,23.845,23.845,0,0,1-14.137-.573,24.9,24.9,0,0,0,11.583-.3,24.894,24.894,0,0,0,10.449-5.7,31.555,31.555,0,0,0-3.758-7.39,30.137,30.137,0,0,1,4.552,6.632,24.99,24.99,0,0,0,6.517-24.117,25.038,25.038,0,0,0-1.841-4.846,24.981,24.981,0,0,1-7.9,12.634,29.834,29.834,0,0,0,.675-35.5,29.9,29.9,0,0,0-5.293-5.7,24.959,24.959,0,0,1,8.1,6.822,24.864,24.864,0,0,0-3.409-10.295,24.9,24.9,0,0,0-6.4-7.131,25.027,25.027,0,0,0-24.64-3.153A40.417,40.417,0,0,1-170,3291.09a40.491,40.491,0,0,1,3.885,8.665,40.255,40.255,0,0,1,1.76,14.546,41.957,41.957,0,0,0-4.328-15.831c-.965-.463-2.157-1.009-3.527-1.594s-2.918-1.208-4.6-1.82a46.245,46.245,0,0,0-12.071-4.322c-1.394-.289-2.8-.515-4.21-.674-18.879-3.009-40.576,5.681-45.63,25.534a46.2,46.2,0,0,0-1.523,5.287,47.46,47.46,0,0,0,.281,22.016A35.41,35.41,0,0,0-238.192,3348.28Z"/><path class="b" d="M-169.1,3378.544c-23.274,2.74-25.326-12.389-25.326-12.389s-20.548,16.711-38.6-8.87a39.624,39.624,0,0,1-5.688-11.165,28.161,28.161,0,0,1-.812-3.345,61.939,61.939,0,0,1,.723-20.039,50.435,50.435,0,0,1,1.276-4.9,30.206,30.206,0,0,1,1.76-5.563,29.232,29.232,0,0,1,2.662-4.867c10.7-15.385,31.931-20.279,49.028-14.625,1.287.333,2.548.7,3.764,1.081a91.31,91.31,0,0,1,11.626,4.607q-.713-1.431-1.542-2.831a42.112,42.112,0,0,0-10.549-11.863,25.23,25.23,0,0,0-3.428,2.5,24.726,24.726,0,0,0-2.883,2.956,23.86,23.86,0,0,1,2.433-3.253,23.956,23.956,0,0,1,3.016-2.845,42.249,42.249,0,0,0-41.891-4.47,42.25,42.25,0,0,0-4.579,2.373,47.683,47.683,0,0,0-8.487,6.421,29.916,29.916,0,0,1,3.517.362,24.607,24.607,0,0,1,4.869,1.249,21.3,21.3,0,0,1,4.425,2.2c-1.215-.35-2.47-.647-3.75-.922-1.278-.294-2.58-.555-3.888-.809a17.194,17.194,0,0,0-4.031-.158,11.164,11.164,0,0,0-3.8.987l.336-.579c-5.962.6-11.319,3.49-15.705,7.144a30.742,30.742,0,0,0-2.637,2.586,30,30,0,0,0-3.332,4.477,30.2,30.2,0,0,1,3.18-2.073c3.077-1.926,6.512-2.836,10.173-3.8a39.861,39.861,0,0,0-9.527,4.984,31.517,31.517,0,0,0-2.922,2.39,31.424,31.424,0,0,0-1.8,44.408,31.321,31.321,0,0,0,8.52,6.544,29.962,29.962,0,0,1-11.8-7.875,30.391,30.391,0,0,1-3.327-4.332,29.836,29.836,0,0,0,22.382,26.859c.231.061.461.113.694.166a28.6,28.6,0,0,1,2.286-10.5,29.885,29.885,0,0,0-.956,10.781,29.957,29.957,0,0,0,5.7.487,25.043,25.043,0,0,1-5.582.58c.089.682.2,1.364.334,2.05a30.007,30.007,0,0,0,35.3,23.539c.35-.069.7-.147,1.04-.229a25.245,25.245,0,0,1-3.373-2.441,29.579,29.579,0,0,0,4.72,2.091,29.969,29.969,0,0,0,7.183-3.115,28.568,28.568,0,0,1-5.753,3.565,29.808,29.808,0,0,0,29.045-7.245,29.943,29.943,0,0,0,4.832-6.095,24.98,24.98,0,0,1-6.228,9.756q-.81.784-1.669,1.481a31.553,31.553,0,0,0,12.455-.758,31.635,31.635,0,0,0,22.472-38.685c-.006-.025-.014-.05-.019-.075C-143.237,3356.535-145.887,3375.809-169.1,3378.544Z"/><path d="M-249.582,3371.746a25.358,25.358,0,0,0,4.541.727,29.158,29.158,0,0,0,.554,5.1,28.748,28.748,0,0,0,33.825,22.554,28.711,28.711,0,0,0,5.06-1.5,25.108,25.108,0,0,0,27.17-2.514,30.154,30.154,0,0,0,15.967.12,30.308,30.308,0,0,0,21.53-37.063,30.135,30.135,0,0,0-1.262-3.754,23.951,23.951,0,0,0,7.338-24.132,23.924,23.924,0,0,0-3.505-7.572,25.033,25.033,0,0,0-3.96-20.359c-.167-.235-.339-.466-.513-.693a23.816,23.816,0,0,0-3.37-13.11,23.952,23.952,0,0,0-32.308-8.6,40.462,40.462,0,0,0-46.96-3.929,40.352,40.352,0,0,0-11.585,10.4,25.033,25.033,0,0,0-19.069,8.281,25.1,25.1,0,0,0-5.122,8.706q-.926.729-1.806,1.54a30.12,30.12,0,0,0-5.17,38.031A25.094,25.094,0,0,0-249.582,3371.746Zm-11.929-21.925a31.426,31.426,0,0,1,1.8-44.408,31.319,31.319,0,0,1,12.7-7.129,29.951,29.951,0,0,0-13.607,5.634,29.743,29.743,0,0,1,3.335-4.475,29.7,29.7,0,0,1,18.547-9.63c-.118.183-.236.362-.348.545.154-.189.313-.374.472-.56a29.853,29.853,0,0,1,16.13,2.6,24.964,24.964,0,0,0-13.95-4.968,42.2,42.2,0,0,1,8.3-6.476,42.226,42.226,0,0,1,46.471,2.1,23.814,23.814,0,0,0-5.452,6.1,24.933,24.933,0,0,1,6.313-5.459,42.091,42.091,0,0,1,10.548,11.865c.572.957,1.1,1.932,1.588,2.916a.179.179,0,0,0-.025-.011,42.161,42.161,0,0,1,2.956,7.741c.025.1.051.193.076.289.06.226.119.452.175.679a41.893,41.893,0,0,1,1.1,7.045c0-.034,0-.068.005-.1,0,.06.011.119.015.179a40.276,40.276,0,0,0-1.037-11.934,40.473,40.473,0,0,0-4.627-11.355,40.43,40.43,0,0,0-7.356-9.052,25,25,0,0,1,31.035,10.282,24.851,24.851,0,0,1,3.411,10.3,24.9,24.9,0,0,0-8.1-6.824,29.864,29.864,0,0,1,5.294,5.7,29.837,29.837,0,0,1-.677,35.5,24.982,24.982,0,0,0,7.9-12.637,25.138,25.138,0,0,1,1.841,4.846,24.992,24.992,0,0,1-6.517,24.117,30.247,30.247,0,0,0-4.551-6.632,31.573,31.573,0,0,1,3.757,7.391,24.887,24.887,0,0,1-10.45,5.7,24.9,24.9,0,0,1-11.583.3,23.848,23.848,0,0,0,14.138.574,23.9,23.9,0,0,0,8.609-4.271c.013.048.027.093.04.14a31.634,31.634,0,0,1-22.472,38.685,31.5,31.5,0,0,1-12.454.76q.855-.7,1.667-1.479a25,25,0,0,0,6.227-9.759,29.888,29.888,0,0,1-4.834,6.1,29.805,29.805,0,0,1-29.041,7.242,28.531,28.531,0,0,0,5.751-3.566,29.822,29.822,0,0,1-7.182,3.116,29.585,29.585,0,0,1-4.719-2.088,24.922,24.922,0,0,0,3.372,2.439c-.345.082-.69.158-1.04.229a30.007,30.007,0,0,1-35.3-23.539c-.136-.685-.246-1.369-.334-2.05a25.106,25.106,0,0,0,5.581-.58,29.855,29.855,0,0,1-5.7-.487,29.788,29.788,0,0,1,.956-10.78,28.649,28.649,0,0,0-2.286,10.5c-.232-.053-.463-.106-.693-.164a29.837,29.837,0,0,1-22.383-26.861,30.391,30.391,0,0,0,3.325,4.333,29.994,29.994,0,0,0,11.8,7.877A31.386,31.386,0,0,1-261.511,3349.821Zm72.8-14.126A22.329,22.329,0,0,0-176,3326.74a31.58,31.58,0,0,1,4.06,9.151,31.636,31.636,0,0,1-22.473,38.684,31.514,31.514,0,0,1-14.656.376,30.168,30.168,0,0,0,17.887.727,30.311,30.311,0,0,0,21.531-37.063,30.21,30.21,0,0,0-6.285-11.967,22.364,22.364,0,0,0,3.141-18.366,22.325,22.325,0,0,0-5.028-9.284,23.4,23.4,0,0,1,3.336,7.269,23.4,23.4,0,0,1-16.623,28.612,23.263,23.263,0,0,1-10.839.279A22.318,22.318,0,0,0-188.715,3335.7Zm-45.671,2.218c.01.017.019.036.027.053-.005-.017-.009-.034-.014-.053a19.092,19.092,0,0,1,10.325,3.974,16.005,16.005,0,0,0-10.743-5.576,37.744,37.744,0,0,1-1.038-8.072,37.738,37.738,0,0,1,26-36.611,31.733,31.733,0,0,0-28.182,32.162,31.561,31.561,0,0,0,2.829,12.49,15.972,15.972,0,0,0-10.312,2.88,15.943,15.943,0,0,0-4.91,5.538,19.051,19.051,0,0,1,3.663-3.366A18.994,18.994,0,0,1-234.386,3337.913Z"/></g></g></svg>