<svg xmlns="http://www.w3.org/2000/svg" width="360" height="90" viewBox="0 0 360 90"><defs><style>.a{fill:#141c7b;stroke:#141c7b;stroke-width:5px;}.b,.c{fill:#fff;}.b{font-size:34px;font-family:SourceHanSansJP-Bold, Source Han Sans JP;font-weight:700;}.d{stroke:none;}.e{fill:none;}</style></defs><g class="a"><rect class="d" width="360" height="90" rx="45"/><rect class="e" x="2.5" y="2.5" width="355" height="85" rx="42.5"/></g><text class="b" transform="translate(186.527 59)"><tspan x="-57.46" y="0">Check!</tspan></text><path class="c" d="M51.106,25.988a25.272,25.272,0,1,0-29.22,25.118V33.338h-6.42v-7.35h6.42v-5.6c0-6.372,3.77-9.891,9.545-9.891a38.664,38.664,0,0,1,5.658.5v6.254H33.9c-3.139,0-4.118,1.96-4.118,3.971v4.772h7.009l-1.121,7.35H29.783V51.106A25.388,25.388,0,0,0,51.106,25.988Z" transform="translate(37.134 19.655)"/><path class="c" d="M21.841,19.454,11.8,9.424a1.888,1.888,0,0,1,0-2.677,1.912,1.912,0,0,1,2.685,0L25.861,18.111a1.892,1.892,0,0,1,.055,2.614L14.5,32.169a1.9,1.9,0,1,1-2.685-2.677Z" transform="translate(287.529 26.376)"/></svg>