<svg xmlns="http://www.w3.org/2000/svg" width="335.501" height="208.508" viewBox="0 0 335.501 208.508"><defs><style>.a{fill:#231815;}</style></defs><path class="a" d="M2248.351,5239.319c-18.529,22.2-43.355,16.231-82.444-35.948,30.143,80.515.645,95.262-100.976,35.625,84.43,89.755,71.588,106.866-4.613,114.662,55.088,20.087,74.249,32.041,60.312,58.221l14.937-6.041c5.016-16.187-5.351-34.244-56.183-48.3.276-.065.544-.13.817-.2l-.427-.2c24.9-5.889,42.7-10.608,50.693-18.94,12.319-13.283.228-35.609-46.868-85.666.229.135.452.262.68.4-.176-.187-.344-.368-.521-.556q4.311,2.531,8.4,4.868c1.124.633,2.236,1.254,3.325,1.875q9.693,5.418,18.3,9.7c.7.353,1.4.695,2.083,1.037,4.786,2.36,9.327,4.441,13.625,6.285.8.34,1.592.681,2.389,1,2.367.976,4.663,1.883,6.889,2.7q4.878,1.8,9.24,3.036c.782.237,1.542.452,2.3.644-.012.033-.023.068-.035.1a67.543,67.543,0,0,0,12.929,2.212c26.243,1.524,29.675-21.044,12.875-65.922,33.61,44.869,55.706,52.421,72.323,36.342m147.416-2.511" transform="translate(-2060.318 -5203.371)"/></svg>