<svg xmlns="http://www.w3.org/2000/svg" xmlns:xlink="http://www.w3.org/1999/xlink" width="302" height="272.97" viewBox="0 0 302 272.97"><defs><style>.a,.h,.i{fill:none;}.b{clip-path:url(#a);}.c,.l{fill:#fff;}.d{fill:#c7c7c7;}.e{fill:#131c7a;}.f{fill:#e7e8f1;}.g{fill:#4ee4f4;}.h,.i{stroke:#2b2e34;}.h{stroke-width:0.574px;}.i{stroke-width:0.81px;}.j,.k,.m,.n{fill:#2b2e34;}.j,.l,.m,.n{font-size:15px;}.j,.k,.l{font-family:SourceHanSans-Bold, Source Han Sans;font-weight:700;}.k{font-size:9px;}.m{font-family:SourceHanSans-Regular, Source Han Sans;}.n{font-family:AdobeMyungjoStd-Medium, Adobe Myungjo Std;font-weight:500;}</style><clipPath id="a"><rect class="a" width="302" height="272.97"/></clipPath></defs><g class="b"><g transform="translate(-9 278.185)"><path class="c" d="M9-5.215H767.16v-272.97H9Z"/><path class="d" d="M9.4-277.78H49.9v45.36H9.4Z"/><path class="d" d="M49.9-277.78H252.4v45.36H49.9Zm202.5,0h102.87v22.68H252.4Zm102.87,0h102.87v22.68H355.275Zm102.87,0h102.87v22.68H458.145Zm102.87,0h102.87v22.68H561.015Zm102.87,0h102.87v22.68H663.885ZM252.4-255.1h102.87v22.68H252.4Zm102.87,0h102.87v22.68H355.275Zm102.87,0h102.87v22.68H458.145Zm102.87,0h102.87v22.68H561.015Zm102.87,0h102.87v22.68H663.885Z"/><path class="e" d="M9.4-232.42H49.9V-5.62H9.4Z"/><path class="f" d="M49.9-232.42H252.4v32.4H49.9Zm202.5,0h102.87v32.4H252.4Zm102.87,0h102.87v32.4H355.275Zm102.87,0h102.87v32.4H458.145Zm102.87,0h102.87v32.4H561.015Zm102.87,0h102.87v32.4H663.885ZM49.9-167.62H252.4v32.4H49.9Zm202.5,0h102.87v32.4H252.4Zm102.87,0h102.87v32.4H355.275Zm102.87,0h102.87v32.4H458.145Zm102.87,0h102.87v32.4H561.015Zm102.87,0h102.87v32.4H663.885ZM49.9-102.82H252.4v32.4H49.9Zm202.5,0h102.87v32.4H252.4Zm102.87,0h102.87v32.4H355.275Zm102.87,0h102.87v32.4H458.145Zm102.87,0h102.87v32.4H561.015Zm102.87,0h102.87v32.4H663.885Z"/><path class="c" d="M49.9-200.02H252.4v32.4H49.9Zm202.5,0h102.87v32.4H252.4Zm102.87,0h102.87v32.4H355.275Zm102.87,0h102.87v32.4H458.145Zm102.87,0h102.87v32.4H561.015Zm102.87,0h102.87v32.4H663.885ZM49.9-135.22H252.4v32.4H49.9Zm202.5,0h102.87v32.4H252.4Zm102.87,0h102.87v32.4H355.275Zm102.87,0h102.87v32.4H458.145Zm102.87,0h102.87v32.4H561.015Zm102.87,0h102.87v32.4H663.885ZM49.9-70.42H252.4v32.4H49.9Zm202.5,0h102.87v32.4H252.4Zm102.87,0h102.87v32.4H355.275Zm102.87,0h102.87v32.4H458.145Zm102.87,0h102.87v32.4H561.015Zm102.87,0h102.87v32.4H663.885Z"/><path class="g" d="M49.9-38.02H252.4v32.4H49.9Zm202.5,0h102.87v32.4H252.4Zm102.87,0h102.87v32.4H355.275Zm102.87,0h102.87v32.4H458.145Zm102.87,0h102.87v32.4H561.015Zm102.87,0h102.87v32.4H663.885Z"/><g transform="translate(49.905 -255.1)"><path class="h" d="M0,0V-22.275"/></g><g transform="translate(252.405 -255.1)"><path class="h" d="M0,0V-22.275"/></g><g transform="translate(355.275 -255.1)"><path class="h" d="M0,0V-22.275"/></g><g transform="translate(458.145 -255.1)"><path class="h" d="M0,0V-22.275"/></g><g transform="translate(561.015 -255.1)"><path class="h" d="M0,0V-22.275"/></g><g transform="translate(663.885 -255.1)"><path class="h" d="M0,0V-22.275"/></g><g transform="translate(49.905 -232.707)"><path class="h" d="M0,0V-22.393"/></g><g transform="translate(252.405 -232.707)"><path class="h" d="M0,0V-22.393"/></g><g transform="translate(355.275 -232.707)"><path class="h" d="M0,0V-22.393"/></g><g transform="translate(458.145 -232.707)"><path class="h" d="M0,0V-22.393"/></g><g transform="translate(561.015 -232.707)"><path class="h" d="M0,0V-22.393"/></g><g transform="translate(663.885 -232.707)"><path class="h" d="M0,0V-22.393"/></g><g transform="translate(9.81 -232.42)"><path class="h" d="M0,0H40.1"/></g><g transform="translate(49.905 -232.42)"><path class="h" d="M0,0H202.5"/></g><g transform="translate(49.905 -200.307)"><path class="h" d="M0,0V-31.826"/></g><g transform="translate(252.405 -232.42)"><path class="h" d="M0,0H102.87"/></g><g transform="translate(252.405 -200.307)"><path class="h" d="M0,0V-31.826"/></g><g transform="translate(355.275 -232.42)"><path class="h" d="M0,0H102.87"/></g><g transform="translate(355.275 -200.307)"><path class="h" d="M0,0V-31.826"/></g><g transform="translate(458.145 -232.42)"><path class="h" d="M0,0H102.87"/></g><g transform="translate(458.145 -200.307)"><path class="h" d="M0,0V-31.826"/></g><g transform="translate(561.015 -232.42)"><path class="h" d="M0,0H102.87"/></g><g transform="translate(561.015 -200.307)"><path class="h" d="M0,0V-31.826"/></g><g transform="translate(663.885 -232.42)"><path class="h" d="M0,0H103.157"/></g><g transform="translate(663.885 -200.307)"><path class="h" d="M0,0V-31.826"/></g><g transform="translate(766.755 -200.307)"><path class="h" d="M0,0V-31.826"/></g><g transform="translate(49.618 -200.02)"><path class="h" d="M0,0H202.787"/></g><g transform="translate(49.905 -167.907)"><path class="h" d="M0,0V-31.826"/></g><g transform="translate(252.405 -200.02)"><path class="h" d="M0,0H102.87"/></g><g transform="translate(252.405 -167.907)"><path class="h" d="M0,0V-31.826"/></g><g transform="translate(355.275 -200.02)"><path class="h" d="M0,0H102.87"/></g><g transform="translate(355.275 -167.907)"><path class="h" d="M0,0V-31.826"/></g><g transform="translate(458.145 -200.02)"><path class="h" d="M0,0H102.87"/></g><g transform="translate(458.145 -167.907)"><path class="h" d="M0,0V-31.826"/></g><g transform="translate(561.015 -200.02)"><path class="h" d="M0,0H102.87"/></g><g transform="translate(561.015 -167.907)"><path class="h" d="M0,0V-31.826"/></g><g transform="translate(663.885 -200.02)"><path class="h" d="M0,0H103.157"/></g><g transform="translate(663.885 -167.907)"><path class="h" d="M0,0V-31.826"/></g><g transform="translate(766.755 -167.907)"><path class="h" d="M0,0V-31.826"/></g><g transform="translate(49.618 -167.62)"><path class="h" d="M0,0H202.787"/></g><g transform="translate(49.905 -135.507)"><path class="h" d="M0,0V-31.826"/></g><g transform="translate(252.405 -167.62)"><path class="h" d="M0,0H102.87"/></g><g transform="translate(252.405 -135.507)"><path class="h" d="M0,0V-31.826"/></g><g transform="translate(355.275 -167.62)"><path class="h" d="M0,0H102.87"/></g><g transform="translate(355.275 -135.507)"><path class="h" d="M0,0V-31.826"/></g><g transform="translate(458.145 -167.62)"><path class="h" d="M0,0H102.87"/></g><g transform="translate(458.145 -135.507)"><path class="h" d="M0,0V-31.826"/></g><g transform="translate(561.015 -167.62)"><path class="h" d="M0,0H102.87"/></g><g transform="translate(561.015 -135.507)"><path class="h" d="M0,0V-31.826"/></g><g transform="translate(663.885 -167.62)"><path class="h" d="M0,0H103.157"/></g><g transform="translate(663.885 -135.507)"><path class="h" d="M0,0V-31.826"/></g><g transform="translate(766.755 -135.507)"><path class="h" d="M0,0V-31.826"/></g><g transform="translate(49.618 -135.22)"><path class="h" d="M0,0H202.787"/></g><g transform="translate(49.905 -103.107)"><path class="h" d="M0,0V-31.826"/></g><g transform="translate(252.405 -135.22)"><path class="h" d="M0,0H102.87"/></g><g transform="translate(252.405 -103.107)"><path class="h" d="M0,0V-31.826"/></g><g transform="translate(355.275 -135.22)"><path class="h" d="M0,0H102.87"/></g><g transform="translate(355.275 -103.107)"><path class="h" d="M0,0V-31.826"/></g><g transform="translate(458.145 -135.22)"><path class="h" d="M0,0H102.87"/></g><g transform="translate(458.145 -103.107)"><path class="h" d="M0,0V-31.826"/></g><g transform="translate(561.015 -135.22)"><path class="h" d="M0,0H102.87"/></g><g transform="translate(561.015 -103.107)"><path class="h" d="M0,0V-31.826"/></g><g transform="translate(663.885 -135.22)"><path class="h" d="M0,0H103.157"/></g><g transform="translate(663.885 -103.107)"><path class="h" d="M0,0V-31.826"/></g><g transform="translate(766.755 -103.107)"><path class="h" d="M0,0V-31.826"/></g><g transform="translate(49.618 -102.82)"><path class="h" d="M0,0H202.787"/></g><g transform="translate(49.905 -70.707)"><path class="h" d="M0,0V-31.826"/></g><g transform="translate(252.405 -102.82)"><path class="h" d="M0,0H102.87"/></g><g transform="translate(252.405 -70.707)"><path class="h" d="M0,0V-31.826"/></g><g transform="translate(355.275 -102.82)"><path class="h" d="M0,0H102.87"/></g><g transform="translate(355.275 -70.707)"><path class="h" d="M0,0V-31.826"/></g><g transform="translate(458.145 -102.82)"><path class="h" d="M0,0H102.87"/></g><g transform="translate(458.145 -70.707)"><path class="h" d="M0,0V-31.826"/></g><g transform="translate(561.015 -102.82)"><path class="h" d="M0,0H102.87"/></g><g transform="translate(561.015 -70.707)"><path class="h" d="M0,0V-31.826"/></g><g transform="translate(663.885 -102.82)"><path class="h" d="M0,0H103.157"/></g><g transform="translate(663.885 -70.707)"><path class="h" d="M0,0V-31.826"/></g><g transform="translate(766.755 -70.707)"><path class="h" d="M0,0V-31.826"/></g><g transform="translate(49.618 -70.42)"><path class="h" d="M0,0H202.787"/></g><g transform="translate(49.905 -38.02)"><path class="h" d="M0,0V-32.113"/></g><g transform="translate(252.405 -70.42)"><path class="h" d="M0,0H102.87"/></g><g transform="translate(252.405 -38.425)"><path class="h" d="M0,0V-31.708"/></g><g transform="translate(355.275 -70.42)"><path class="h" d="M0,0H102.87"/></g><g transform="translate(355.275 -38.425)"><path class="h" d="M0,0V-31.708"/></g><g transform="translate(458.145 -70.42)"><path class="h" d="M0,0H102.87"/></g><g transform="translate(458.145 -38.425)"><path class="h" d="M0,0V-31.708"/></g><g transform="translate(561.015 -70.42)"><path class="h" d="M0,0H102.87"/></g><g transform="translate(561.015 -38.425)"><path class="h" d="M0,0V-31.708"/></g><g transform="translate(663.885 -70.42)"><path class="h" d="M0,0H103.157"/></g><g transform="translate(663.885 -38.425)"><path class="h" d="M0,0V-31.708"/></g><g transform="translate(766.755 -38.425)"><path class="h" d="M0,0V-31.708"/></g><g transform="translate(49.905 -6.025)"><path class="h" d="M0,0V-32"/></g><g transform="translate(252.405 -6.025)"><path class="h" d="M0,0V-31.59"/></g><g transform="translate(355.275 -6.025)"><path class="h" d="M0,0V-31.59"/></g><g transform="translate(458.145 -6.025)"><path class="h" d="M0,0V-31.59"/></g><g transform="translate(561.015 -6.025)"><path class="h" d="M0,0V-31.59"/></g><g transform="translate(663.885 -6.025)"><path class="h" d="M0,0V-31.59"/></g><g transform="translate(9 -277.78)"><path class="i" d="M0,0H40.9"/></g><g transform="translate(9.405 -255.1)"><path class="i" d="M0,0V-22.275"/></g><g transform="translate(49.905 -277.78)"><path class="i" d="M0,0H202.5"/></g><g transform="translate(252.405 -277.78)"><path class="i" d="M0,0H102.87"/></g><g transform="translate(355.275 -277.78)"><path class="i" d="M0,0H102.87"/></g><g transform="translate(458.145 -277.78)"><path class="i" d="M0,0H102.87"/></g><g transform="translate(561.015 -277.78)"><path class="i" d="M0,0H102.87"/></g><g transform="translate(663.885 -277.78)"><path class="i" d="M0,0H103.275"/></g><g transform="translate(766.755 -255.1)"><path class="i" d="M0,0V-22.275"/></g><g transform="translate(9.405 -232.42)"><path class="i" d="M0,0V-22.68"/></g><g transform="translate(766.755 -232.707)"><path class="i" d="M0,0V-22.393"/></g><g transform="translate(9.405 -200.02)"><path class="i" d="M0,0V-32.4"/></g><g transform="translate(9.405 -167.62)"><path class="i" d="M0,0V-32.4"/></g><g transform="translate(9.405 -135.22)"><path class="i" d="M0,0V-32.4"/></g><g transform="translate(9.405 -102.82)"><path class="i" d="M0,0V-32.4"/></g><g transform="translate(9.405 -70.42)"><path class="i" d="M0,0V-32.4"/></g><g transform="translate(9.405 -38.02)"><path class="i" d="M0,0V-32.4"/></g><g transform="translate(9.405 -6.025)"><path class="i" d="M0,0V-32"/></g><g transform="translate(9 -5.62)"><path class="i" d="M0,0H40.9"/></g><g transform="translate(50.192 -38.02)"><path class="i" d="M0,0H202.213"/></g><g transform="translate(252.405 -38.02)"><path class="i" d="M0,0H102.87"/></g><g transform="translate(355.275 -38.02)"><path class="i" d="M0,0H102.87"/></g><g transform="translate(458.145 -38.02)"><path class="i" d="M0,0H102.87"/></g><g transform="translate(561.015 -38.02)"><path class="i" d="M0,0H102.87"/></g><g transform="translate(663.885 -38.02)"><path class="i" d="M0,0H103.275"/></g><g transform="translate(766.755 -6.025)"><path class="i" d="M0,0V-31.59"/></g><g transform="translate(49.905 -5.62)"><path class="i" d="M0,0H202.5"/></g><g transform="translate(252.405 -5.62)"><path class="i" d="M0,0H102.87"/></g><g transform="translate(355.275 -5.62)"><path class="i" d="M0,0H102.87"/></g><g transform="translate(458.145 -5.62)"><path class="i" d="M0,0H102.87"/></g><g transform="translate(561.015 -5.62)"><path class="i" d="M0,0H102.87"/></g><g transform="translate(663.885 -5.62)"><path class="i" d="M0,0H103.275"/></g><text class="j" transform="translate(136.575 -249.56)"><tspan x="0" y="0">内容</tspan></text><text class="j" transform="translate(281.967 -260.903)"><tspan x="0" y="0">ブルー</tspan></text><text class="j" transform="translate(377.553 -260.903)"><tspan x="0" y="0">ホワイト</tspan></text><text class="j" transform="translate(480.43 -260.903)"><tspan x="0" y="0">ブロンズ</tspan></text><text class="j" transform="translate(583.306 -260.903)"><tspan x="0" y="0">シルバー</tspan></text><text class="j" transform="translate(686.183 -260.903)"><tspan x="0" y="0">ゴールド</tspan></text><text class="k" transform="translate(269.152 -240.488)"><tspan x="0" y="0">年会費</tspan></text><text class="j" transform="translate(297.135 -238.22)"><tspan x="0" y="0">5</tspan></text><text class="j" transform="translate(309.368 -238.22)"><tspan x="0" y="0">万円</tspan></text><text class="k" transform="translate(367.728 -240.488)"><tspan x="0" y="0">年会費</tspan></text><text class="j" transform="translate(395.712 -238.22)"><tspan x="0" y="0">10</tspan></text><text class="j" transform="translate(416.532 -238.22)"><tspan x="0" y="0">万円</tspan></text><text class="k" transform="translate(470.61 -240.488)"><tspan x="0" y="0">年会</tspan></text><text class="j" transform="translate(489.983 -238.22)"><tspan x="0" y="0">100</tspan></text><text class="j" transform="translate(519.391 -238.22)"><tspan x="0" y="0">万円</tspan></text><text class="k" transform="translate(569.175 -240.488)"><tspan x="0" y="0">年会費</tspan></text><text class="j" transform="translate(597.158 -238.22)"><tspan x="0" y="0">500</tspan></text><text class="j" transform="translate(626.566 -238.22)"><tspan x="0" y="0">万円</tspan></text><text class="k" transform="translate(667.935 -240.488)"><tspan x="0" y="0">年会費</tspan></text><text class="j" transform="translate(695.782 -238.22)"><tspan x="0" y="0">1000</tspan></text><text class="j" transform="translate(733.545 -238.22)"><tspan x="0" y="0">万円</tspan></text><text class="l" transform="translate(22.361 -156.528)"><tspan x="0" y="0">ス</tspan></text><text class="l" transform="translate(22.361 -139.309)"><tspan x="0" y="0">ポ</tspan></text><text class="l" transform="translate(22.361 -122.09)"><tspan x="0" y="0">ン</tspan></text><text class="l" transform="translate(22.361 -104.871)"><tspan x="0" y="0">サ</tspan></text><text class="l" transform="translate(35.195 -85.9) rotate(-90)"><tspan x="0" y="0">ー</tspan></text><text class="l" transform="translate(22.365 -70.429)"><tspan x="0" y="0">様</tspan></text><text class="m" transform="translate(90.614 -210.674)"><tspan x="0" y="0">r</tspan></text><text class="m" transform="translate(95.877 -210.674)"><tspan x="0" y="0">aqr</tspan></text><text class="m" transform="translate(118.404 -210.674)"><tspan x="0" y="0">a HP</tspan></text><text class="m" transform="translate(153.366 -210.674)"><tspan x="0" y="0">への</tspan><tspan y="0">掲載</tspan></text><text class="m" transform="translate(296.542 -210.674)"><tspan x="0" y="0">◎</tspan></text><text class="m" transform="translate(399.418 -210.674)"><tspan x="0" y="0">◎</tspan></text><text class="m" transform="translate(502.295 -210.674)"><tspan x="0" y="0">◎</tspan></text><text class="m" transform="translate(605.171 -210.674)"><tspan x="0" y="0">◎</tspan></text><text class="m" transform="translate(708.048 -210.674)"><tspan x="0" y="0">◎</tspan></text><text class="m" transform="translate(78.279 -178.277)"><tspan x="0" y="0">販促</tspan><tspan y="0">パンフ</tspan><tspan y="0">企業名記載</tspan></text><text class="m" transform="translate(296.571 -178.277)"><tspan x="0" y="0">◎</tspan></text><text class="m" transform="translate(399.448 -178.277)"><tspan x="0" y="0">◎</tspan></text><text class="m" transform="translate(502.324 -178.277)"><tspan x="0" y="0">◎</tspan></text><text class="m" transform="translate(605.201 -178.277)"><tspan x="0" y="0">◎</tspan></text><text class="m" transform="translate(708.077 -178.277)"><tspan x="0" y="0">◎</tspan></text><text class="m" transform="translate(100.179 -145.88)"><tspan x="0" y="0">お</tspan><tspan y="0">仕事</tspan><tspan y="0">サポート</tspan></text><text class="m" transform="translate(296.6 -145.88)"><tspan x="0" y="0">◎</tspan></text><text class="m" transform="translate(399.477 -145.88)"><tspan x="0" y="0">◎</tspan></text><text class="m" transform="translate(502.353 -145.88)"><tspan x="0" y="0">◎</tspan></text><text class="m" transform="translate(605.23 -145.88)"><tspan x="0" y="0">◎</tspan></text><text class="m" transform="translate(708.106 -145.88)"><tspan x="0" y="0">◎</tspan></text><text class="m" transform="translate(66.994 -113.483)"><tspan x="0" y="0">年間報告</tspan><tspan y="0">の</tspan><tspan y="0">提出（年</tspan></text><text class="m" transform="translate(201.859 -113.483)"><tspan x="0" y="0">1</tspan></text><text class="m" transform="translate(213.596 -113.483)"><tspan x="0" y="0">回）</tspan></text><text class="m" transform="translate(296.629 -113.483)"><tspan x="0" y="0">◎</tspan></text><text class="m" transform="translate(399.506 -113.483)"><tspan x="0" y="0">◎</tspan></text><text class="m" transform="translate(502.382 -113.483)"><tspan x="0" y="0">◎</tspan></text><text class="m" transform="translate(605.259 -113.483)"><tspan x="0" y="0">◎</tspan></text><text class="m" transform="translate(708.135 -113.483)"><tspan x="0" y="0">◎</tspan></text><text class="m" transform="translate(74.722 -81.087)"><tspan x="0" y="0">活動報告</tspan><tspan y="0">の</tspan><tspan y="0">提出（随時）</tspan></text><text class="m" transform="translate(296.659 -81.087)"><tspan x="0" y="0">◯</tspan></text><text class="m" transform="translate(399.535 -81.087)"><tspan x="0" y="0">◯</tspan></text><text class="m" transform="translate(502.412 -81.087)"><tspan x="0" y="0">◎</tspan></text><text class="m" transform="translate(605.288 -81.087)"><tspan x="0" y="0">◎</tspan></text><text class="m" transform="translate(708.165 -81.087)"><tspan x="0" y="0">◎</tspan></text><text class="m" transform="translate(107.556 -48.69)"><tspan x="0" y="0">イベント</tspan><tspan y="0">招待</tspan></text><text class="n" transform="translate(296.688 -48.69)"><tspan x="0" y="0">×</tspan></text><text class="m" transform="translate(399.564 -48.69)"><tspan x="0" y="0">△</tspan></text><text class="m" transform="translate(502.441 -48.69)"><tspan x="0" y="0">◯</tspan></text><text class="m" transform="translate(605.317 -48.69)"><tspan x="0" y="0">◎</tspan></text><text class="m" transform="translate(708.194 -48.69)"><tspan x="0" y="0">◎</tspan></text><text class="m" transform="translate(122.165 -16.293)"><tspan x="0" y="0">販売枠数</tspan></text><text class="m" transform="translate(291.876 -16.293)"><tspan x="0" y="0">184</tspan></text><text class="m" transform="translate(398.792 -16.293)"><tspan x="0" y="0">10</tspan></text><text class="m" transform="translate(505.707 -16.293)"><tspan x="0" y="0">3</tspan></text><text class="m" transform="translate(608.583 -16.293)"><tspan x="0" y="0">2</tspan></text><text class="m" transform="translate(711.46 -16.293)"><tspan x="0" y="0">1</tspan></text></g></g></svg>