<svg xmlns="http://www.w3.org/2000/svg" xmlns:xlink="http://www.w3.org/1999/xlink" width="302" height="337.77" viewBox="0 0 302 337.77"><defs><style>.a,.h,.i{fill:none;}.b{clip-path:url(#a);}.c,.l{fill:#fff;}.d{fill:#c7c7c7;}.e{fill:#ff5abd;}.f{fill:#ffeef8;}.g{fill:#4ee4f4;}.h,.i{stroke:#2b2e34;}.h{stroke-width:0.574px;}.i{stroke-width:0.81px;}.j,.k,.m,.n{fill:#2b2e34;}.j,.l,.m,.n{font-size:15px;}.j,.k,.l{font-family:SourceHanSans-Bold, Source Han Sans;font-weight:700;}.k{font-size:9px;}.m{font-family:SourceHanSans-Regular, Source Han Sans;}.n{font-family:AdobeMyungjoStd-Medium, Adobe Myungjo Std;font-weight:500;}</style><clipPath id="a"><rect class="a" width="302" height="337.77"/></clipPath></defs><g class="b"><g transform="translate(-9 342.985)"><path class="c" d="M9-5.215H766.35v-337.77H9Z"/><path class="d" d="M9.4-342.58H49.9v45.36H9.4Z"/><path class="d" d="M49.9-342.58H252.4v45.36H49.9Zm202.5,0h102.87v22.68H252.4Zm102.87,0h102.87v22.68H355.275Zm102.87,0h102.87v22.68H458.145Zm102.87,0h102.87v22.68H561.015Zm102.87,0h102.87v22.68H663.885ZM252.4-319.9h102.87v22.68H252.4Zm102.87,0h102.87v22.68H355.275Zm102.87,0h102.87v22.68H458.145Zm102.87,0h102.87v22.68H561.015Zm102.87,0h102.87v22.68H663.885Z"/><path class="e" d="M9.4-297.22H49.9V-5.62H9.4Z"/><path class="f" d="M49.9-264.82H252.4v32.4H49.9Zm202.5,0h102.87v32.4H252.4Zm102.87,0h102.87v32.4H355.275Zm102.87,0h102.87v32.4H458.145Zm102.87,0h102.87v32.4H561.015Zm102.87,0h102.87v32.4H663.885ZM49.9-200.02H252.4v32.4H49.9Zm202.5,0h102.87v32.4H252.4Zm102.87,0h102.87v32.4H355.275Zm102.87,0h102.87v32.4H458.145Zm102.87,0h102.87v32.4H561.015Zm102.87,0h102.87v32.4H663.885ZM49.9-135.22H252.4v32.4H49.9Zm202.5,0h102.87v32.4H252.4Zm102.87,0h102.87v32.4H355.275Zm102.87,0h102.87v32.4H458.145Zm102.87,0h102.87v32.4H561.015Zm102.87,0h102.87v32.4H663.885ZM49.9-70.42H252.4v32.4H49.9Zm202.5,0h102.87v32.4H252.4Zm102.87,0h102.87v32.4H355.275Zm102.87,0h102.87v32.4H458.145Zm102.87,0h102.87v32.4H561.015Zm102.87,0h102.87v32.4H663.885Z"/><path class="g" d="M49.9-38.02H252.4v32.4H49.9Zm202.5,0h102.87v32.4H252.4Zm102.87,0h102.87v32.4H355.275Zm102.87,0h102.87v32.4H458.145Zm102.87,0h102.87v32.4H561.015Zm102.87,0h102.87v32.4H663.885Z"/><g transform="translate(49.905 -319.9)"><path class="h" d="M0,0V-22.275"/></g><g transform="translate(252.405 -319.9)"><path class="h" d="M0,0V-22.275"/></g><g transform="translate(355.275 -319.9)"><path class="h" d="M0,0V-22.275"/></g><g transform="translate(458.145 -319.9)"><path class="h" d="M0,0V-22.275"/></g><g transform="translate(561.015 -319.9)"><path class="h" d="M0,0V-22.275"/></g><g transform="translate(663.885 -319.9)"><path class="h" d="M0,0V-22.275"/></g><g transform="translate(49.905 -297.507)"><path class="h" d="M0,0V-22.393"/></g><g transform="translate(252.405 -297.507)"><path class="h" d="M0,0V-22.393"/></g><g transform="translate(355.275 -297.507)"><path class="h" d="M0,0V-22.393"/></g><g transform="translate(458.145 -297.507)"><path class="h" d="M0,0V-22.393"/></g><g transform="translate(561.015 -297.507)"><path class="h" d="M0,0V-22.393"/></g><g transform="translate(663.885 -297.507)"><path class="h" d="M0,0V-22.393"/></g><g transform="translate(9.81 -297.22)"><path class="h" d="M0,0H40.1"/></g><g transform="translate(49.905 -297.22)"><path class="h" d="M0,0H202.5"/></g><g transform="translate(49.905 -265.107)"><path class="h" d="M0,0V-31.826"/></g><g transform="translate(252.405 -297.22)"><path class="h" d="M0,0H102.87"/></g><g transform="translate(252.405 -265.107)"><path class="h" d="M0,0V-31.826"/></g><g transform="translate(355.275 -297.22)"><path class="h" d="M0,0H102.87"/></g><g transform="translate(355.275 -265.107)"><path class="h" d="M0,0V-31.826"/></g><g transform="translate(458.145 -297.22)"><path class="h" d="M0,0H102.87"/></g><g transform="translate(458.145 -265.107)"><path class="h" d="M0,0V-31.826"/></g><g transform="translate(561.015 -297.22)"><path class="h" d="M0,0H102.87"/></g><g transform="translate(561.015 -265.107)"><path class="h" d="M0,0V-31.826"/></g><g transform="translate(663.885 -297.22)"><path class="h" d="M0,0H102.465"/></g><g transform="translate(663.885 -265.107)"><path class="h" d="M0,0V-31.826"/></g><g transform="translate(49.618 -264.82)"><path class="h" d="M0,0H202.787"/></g><g transform="translate(49.905 -232.707)"><path class="h" d="M0,0V-31.826"/></g><g transform="translate(252.405 -264.82)"><path class="h" d="M0,0H102.87"/></g><g transform="translate(252.405 -232.707)"><path class="h" d="M0,0V-31.826"/></g><g transform="translate(355.275 -264.82)"><path class="h" d="M0,0H102.87"/></g><g transform="translate(355.275 -232.707)"><path class="h" d="M0,0V-31.826"/></g><g transform="translate(458.145 -264.82)"><path class="h" d="M0,0H102.87"/></g><g transform="translate(458.145 -232.707)"><path class="h" d="M0,0V-31.826"/></g><g transform="translate(561.015 -264.82)"><path class="h" d="M0,0H102.87"/></g><g transform="translate(561.015 -232.707)"><path class="h" d="M0,0V-31.826"/></g><g transform="translate(663.885 -264.82)"><path class="h" d="M0,0H102.465"/></g><g transform="translate(663.885 -232.707)"><path class="h" d="M0,0V-31.826"/></g><g transform="translate(49.618 -232.42)"><path class="h" d="M0,0H202.787"/></g><g transform="translate(49.905 -200.307)"><path class="h" d="M0,0V-31.826"/></g><g transform="translate(252.405 -232.42)"><path class="h" d="M0,0H102.87"/></g><g transform="translate(252.405 -200.307)"><path class="h" d="M0,0V-31.826"/></g><g transform="translate(355.275 -232.42)"><path class="h" d="M0,0H102.87"/></g><g transform="translate(355.275 -200.307)"><path class="h" d="M0,0V-31.826"/></g><g transform="translate(458.145 -232.42)"><path class="h" d="M0,0H102.87"/></g><g transform="translate(458.145 -200.307)"><path class="h" d="M0,0V-31.826"/></g><g transform="translate(561.015 -232.42)"><path class="h" d="M0,0H102.87"/></g><g transform="translate(561.015 -200.307)"><path class="h" d="M0,0V-31.826"/></g><g transform="translate(663.885 -232.42)"><path class="h" d="M0,0H102.465"/></g><g transform="translate(663.885 -200.307)"><path class="h" d="M0,0V-31.826"/></g><g transform="translate(49.618 -200.02)"><path class="h" d="M0,0H202.787"/></g><g transform="translate(49.905 -167.907)"><path class="h" d="M0,0V-31.826"/></g><g transform="translate(252.405 -200.02)"><path class="h" d="M0,0H102.87"/></g><g transform="translate(252.405 -167.907)"><path class="h" d="M0,0V-31.826"/></g><g transform="translate(355.275 -200.02)"><path class="h" d="M0,0H102.87"/></g><g transform="translate(355.275 -167.907)"><path class="h" d="M0,0V-31.826"/></g><g transform="translate(458.145 -200.02)"><path class="h" d="M0,0H102.87"/></g><g transform="translate(458.145 -167.907)"><path class="h" d="M0,0V-31.826"/></g><g transform="translate(561.015 -200.02)"><path class="h" d="M0,0H102.87"/></g><g transform="translate(561.015 -167.907)"><path class="h" d="M0,0V-31.826"/></g><g transform="translate(663.885 -200.02)"><path class="h" d="M0,0H102.465"/></g><g transform="translate(663.885 -167.907)"><path class="h" d="M0,0V-31.826"/></g><g transform="translate(49.618 -167.62)"><path class="h" d="M0,0H202.787"/></g><g transform="translate(49.905 -135.507)"><path class="h" d="M0,0V-31.826"/></g><g transform="translate(252.405 -167.62)"><path class="h" d="M0,0H102.87"/></g><g transform="translate(252.405 -135.507)"><path class="h" d="M0,0V-31.826"/></g><g transform="translate(355.275 -167.62)"><path class="h" d="M0,0H102.87"/></g><g transform="translate(355.275 -135.507)"><path class="h" d="M0,0V-31.826"/></g><g transform="translate(458.145 -167.62)"><path class="h" d="M0,0H102.87"/></g><g transform="translate(458.145 -135.507)"><path class="h" d="M0,0V-31.826"/></g><g transform="translate(561.015 -167.62)"><path class="h" d="M0,0H102.87"/></g><g transform="translate(561.015 -135.507)"><path class="h" d="M0,0V-31.826"/></g><g transform="translate(663.885 -167.62)"><path class="h" d="M0,0H102.465"/></g><g transform="translate(663.885 -135.507)"><path class="h" d="M0,0V-31.826"/></g><g transform="translate(49.618 -135.22)"><path class="h" d="M0,0H202.787"/></g><g transform="translate(49.905 -103.107)"><path class="h" d="M0,0V-31.826"/></g><g transform="translate(252.405 -135.22)"><path class="h" d="M0,0H102.87"/></g><g transform="translate(252.405 -103.107)"><path class="h" d="M0,0V-31.826"/></g><g transform="translate(355.275 -135.22)"><path class="h" d="M0,0H102.87"/></g><g transform="translate(355.275 -103.107)"><path class="h" d="M0,0V-31.826"/></g><g transform="translate(458.145 -135.22)"><path class="h" d="M0,0H102.87"/></g><g transform="translate(458.145 -103.107)"><path class="h" d="M0,0V-31.826"/></g><g transform="translate(561.015 -135.22)"><path class="h" d="M0,0H102.87"/></g><g transform="translate(561.015 -103.107)"><path class="h" d="M0,0V-31.826"/></g><g transform="translate(663.885 -135.22)"><path class="h" d="M0,0H102.465"/></g><g transform="translate(663.885 -103.107)"><path class="h" d="M0,0V-31.826"/></g><g transform="translate(49.618 -102.82)"><path class="h" d="M0,0H202.787"/></g><g transform="translate(49.905 -70.707)"><path class="h" d="M0,0V-31.826"/></g><g transform="translate(252.405 -102.82)"><path class="h" d="M0,0H102.87"/></g><g transform="translate(252.405 -70.707)"><path class="h" d="M0,0V-31.826"/></g><g transform="translate(355.275 -102.82)"><path class="h" d="M0,0H102.87"/></g><g transform="translate(355.275 -70.707)"><path class="h" d="M0,0V-31.826"/></g><g transform="translate(458.145 -102.82)"><path class="h" d="M0,0H102.87"/></g><g transform="translate(458.145 -70.707)"><path class="h" d="M0,0V-31.826"/></g><g transform="translate(561.015 -102.82)"><path class="h" d="M0,0H102.87"/></g><g transform="translate(561.015 -70.707)"><path class="h" d="M0,0V-31.826"/></g><g transform="translate(663.885 -102.82)"><path class="h" d="M0,0H102.465"/></g><g transform="translate(663.885 -70.707)"><path class="h" d="M0,0V-31.826"/></g><g transform="translate(49.618 -70.42)"><path class="h" d="M0,0H202.787"/></g><g transform="translate(49.905 -38.307)"><path class="h" d="M0,0V-31.826"/></g><g transform="translate(252.405 -70.42)"><path class="h" d="M0,0H102.87"/></g><g transform="translate(252.405 -38.307)"><path class="h" d="M0,0V-31.826"/></g><g transform="translate(355.275 -70.42)"><path class="h" d="M0,0H102.87"/></g><g transform="translate(355.275 -38.307)"><path class="h" d="M0,0V-31.826"/></g><g transform="translate(458.145 -70.42)"><path class="h" d="M0,0H102.87"/></g><g transform="translate(458.145 -38.307)"><path class="h" d="M0,0V-31.826"/></g><g transform="translate(561.015 -70.42)"><path class="h" d="M0,0H102.87"/></g><g transform="translate(561.015 -38.307)"><path class="h" d="M0,0V-31.826"/></g><g transform="translate(663.885 -70.42)"><path class="h" d="M0,0H102.465"/></g><g transform="translate(663.885 -38.307)"><path class="h" d="M0,0V-31.826"/></g><g transform="translate(49.618 -38.02)"><path class="h" d="M0,0H202.787"/></g><g transform="translate(49.905 -6.025)"><path class="h" d="M0,0V-31.708"/></g><g transform="translate(252.405 -38.02)"><path class="h" d="M0,0H102.87"/></g><g transform="translate(252.405 -6.025)"><path class="h" d="M0,0V-31.708"/></g><g transform="translate(355.275 -38.02)"><path class="h" d="M0,0H102.87"/></g><g transform="translate(355.275 -6.025)"><path class="h" d="M0,0V-31.708"/></g><g transform="translate(458.145 -38.02)"><path class="h" d="M0,0H102.87"/></g><g transform="translate(458.145 -6.025)"><path class="h" d="M0,0V-31.708"/></g><g transform="translate(561.015 -38.02)"><path class="h" d="M0,0H102.87"/></g><g transform="translate(561.015 -6.025)"><path class="h" d="M0,0V-31.708"/></g><g transform="translate(663.885 -38.02)"><path class="h" d="M0,0H102.465"/></g><g transform="translate(663.885 -6.025)"><path class="h" d="M0,0V-31.708"/></g><g transform="translate(9 -342.58)"><path class="i" d="M0,0H40.9"/></g><g transform="translate(9.405 -319.9)"><path class="i" d="M0,0V-22.275"/></g><g transform="translate(49.905 -342.58)"><path class="i" d="M0,0H202.5"/></g><g transform="translate(252.405 -342.58)"><path class="i" d="M0,0H102.87"/></g><g transform="translate(355.275 -342.58)"><path class="i" d="M0,0H102.87"/></g><g transform="translate(458.145 -342.58)"><path class="i" d="M0,0H102.87"/></g><g transform="translate(561.015 -342.58)"><path class="i" d="M0,0H102.87"/></g><g transform="translate(663.885 -342.58)"><path class="i" d="M0,0H103.275"/></g><g transform="translate(766.755 -319.9)"><path class="i" d="M0,0V-22.275"/></g><g transform="translate(9.405 -297.22)"><path class="i" d="M0,0V-22.68"/></g><g transform="translate(766.755 -297.22)"><path class="i" d="M0,0V-22.68"/></g><g transform="translate(9.405 -264.82)"><path class="i" d="M0,0V-32.4"/></g><g transform="translate(9.405 -232.42)"><path class="i" d="M0,0V-32.4"/></g><g transform="translate(9.405 -200.02)"><path class="i" d="M0,0V-32.4"/></g><g transform="translate(9.405 -167.62)"><path class="i" d="M0,0V-32.4"/></g><g transform="translate(9.405 -135.22)"><path class="i" d="M0,0V-32.4"/></g><g transform="translate(9.405 -102.82)"><path class="i" d="M0,0V-32.4"/></g><g transform="translate(9.405 -70.42)"><path class="i" d="M0,0V-32.4"/></g><g transform="translate(9.405 -38.02)"><path class="i" d="M0,0V-32.4"/></g><g transform="translate(9.405 -6.025)"><path class="i" d="M0,0V-32"/></g><g transform="translate(9 -5.62)"><path class="i" d="M0,0H40.9"/></g><g transform="translate(766.755 -264.82)"><path class="i" d="M0,0V-32.4"/></g><g transform="translate(766.755 -232.42)"><path class="i" d="M0,0V-32.4"/></g><g transform="translate(766.755 -200.02)"><path class="i" d="M0,0V-32.4"/></g><g transform="translate(766.755 -167.62)"><path class="i" d="M0,0V-32.4"/></g><g transform="translate(766.755 -135.22)"><path class="i" d="M0,0V-32.4"/></g><g transform="translate(766.755 -102.82)"><path class="i" d="M0,0V-32.4"/></g><g transform="translate(766.755 -70.42)"><path class="i" d="M0,0V-32.4"/></g><g transform="translate(766.755 -38.02)"><path class="i" d="M0,0V-32.4"/></g><g transform="translate(766.755 -6.025)"><path class="i" d="M0,0V-32"/></g><g transform="translate(49.905 -5.62)"><path class="i" d="M0,0H202.5"/></g><g transform="translate(252.405 -5.62)"><path class="i" d="M0,0H102.87"/></g><g transform="translate(355.275 -5.62)"><path class="i" d="M0,0H102.87"/></g><g transform="translate(458.145 -5.62)"><path class="i" d="M0,0H102.87"/></g><g transform="translate(561.015 -5.62)"><path class="i" d="M0,0H102.87"/></g><g transform="translate(663.885 -5.62)"><path class="i" d="M0,0H103.275"/></g><text class="j" transform="translate(136.575 -314.36)"><tspan x="0" y="0">内容</tspan></text><text class="j" transform="translate(281.967 -325.703)"><tspan x="0" y="0">チラ</tspan><tspan y="0">見</tspan></text><text class="j" transform="translate(384.843 -325.703)"><tspan x="0" y="0">ガン</tspan><tspan y="0">見</tspan></text><text class="j" transform="translate(495.01 -325.703)"><tspan x="0" y="0">和</tspan><tspan y="0">み</tspan></text><text class="j" transform="translate(597.886 -325.703)"><tspan x="0" y="0">励</tspan><tspan y="0">み</tspan></text><text class="j" transform="translate(700.763 -325.703)"><tspan x="0" y="0">極</tspan><tspan y="0">み</tspan></text><text class="k" transform="translate(263.561 -305.288)"><tspan x="0" y="0">年会費</tspan></text><text class="j" transform="translate(291.544 -303.02)"><tspan x="0" y="0">1000</tspan></text><text class="j" transform="translate(329.54 -303.02)"><tspan x="0" y="0">円</tspan></text><text class="k" transform="translate(372.022 -305.288)"><tspan x="0" y="0">年会費</tspan></text><text class="j" transform="translate(400.005 -303.02)"><tspan x="0" y="0">1</tspan></text><text class="j" transform="translate(412.238 -303.02)"><tspan x="0" y="0">万円</tspan></text><text class="k" transform="translate(470.598 -305.288)"><tspan x="0" y="0">年会費</tspan></text><text class="j" transform="translate(498.582 -303.02)"><tspan x="0" y="0">30</tspan></text><text class="j" transform="translate(519.402 -303.02)"><tspan x="0" y="0">万円</tspan></text><text class="k" transform="translate(569.175 -305.288)"><tspan x="0" y="0">年会費</tspan></text><text class="j" transform="translate(597.158 -303.02)"><tspan x="0" y="0">200</tspan></text><text class="j" transform="translate(626.566 -303.02)"><tspan x="0" y="0">万円</tspan></text><text class="k" transform="translate(672.045 -305.288)"><tspan x="0" y="0">年会費</tspan></text><text class="j" transform="translate(700.028 -303.02)"><tspan x="0" y="0">500</tspan></text><text class="j" transform="translate(729.436 -303.02)"><tspan x="0" y="0">万円</tspan></text><text class="l" transform="translate(22.364 -188.931)"><tspan x="0" y="0">サ</tspan></text><text class="l" transform="translate(22.364 -171.712)"><tspan x="0" y="0">ポ</tspan></text><text class="l" transform="translate(35.195 -152.741) rotate(-90)"><tspan x="0" y="0">ー</tspan></text><text class="l" transform="translate(22.365 -137.27)"><tspan x="0" y="0">タ</tspan></text><text class="l" transform="translate(35.195 -118.3) rotate(-90)"><tspan x="0" y="0">ー</tspan></text><text class="l" transform="translate(22.365 -102.829)"><tspan x="0" y="0">様</tspan></text><text class="m" transform="translate(81.895 -275.485)"><tspan x="0" y="0">活動報告提出（随時）</tspan></text><text class="m" transform="translate(294.909 -275.485)"><tspan x="0" y="0" xml:space="preserve"> ◎</tspan></text><text class="m" transform="translate(399.418 -275.485)"><tspan x="0" y="0">◎</tspan></text><text class="m" transform="translate(502.295 -275.485)"><tspan x="0" y="0">◎</tspan></text><text class="m" transform="translate(605.171 -275.485)"><tspan x="0" y="0">◎</tspan></text><text class="m" transform="translate(708.048 -275.485)"><tspan x="0" y="0">◎</tspan></text><text class="m" transform="translate(107.439 -243.088)"><tspan x="0" y="0">お</tspan><tspan y="0">礼状</tspan><tspan y="0">の</tspan><tspan y="0">送付</tspan></text><text class="m" transform="translate(296.571 -243.088)"><tspan x="0" y="0">◎</tspan></text><text class="m" transform="translate(399.448 -243.088)"><tspan x="0" y="0">◎</tspan></text><text class="m" transform="translate(502.324 -243.088)"><tspan x="0" y="0">◎</tspan></text><text class="m" transform="translate(605.201 -243.088)"><tspan x="0" y="0">◎</tspan></text><text class="m" transform="translate(708.077 -243.088)"><tspan x="0" y="0">◎</tspan></text><text class="m" transform="translate(58.261 -210.692)"><tspan x="0" y="0">F</tspan></text><text class="m" transform="translate(65.755 -210.692)"><tspan x="0" y="0">ac</tspan></text><text class="m" transform="translate(81.05 -210.692)"><tspan x="0" y="0">ebook</tspan></text><text class="m" transform="translate(127.501 -210.692)"><tspan x="0" y="0">グループへの</tspan><tspan y="0">招待</tspan></text><text class="m" transform="translate(296.6 -210.692)"><tspan x="0" y="0">◎</tspan></text><text class="m" transform="translate(399.477 -210.692)"><tspan x="0" y="0">◎</tspan></text><text class="m" transform="translate(502.353 -210.692)"><tspan x="0" y="0">◎</tspan></text><text class="m" transform="translate(605.23 -210.692)"><tspan x="0" y="0">◎</tspan></text><text class="m" transform="translate(708.106 -210.692)"><tspan x="0" y="0">◎</tspan></text><text class="m" transform="translate(67.403 -178.295)"><tspan x="0" y="0">選手</tspan><tspan y="0">との</tspan><tspan y="0">記念撮影（個別）</tspan></text><text class="m" transform="translate(296.629 -178.295)"><tspan x="0" y="0">◎</tspan></text><text class="m" transform="translate(399.506 -178.295)"><tspan x="0" y="0">◎</tspan></text><text class="m" transform="translate(502.382 -178.295)"><tspan x="0" y="0">◎</tspan></text><text class="m" transform="translate(605.259 -178.295)"><tspan x="0" y="0">◎</tspan></text><text class="m" transform="translate(708.135 -178.295)"><tspan x="0" y="0">◎</tspan></text><text class="m" transform="translate(107.527 -145.898)"><tspan x="0" y="0">イベント</tspan><tspan y="0">招待</tspan></text><text class="n" transform="translate(296.659 -145.898)"><tspan x="0" y="0">×</tspan></text><text class="m" transform="translate(399.535 -145.898)"><tspan x="0" y="0">△</tspan></text><text class="m" transform="translate(502.412 -145.898)"><tspan x="0" y="0">◯</tspan></text><text class="m" transform="translate(605.288 -145.898)"><tspan x="0" y="0">◎</tspan></text><text class="m" transform="translate(708.165 -145.898)"><tspan x="0" y="0">◎</tspan></text><text class="m" transform="translate(90.76 -113.501)"><tspan x="0" y="0">r</tspan></text><text class="m" transform="translate(96.023 -113.501)"><tspan x="0" y="0">aqr</tspan></text><text class="m" transform="translate(118.549 -113.501)"><tspan x="0" y="0">a HP</tspan></text><text class="m" transform="translate(153.512 -113.501)"><tspan x="0" y="0">への</tspan><tspan y="0">掲載</tspan></text><text class="n" transform="translate(296.688 -113.501)"><tspan x="0" y="0">×</tspan></text><text class="n" transform="translate(399.564 -113.501)"><tspan x="0" y="0">×</tspan></text><text class="m" transform="translate(502.441 -113.501)"><tspan x="0" y="0">△</tspan></text><text class="m" transform="translate(605.317 -113.501)"><tspan x="0" y="0">◯</tspan></text><text class="m" transform="translate(708.194 -113.501)"><tspan x="0" y="0">◎</tspan></text><text class="m" transform="translate(54.747 -81.104)"><tspan x="0" y="0">毎月</tspan><tspan y="0">お</tspan><tspan y="0">食事券（5,000</tspan></text><text class="m" transform="translate(196.873 -81.104)"><tspan x="0" y="0">円相当）</tspan></text><text class="n" transform="translate(296.717 -81.104)"><tspan x="0" y="0">×</tspan></text><text class="n" transform="translate(399.593 -81.104)"><tspan x="0" y="0">×</tspan></text><text class="n" transform="translate(502.47 -81.104)"><tspan x="0" y="0">×</tspan></text><text class="m" transform="translate(605.346 -81.104)"><tspan x="0" y="0">◎</tspan></text><text class="m" transform="translate(708.223 -81.104)"><tspan x="0" y="0">◎</tspan></text><text class="m" transform="translate(54.15 -48.708)"><tspan x="0" y="0">毎月</tspan><tspan y="0">お</tspan><tspan y="0">食事券</tspan></text><text class="m" transform="translate(134.783 -48.708)"><tspan x="0" y="0">（10,000</tspan></text><text class="m" transform="translate(197.52 -48.708)"><tspan x="0" y="0">円相当）</tspan></text><text class="n" transform="translate(296.746 -48.708)"><tspan x="0" y="0">×</tspan></text><text class="n" transform="translate(399.623 -48.708)"><tspan x="0" y="0">×</tspan></text><text class="n" transform="translate(502.499 -48.708)"><tspan x="0" y="0">×</tspan></text><text class="n" transform="translate(605.376 -48.708)"><tspan x="0" y="0">×</tspan></text><text class="m" transform="translate(708.252 -48.708)"><tspan x="0" y="0">◎</tspan></text><text class="m" transform="translate(122.224 -16.311)"><tspan x="0" y="0">販売枠数</tspan></text><text class="m" transform="translate(282.195 -16.311)"><tspan x="0" y="0">無制限</tspan></text><text class="m" transform="translate(385.072 -16.311)"><tspan x="0" y="0">無制限</tspan></text><text class="m" transform="translate(497.673 -16.311)"><tspan x="0" y="0">100</tspan></text><text class="m" transform="translate(604.588 -16.311)"><tspan x="0" y="0">10</tspan></text><text class="m" transform="translate(711.503 -16.311)"><tspan x="0" y="0">1</tspan></text></g></g></svg>